{"glyphs":{"0":{"ha":826,"x_min":0,"x_max":0,"o":"m 504 1008 b 629 981 553 1008 595 999 b 713 908 663 963 691 939 b 761 801 735 878 751 842 b 776 671 771 759 776 716 b 767 521 776 624 773 574 b 735 365 760 468 750 416 b 681 217 721 313 703 264 b 600 92 658 169 631 128 b 490 7 569 57 532 28 b 349 -25 449 -14 401 -25 b 223 1 300 -25 258 -16 b 138 72 188 19 160 43 b 89 177 115 102 99 137 b 74 307 79 217 74 261 b 83 459 74 355 77 406 b 115 617 90 512 100 565 b 170 765 129 669 147 718 b 252 890 193 813 220 854 b 363 976 284 926 321 955 b 504 1008 404 998 451 1008 m 493 897 b 378 847 451 897 413 881 b 288 716 343 814 313 770 b 229 533 263 662 243 601 b 208 326 215 465 208 396 b 216 235 208 294 211 263 b 241 159 221 206 229 181 b 288 107 253 137 268 120 b 358 88 307 94 331 88 b 472 138 400 88 438 104 b 560 268 506 171 536 214 b 618 451 585 322 604 383 b 639 657 632 519 639 588 b 632 749 639 689 637 720 b 608 826 627 778 619 804 b 563 878 596 847 581 865 b 493 897 544 891 521 897 "},"1":{"ha":826,"x_min":0,"x_max":0,"o":"m 318 0 l 464 824 l 249 667 l 186 765 l 499 983 l 624 983 l 450 0 "},"2":{"ha":826,"x_min":0,"x_max":0,"o":"m 11 0 l 33 128 l 488 515 b 601 633 538 558 576 597 b 638 751 625 668 638 708 b 592 858 638 797 622 832 b 476 896 562 883 524 896 b 345 851 424 896 380 881 b 271 732 310 821 286 781 l 149 763 b 275 943 175 839 217 900 b 483 1008 333 987 403 1008 b 599 991 525 1008 563 1003 b 690 942 634 979 664 963 b 751 864 716 920 736 894 b 772 761 765 833 772 799 b 758 660 772 723 767 689 b 716 576 748 630 734 602 b 649 500 698 550 675 525 b 558 421 622 475 592 449 l 199 119 l 672 119 l 651 0 "},"3":{"ha":826,"x_min":0,"x_max":0,"o":"m 367 568 b 550 618 448 568 509 585 b 611 763 591 651 611 700 b 569 861 611 804 597 837 b 461 897 542 885 506 897 b 272 782 377 897 314 859 l 169 842 b 299 967 205 898 248 940 b 471 1008 350 995 407 1008 b 576 992 508 1008 543 1003 b 663 945 609 982 638 966 b 722 869 688 924 707 899 b 743 765 736 839 743 804 b 686 601 743 699 724 644 b 536 514 648 559 598 530 l 536 511 b 652 438 583 500 622 476 b 697 304 682 401 697 356 b 672 169 697 254 689 209 b 599 65 654 128 630 94 b 486 -1 567 37 530 14 b 342 -25 443 -17 394 -25 b 145 31 265 -25 199 -6 b 33 185 91 68 54 119 l 160 226 b 227 124 170 182 192 148 b 350 89 262 101 303 89 b 505 144 416 89 467 107 b 561 290 542 180 561 229 b 544 368 561 321 555 347 b 497 421 532 389 517 407 b 428 451 478 435 455 445 b 344 460 402 457 374 460 l 301 460 l 321 568 "},"4":{"ha":826,"x_min":0,"x_max":0,"o":"m 751 336 l 731 221 l 590 221 l 553 0 l 425 0 l 463 221 l 8 221 l 31 349 l 551 983 l 724 983 l 608 336 m 568 840 l 164 336 l 482 336 l 572 840 "},"5":{"ha":826,"x_min":0,"x_max":0,"o":"m 349 867 l 294 607 b 349 619 311 613 329 617 b 410 624 369 622 389 624 b 521 606 449 624 486 618 b 615 552 556 594 587 576 b 680 465 642 528 664 500 b 704 346 696 431 704 391 b 677 194 704 290 695 240 b 601 76 659 148 634 109 b 483 1 568 44 529 19 b 333 -25 438 -16 388 -25 b 138 29 256 -25 191 -7 b 29 164 85 65 49 110 l 150 214 b 217 123 163 176 185 146 b 332 89 249 100 288 89 b 433 107 370 89 403 95 b 506 158 462 119 486 136 b 551 233 526 179 541 205 b 567 326 562 262 567 293 b 551 408 567 357 561 384 b 508 468 540 431 526 451 b 444 506 490 485 468 497 b 364 518 419 514 393 518 b 252 502 329 518 291 513 b 147 460 213 491 178 477 l 251 983 l 753 983 l 731 867 "},"6":{"ha":826,"x_min":0,"x_max":0,"o":"m 721 335 b 694 193 721 284 712 237 b 620 79 677 150 652 112 b 503 3 588 47 549 21 b 350 -25 458 -16 406 -25 b 226 -4 306 -25 264 -18 b 128 55 188 10 156 29 b 63 147 100 80 78 111 b 40 264 48 182 40 221 b 74 410 40 313 52 362 b 181 571 97 459 132 513 l 515 983 l 675 983 l 338 583 l 339 579 b 384 597 352 587 367 592 b 438 603 401 601 419 603 b 556 582 481 603 520 596 b 645 525 591 568 621 549 b 701 440 670 501 688 473 b 721 335 714 408 721 373 m 588 324 b 574 395 588 350 583 373 b 538 451 566 417 553 436 b 484 488 523 467 505 479 b 415 501 463 497 440 501 b 317 483 379 501 346 495 b 240 433 287 471 262 455 b 191 358 219 412 203 387 b 174 264 179 328 174 297 b 188 192 174 238 178 214 b 226 135 197 171 209 152 b 283 98 242 119 261 107 b 354 85 304 89 328 85 b 451 103 390 85 423 91 b 524 153 480 115 504 131 b 571 228 544 174 560 199 b 588 324 582 258 588 289 "},"7":{"ha":826,"x_min":0,"x_max":0,"o":"m 231 0 l 69 0 l 650 865 l 174 865 l 194 983 l 813 983 l 792 863 "},"8":{"ha":826,"x_min":0,"x_max":0,"o":"m 763 772 b 746 678 763 737 757 706 b 701 604 735 650 720 625 b 638 550 683 583 662 565 b 564 515 615 535 590 524 l 565 513 b 674 438 609 500 645 475 b 717 306 702 400 717 356 b 688 165 717 253 707 206 b 610 62 668 125 642 90 b 495 -3 577 34 539 12 b 357 -25 451 -18 405 -25 b 250 -10 321 -25 285 -20 b 156 38 215 0 183 16 b 88 119 128 59 105 86 b 63 238 71 152 63 191 b 82 344 63 276 69 312 b 135 429 95 376 113 404 b 211 491 157 454 182 475 b 303 525 240 507 270 519 l 303 529 b 215 601 267 545 237 569 b 181 714 192 634 181 671 b 206 837 181 759 189 800 b 274 930 222 873 245 904 b 374 988 302 955 336 975 b 494 1008 412 1002 452 1008 b 597 994 531 1008 565 1003 b 683 950 630 984 658 969 b 741 876 707 931 727 906 b 763 772 755 847 763 812 m 636 753 b 594 860 636 800 622 836 b 485 897 567 885 530 897 b 411 883 458 897 433 892 b 354 843 389 873 370 860 b 317 785 338 826 326 807 b 304 715 309 764 304 740 b 343 616 304 676 317 643 b 449 575 369 589 404 575 b 524 590 475 575 500 580 b 583 629 547 599 567 613 b 622 686 600 646 613 665 b 636 753 631 707 636 730 m 588 303 b 542 419 588 350 572 389 b 421 464 511 449 471 464 b 329 448 388 464 357 459 b 257 403 301 437 277 422 b 209 335 237 383 221 361 b 192 250 197 309 192 281 b 241 128 192 197 208 157 b 363 86 274 100 314 86 b 458 103 399 86 431 92 b 528 149 486 114 509 129 b 572 217 547 168 562 191 b 588 303 582 244 588 272 "},"9":{"ha":826,"x_min":0,"x_max":0,"o":"m 807 719 b 773 573 807 670 796 622 b 667 413 750 524 715 471 l 332 0 l 172 0 l 510 400 l 508 404 b 487 394 502 400 495 397 b 463 388 479 392 471 389 b 410 381 444 383 426 381 b 292 401 366 381 327 388 b 202 458 256 415 227 434 b 146 543 178 482 159 511 b 126 649 133 575 126 611 b 153 790 126 700 135 747 b 227 904 170 834 195 872 b 344 981 259 937 298 962 b 497 1008 390 999 441 1008 b 621 988 542 1008 583 1001 b 719 928 659 974 692 954 b 784 837 747 903 769 872 b 807 719 799 801 807 762 m 675 719 b 661 791 675 745 670 769 b 623 848 652 813 639 832 b 565 885 607 864 588 877 b 493 899 543 894 519 899 b 396 881 457 899 425 893 b 322 831 367 869 343 852 b 275 755 302 809 286 784 b 258 660 264 726 258 694 b 272 588 258 634 263 610 b 308 532 280 566 292 548 b 363 495 323 516 341 504 b 432 482 384 486 407 482 b 531 500 468 482 501 488 b 607 550 560 512 586 529 b 657 626 628 571 645 597 b 675 719 669 655 675 686 "},"\u0000":{"ha":694,"x_min":0,"x_max":0,"o":""},"\r":{"ha":0,"x_min":0,"x_max":0,"o":""}," ":{"ha":347,"x_min":0,"x_max":0,"o":""},"!":{"ha":399,"x_min":0,"x_max":0,"o":"m 108 288 l 232 983 l 364 983 l 240 288 m 236 85 b 210 21 236 61 227 39 b 147 -7 192 2 171 -7 b 85 16 123 -7 102 1 b 58 79 67 31 58 52 b 86 145 58 106 68 128 b 150 171 105 162 126 171 b 211 148 174 171 194 163 b 236 85 228 133 236 112 "},"\"":{"ha":590,"x_min":0,"x_max":0,"o":"m 374 638 l 435 983 l 546 983 l 485 638 m 150 638 l 213 983 l 324 983 l 263 638 "},"#":{"ha":796,"x_min":0,"x_max":0,"o":"m 33 293 l 51 393 l 197 393 l 260 592 l 124 592 l 140 692 l 292 692 l 385 983 l 488 983 l 394 692 l 558 692 l 651 983 l 754 983 l 661 692 l 786 692 l 769 592 l 629 592 l 567 393 l 696 393 l 679 293 l 538 293 l 443 0 l 340 0 l 435 293 l 269 293 l 176 0 l 74 0 l 167 293 m 465 393 l 528 592 l 363 592 l 300 393 "},"$":{"ha":826,"x_min":0,"x_max":0,"o":"m 674 806 b 613 861 659 827 639 845 b 522 888 588 877 557 886 l 463 554 b 556 511 496 541 527 527 b 631 456 584 495 609 477 b 681 385 652 435 669 412 b 699 290 693 358 699 326 b 678 182 699 253 692 217 b 617 88 665 147 644 115 b 512 18 589 60 554 37 b 363 -15 470 0 420 -12 l 344 -117 l 281 -117 l 299 -15 b 138 26 243 -12 190 1 b 19 132 87 50 47 86 l 129 207 b 205 131 146 177 171 152 b 318 96 239 109 276 98 l 381 450 b 294 486 351 460 322 472 b 219 538 266 500 241 517 b 168 608 198 558 181 581 b 149 701 155 635 149 666 b 171 816 149 742 156 780 b 235 909 186 852 207 883 b 338 973 263 935 297 957 b 476 1000 378 989 425 998 l 494 1100 l 558 1100 l 540 1000 b 681 963 593 995 640 983 b 778 885 721 943 754 917 l 674 806 m 457 888 b 390 874 434 886 412 881 b 333 842 369 866 350 856 b 294 790 317 828 303 811 b 279 718 284 770 279 746 b 311 629 279 680 290 650 b 401 575 332 608 363 590 l 457 888 m 565 275 b 530 371 565 316 553 348 b 440 429 506 394 476 413 l 382 96 b 514 149 436 99 480 116 b 565 275 548 182 565 224 "},"%":{"ha":1206,"x_min":0,"x_max":0,"o":"m 576 797 b 556 684 576 756 569 719 b 498 592 542 649 522 619 b 410 531 473 566 444 545 b 299 508 377 516 339 508 b 211 524 267 508 238 513 b 142 567 184 534 161 548 b 96 632 122 585 107 607 b 79 715 85 657 79 685 b 100 826 79 755 86 792 b 158 917 114 861 133 891 b 247 978 183 943 213 963 b 360 1000 281 993 319 1000 b 447 985 391 1000 420 995 b 516 944 474 976 497 962 b 560 880 535 926 550 904 b 576 797 571 855 576 828 m 453 778 b 424 853 453 807 443 833 b 347 885 405 874 380 885 b 245 840 306 885 272 870 b 206 729 219 811 206 774 b 233 654 206 700 215 675 b 308 624 251 634 276 624 b 413 668 351 624 386 638 b 453 778 439 698 453 734 m 1129 272 b 1108 159 1129 231 1122 194 b 1051 67 1094 124 1075 94 b 963 6 1026 41 997 20 b 851 -17 929 -9 892 -17 b 764 -1 820 -17 791 -12 b 694 42 737 9 714 23 b 649 107 675 60 660 82 b 632 190 638 132 632 160 b 653 301 632 230 639 267 b 711 392 667 336 686 366 b 800 453 736 418 766 438 b 913 475 834 468 872 475 b 1000 460 944 475 973 470 b 1069 419 1027 451 1050 437 b 1113 355 1088 401 1103 379 b 1129 272 1124 330 1129 303 m 1006 253 b 977 328 1006 282 996 308 b 900 360 958 349 932 360 b 798 315 858 360 824 345 b 758 204 772 286 758 249 b 785 129 758 175 767 150 b 861 99 803 109 829 99 b 965 143 904 99 938 113 b 1006 253 992 173 1006 209 m 167 3 l 950 1029 l 1032 971 l 250 -56 "},"&":{"ha":1003,"x_min":0,"x_max":0,"o":"m 911 0 l 746 0 l 642 135 b 490 17 591 80 540 41 b 328 -18 439 -6 385 -18 b 210 -2 285 -18 246 -13 b 117 46 174 9 143 25 b 56 125 91 67 71 94 b 35 236 42 156 35 194 b 59 347 35 277 43 314 b 122 435 75 381 96 410 b 209 503 147 461 176 483 b 308 551 242 522 275 538 b 258 644 287 579 270 610 b 239 747 245 678 239 712 b 258 853 239 786 245 822 b 313 936 271 885 289 913 b 395 990 336 959 363 977 b 499 1008 427 1002 462 1008 b 594 994 533 1008 565 1003 b 670 951 623 984 648 970 b 721 883 692 933 709 910 b 739 792 733 856 739 826 b 720 704 739 760 733 731 b 667 631 708 677 690 653 b 586 569 645 608 618 588 b 483 517 555 550 520 532 l 642 319 l 788 526 l 944 526 l 718 233 m 613 785 b 583 870 613 820 603 848 b 500 903 563 892 535 903 b 399 861 458 903 425 889 b 361 756 374 833 361 798 b 381 668 361 726 368 697 b 425 597 394 639 408 616 b 498 632 451 607 475 619 b 558 674 521 645 541 659 b 598 725 575 690 588 706 b 613 785 608 744 613 763 m 372 465 b 296 430 345 455 320 443 b 232 383 272 416 250 401 b 188 323 213 366 199 346 b 172 244 178 300 172 274 b 185 183 172 222 177 202 b 221 136 194 165 206 149 b 273 106 236 123 253 113 b 338 96 293 99 314 96 b 459 128 383 96 423 107 b 564 224 495 150 530 182 l 372 465 "},"'":{"ha":368,"x_min":0,"x_max":0,"o":"m 324 983 l 263 638 l 150 638 l 211 983 "},"(":{"ha":438,"x_min":0,"x_max":0,"o":"m 144 239 b 169 22 144 164 153 91 b 239 -168 185 -48 208 -112 l 140 -217 b 58 -8 105 -156 78 -87 b 28 238 38 70 28 152 b 115 651 28 380 57 518 b 356 1018 172 785 253 907 l 438 958 b 315 795 392 907 351 853 b 223 616 279 737 248 678 b 165 428 197 554 178 492 b 144 239 151 364 144 301 "},")":{"ha":438,"x_min":0,"x_max":0,"o":"m 290 563 b 265 780 290 638 282 710 b 196 969 249 850 225 913 l 294 1018 b 377 810 330 958 357 888 b 407 564 397 731 407 649 b 320 150 407 421 378 283 b 79 -217 262 17 182 -106 l -3 -157 b 119 6 43 -106 83 -52 b 212 185 156 64 186 124 b 270 374 237 247 257 310 b 290 563 284 438 290 500 "},"*":{"ha":629,"x_min":0,"x_max":0,"o":"m 636 756 l 460 699 l 572 547 l 483 481 l 367 638 l 250 481 l 161 547 l 274 699 l 97 756 l 135 861 l 311 804 l 311 983 l 422 983 l 422 804 l 599 861 "},"+":{"ha":925,"x_min":0,"x_max":0,"o":"m 828 478 l 828 364 l 519 364 l 519 56 l 406 56 l 406 364 l 97 364 l 97 478 l 406 478 l 406 786 l 519 786 l 519 478 "},",":{"ha":361,"x_min":0,"x_max":0,"o":"m -60 -185 l 97 161 l 226 161 l 50 -185 "},"-":{"ha":444,"x_min":0,"x_max":0,"o":"m 36 285 l 56 394 l 378 394 l 358 285 "},".":{"ha":361,"x_min":0,"x_max":0,"o":"m 201 85 b 176 21 201 61 193 39 b 113 -7 159 2 138 -7 b 51 16 88 -7 68 1 b 25 79 34 31 25 52 b 53 145 25 106 34 128 b 117 171 71 162 93 171 b 177 148 141 171 161 163 b 201 85 193 133 201 112 "},"/":{"ha":526,"x_min":0,"x_max":0,"o":"m -79 -11 l 532 1029 l 621 994 l 13 -46 "},":":{"ha":417,"x_min":0,"x_max":0,"o":"m 236 85 b 210 21 236 61 227 39 b 147 -7 192 2 171 -7 b 85 16 123 -7 102 1 b 58 79 67 31 58 52 b 86 145 58 106 68 128 b 150 171 105 162 126 171 b 211 148 174 171 194 163 b 236 85 228 133 236 112 m 315 579 b 290 515 315 555 307 534 b 226 488 272 497 251 488 b 165 510 202 488 182 495 b 139 574 147 526 139 547 b 167 640 139 600 148 623 b 231 667 185 658 206 667 b 291 643 255 667 275 659 b 315 579 307 627 315 606 "},";":{"ha":417,"x_min":0,"x_max":0,"o":"m -40 -185 l 115 161 l 250 161 l 74 -185 m 315 579 b 290 515 315 555 307 534 b 226 488 272 497 251 488 b 165 510 202 488 182 495 b 139 574 147 526 139 547 b 167 640 139 600 148 623 b 231 667 185 658 206 667 b 291 643 255 667 275 659 b 315 579 307 627 315 606 "},"<":{"ha":925,"x_min":0,"x_max":0,"o":"m 283 421 l 815 176 l 815 58 l 110 379 l 110 463 l 818 783 l 818 665 "},"=":{"ha":925,"x_min":0,"x_max":0,"o":"m 828 479 l 97 479 l 97 592 l 828 592 m 828 250 l 97 250 l 97 363 l 828 363 "},">":{"ha":925,"x_min":0,"x_max":0,"o":"m 815 463 l 815 379 l 110 58 l 110 176 l 642 421 l 110 665 l 110 783 "},"?":{"ha":694,"x_min":0,"x_max":0,"o":"m 263 278 l 274 346 b 318 465 281 395 296 435 b 407 554 340 496 370 525 l 467 601 b 539 669 494 622 518 644 b 571 763 560 693 571 725 b 535 853 571 801 559 832 b 438 886 512 875 479 886 b 314 840 386 886 344 871 b 254 732 283 810 263 774 l 131 754 b 172 854 139 790 153 824 b 242 933 191 885 214 911 b 335 985 269 956 301 973 b 447 1004 370 998 407 1004 b 547 991 482 1004 516 1000 b 630 950 579 982 606 969 b 686 877 653 931 672 907 b 707 769 700 847 707 811 b 660 624 707 712 691 663 b 533 508 629 584 587 545 b 478 466 512 493 494 478 b 438 427 462 453 449 441 b 413 383 428 414 419 399 b 397 324 406 366 401 347 l 390 278 m 397 85 b 371 21 397 61 388 39 b 308 -7 353 2 332 -7 b 247 16 284 -7 264 1 b 221 79 229 31 221 52 b 248 145 221 106 230 128 b 311 171 266 162 287 171 b 372 148 335 171 356 163 b 397 85 389 133 397 112 "},"@":{"ha":1111,"x_min":0,"x_max":0,"o":"m 1094 624 b 1072 470 1094 570 1087 519 b 1007 342 1056 422 1035 379 b 906 255 979 306 946 277 b 775 222 867 233 823 222 b 685 251 735 222 705 232 b 663 321 664 271 657 294 l 657 321 b 628 287 650 310 640 298 b 588 255 617 275 603 265 b 538 231 573 245 556 237 b 479 222 519 225 500 222 b 347 269 421 222 377 238 b 301 393 316 300 301 341 b 323 515 301 431 309 472 b 385 635 337 558 358 598 b 486 726 413 672 446 702 b 622 763 526 750 571 763 b 713 740 657 763 688 755 b 758 682 739 724 754 705 l 761 682 l 785 742 l 889 742 l 788 482 b 778 458 785 475 782 467 b 768 427 775 448 772 438 b 759 395 764 416 761 406 b 756 369 757 384 756 376 b 767 329 756 351 759 338 b 807 317 774 321 788 317 b 879 342 833 317 857 325 b 936 410 901 359 920 382 b 974 506 952 439 964 470 b 988 613 983 541 988 576 b 963 738 988 660 979 702 b 893 832 946 775 923 806 b 787 891 863 858 828 878 b 651 911 746 904 700 911 b 454 871 579 911 513 898 b 302 762 395 844 344 808 b 203 601 260 716 227 663 b 168 408 180 540 168 476 b 194 268 168 356 177 310 b 270 162 212 226 237 191 b 388 94 303 133 342 110 b 543 71 434 79 486 71 b 743 107 617 71 684 83 b 910 208 802 131 858 165 l 960 135 b 765 15 902 82 837 42 b 529 -25 692 -12 613 -25 b 327 7 454 -25 387 -14 b 176 96 267 28 217 58 b 83 231 136 134 104 179 b 50 404 61 284 50 341 b 95 637 50 486 65 563 b 220 829 125 710 167 775 b 410 960 273 884 337 927 b 653 1008 484 992 565 1008 b 831 983 718 1008 777 1000 b 971 908 885 966 932 941 b 1062 787 1010 875 1040 834 b 1094 624 1084 739 1094 685 m 699 571 b 681 638 699 597 693 619 b 613 665 669 656 646 665 b 542 644 588 665 565 658 b 481 588 520 631 499 612 b 438 508 463 565 449 538 b 421 413 426 478 421 446 b 438 349 421 389 427 368 b 504 319 450 329 472 319 b 581 343 532 319 558 327 b 642 403 605 359 625 379 b 683 484 659 427 673 454 b 699 571 694 514 699 543 "},"A":{"ha":946,"x_min":0,"x_max":0,"o":"m -94 0 l 543 983 l 667 983 l 867 0 l 724 0 l 676 242 l 215 242 l 65 0 m 657 363 l 574 829 l 286 363 "},"B":{"ha":879,"x_min":0,"x_max":0,"o":"m 532 983 b 634 972 566 983 600 980 b 726 935 668 965 698 953 b 792 869 753 918 775 896 b 818 768 809 841 818 808 b 758 605 818 702 798 648 b 601 517 719 562 666 532 l 601 514 b 733 447 655 506 699 483 b 785 304 768 410 785 363 b 753 172 785 254 774 210 b 667 77 733 134 704 103 b 534 19 630 52 585 32 b 365 0 483 6 426 0 l 44 0 l 218 983 m 468 567 b 540 576 491 567 515 570 b 608 605 564 582 587 591 b 659 658 628 618 646 636 b 679 739 672 679 679 706 b 665 799 679 762 675 782 b 627 839 656 815 643 829 b 569 862 611 849 592 857 b 497 869 547 867 523 869 l 332 869 l 278 567 m 378 115 b 479 126 413 115 447 119 b 565 159 512 133 540 144 b 625 219 590 174 610 194 b 647 311 640 244 647 275 b 597 415 647 356 630 390 b 453 453 563 440 515 453 l 258 453 l 199 115 "},"C":{"ha":972,"x_min":0,"x_max":0,"o":"m 906 154 b 838 84 886 129 863 106 b 750 27 812 62 782 43 b 642 -11 718 11 682 -2 b 514 -25 603 -20 560 -25 b 334 6 448 -25 388 -15 b 195 92 280 26 234 55 b 106 225 157 129 127 173 b 74 397 84 277 74 334 b 119 636 74 482 89 562 b 243 830 149 710 190 775 b 428 960 296 885 358 928 b 657 1008 499 992 575 1008 b 762 997 693 1008 728 1005 b 856 966 796 990 827 979 b 933 918 884 953 910 937 b 989 856 956 900 975 879 l 876 774 b 846 815 869 788 859 801 b 798 853 833 829 817 842 b 733 881 779 865 757 874 b 653 892 709 888 682 892 b 476 851 589 892 530 878 b 338 743 423 823 376 788 b 247 590 299 699 269 648 b 215 414 226 533 215 474 b 235 289 215 369 222 328 b 295 187 249 250 269 216 b 393 118 322 158 354 135 b 526 93 432 101 476 93 b 682 126 581 93 633 104 b 814 231 731 149 775 183 l 906 154 "},"D":{"ha":1051,"x_min":0,"x_max":0,"o":"m 536 983 b 701 960 592 983 647 976 b 849 888 756 945 805 921 b 954 760 892 855 927 813 b 994 572 981 708 994 645 b 949 338 994 486 979 408 b 824 157 919 267 877 207 b 633 41 770 107 706 68 b 394 0 560 14 481 0 l 44 0 l 218 983 m 401 119 b 597 156 475 119 541 132 b 738 254 653 181 700 213 b 823 394 775 295 804 341 b 851 556 842 446 851 500 b 831 676 851 598 844 638 b 767 774 817 713 796 746 b 659 842 739 803 703 825 b 503 867 615 858 563 867 l 332 867 l 200 119 "},"E":{"ha":808,"x_min":0,"x_max":0,"o":"m 710 121 l 689 0 l 44 0 l 218 983 l 824 983 l 803 864 l 331 864 l 279 567 l 729 567 l 708 451 l 258 451 l 200 121 "},"F":{"ha":768,"x_min":0,"x_max":0,"o":"m 44 0 l 218 983 l 813 983 l 792 864 l 333 864 l 278 557 l 707 557 l 688 442 l 258 442 l 181 0 "},"G":{"ha":1049,"x_min":0,"x_max":0,"o":"m 538 93 b 765 146 629 94 705 112 l 814 421 l 592 421 l 614 538 l 967 538 l 883 61 b 710 -3 830 32 772 11 b 521 -25 649 -18 586 -25 b 338 6 454 -25 393 -15 b 197 92 283 26 236 55 b 106 225 157 129 127 173 b 74 397 84 277 74 334 b 119 636 74 482 89 562 b 243 830 149 710 190 775 b 428 960 296 885 358 928 b 657 1008 499 992 575 1008 b 856 969 729 1008 796 995 b 996 856 917 944 963 906 l 883 774 b 799 856 865 804 837 831 b 653 892 761 880 712 892 b 476 851 589 892 530 878 b 338 743 423 823 376 788 b 247 590 299 699 269 648 b 215 414 226 533 215 474 b 237 287 215 369 222 326 b 299 185 251 247 272 213 b 400 117 327 156 360 134 b 538 93 440 101 486 93 "},"H":{"ha":999,"x_min":0,"x_max":0,"o":"m 354 983 l 281 571 l 767 571 l 840 983 l 976 983 l 803 0 l 667 0 l 746 451 l 260 451 l 181 0 l 44 0 l 218 983 "},"I":{"ha":376,"x_min":0,"x_max":0,"o":"m 44 0 l 218 983 l 354 983 l 181 0 "},"J":{"ha":682,"x_min":0,"x_max":0,"o":"m 100 215 b 140 130 105 182 118 153 b 231 94 163 106 193 94 b 309 111 262 94 288 100 b 360 157 330 122 347 138 b 392 225 374 176 384 199 b 411 307 400 251 406 278 l 531 983 l 667 983 l 546 300 b 520 190 540 265 532 228 b 468 85 509 152 491 117 b 378 6 445 53 415 27 b 235 -25 341 -15 293 -25 b 133 -10 197 -25 163 -20 b 55 33 103 0 77 15 b 2 98 33 52 16 73 b -24 179 -11 122 -20 150 l 100 215 "},"K":{"ha":863,"x_min":0,"x_max":0,"o":"m 278 544 l 749 983 l 938 983 l 414 524 l 810 0 l 633 0 l 271 508 l 268 508 l 179 0 l 44 0 l 218 983 l 353 983 l 275 544 "},"L":{"ha":710,"x_min":0,"x_max":0,"o":"m 640 121 l 621 0 l 44 0 l 218 983 l 354 983 l 200 121 "},"M":{"ha":1254,"x_min":0,"x_max":0,"o":"m 589 225 l 1019 983 l 1231 983 l 1058 0 l 924 0 l 1069 821 l 1065 821 l 592 0 l 506 0 l 324 821 l 321 821 l 175 0 l 44 0 l 218 983 l 428 983 l 588 225 "},"N":{"ha":1067,"x_min":0,"x_max":0,"o":"m 754 192 l 893 983 l 1029 983 l 856 0 l 686 0 l 325 808 l 322 808 l 179 0 l 44 0 l 218 983 l 392 983 l 751 192 "},"O":{"ha":1154,"x_min":0,"x_max":0,"o":"m 529 -25 b 342 5 461 -25 398 -15 b 199 90 286 25 238 53 b 106 224 159 127 128 172 b 74 400 84 277 74 335 b 117 637 74 484 88 563 b 238 830 147 710 187 775 b 419 960 290 885 350 928 b 646 1008 489 992 564 1008 b 829 978 713 1008 774 998 b 972 893 885 959 932 930 b 1065 760 1012 856 1043 812 b 1097 585 1086 708 1097 650 b 1055 347 1097 500 1083 421 b 936 153 1027 273 987 209 b 756 23 885 98 825 55 b 529 -25 686 -9 611 -25 m 956 572 b 935 697 956 617 949 658 b 874 798 921 735 900 769 b 774 867 847 827 814 850 b 639 892 735 883 690 892 b 465 851 575 892 517 878 b 331 742 412 823 368 787 b 245 589 294 697 265 646 b 215 413 225 531 215 473 b 236 289 215 369 222 328 b 297 187 250 250 270 216 b 395 118 323 158 356 135 b 532 93 434 101 480 93 b 708 133 597 93 655 106 b 841 241 760 160 804 196 b 926 394 878 286 906 337 b 956 572 946 452 956 511 "},"P":{"ha":826,"x_min":0,"x_max":0,"o":"m 499 983 b 734 918 600 983 679 962 b 817 736 789 875 817 814 b 788 601 817 684 807 639 b 708 506 769 562 742 531 b 583 450 673 481 631 462 b 424 432 535 438 482 432 l 256 432 l 179 0 l 44 0 l 218 983 m 431 546 b 613 588 506 546 567 560 b 681 721 658 615 681 660 b 666 791 681 749 676 772 b 625 837 656 810 643 825 b 562 861 607 848 586 856 b 481 868 537 866 510 868 l 333 868 l 275 546 "},"Q":{"ha":1149,"x_min":0,"x_max":0,"o":"m 1083 593 b 1060 420 1083 529 1075 472 b 999 284 1044 369 1024 323 b 914 184 974 245 945 211 b 819 118 882 157 851 135 l 819 114 l 1082 114 l 1061 0 l 529 0 b 349 27 464 0 404 9 b 205 106 293 45 245 72 b 110 235 165 141 133 184 b 75 413 87 287 75 346 b 118 646 75 496 89 574 b 237 835 147 718 186 781 b 415 962 287 888 347 931 b 638 1008 484 993 558 1008 b 818 979 703 1008 763 999 b 959 896 873 960 920 932 b 1051 765 998 860 1029 816 b 1083 593 1072 713 1083 656 m 943 575 b 923 699 943 619 936 661 b 863 800 909 738 890 771 b 767 867 837 829 805 851 b 635 892 729 884 685 892 b 462 852 571 892 513 878 b 329 747 410 826 366 791 b 244 599 292 704 264 654 b 214 429 224 544 214 488 b 235 303 214 383 221 341 b 299 205 250 265 271 232 b 400 141 326 178 360 156 b 535 118 440 126 485 118 b 694 156 591 118 644 131 b 824 256 743 181 787 214 b 911 401 861 297 890 346 b 943 575 932 456 943 514 "},"R":{"ha":850,"x_min":0,"x_max":0,"o":"m 44 0 l 218 983 l 497 983 b 629 967 545 983 589 978 b 731 920 669 957 703 941 b 797 844 759 899 781 874 b 819 739 812 814 819 779 b 799 626 819 696 813 659 b 742 542 785 594 766 566 b 656 485 718 519 689 500 b 546 453 622 470 586 459 l 756 0 l 603 0 l 407 439 l 256 439 l 179 0 m 426 551 b 526 560 462 551 495 554 b 606 588 557 565 584 575 b 660 641 629 602 647 619 b 681 724 674 663 681 690 b 626 835 681 775 662 813 b 476 868 589 857 539 868 l 332 868 l 275 551 "},"S":{"ha":790,"x_min":0,"x_max":0,"o":"m 668 806 b 593 870 650 832 625 854 b 486 894 562 886 526 894 b 415 885 463 894 439 891 b 347 853 390 878 367 868 b 295 799 326 839 309 821 b 275 719 282 776 275 750 b 287 664 275 698 279 680 b 319 622 295 648 306 634 b 369 590 333 610 350 599 b 433 563 389 580 410 571 b 534 519 469 550 503 535 b 616 462 565 503 592 484 b 672 387 640 440 658 415 b 692 289 685 359 692 326 b 666 163 692 244 683 202 b 592 64 649 125 624 92 b 476 -1 560 36 522 14 b 324 -25 431 -17 380 -25 b 230 -15 292 -25 261 -22 b 140 13 199 -9 169 1 b 62 60 112 26 85 41 b 3 128 38 79 19 102 l 117 204 b 201 123 135 172 163 145 b 329 90 238 101 281 90 b 410 102 357 90 384 94 b 481 137 437 110 460 122 b 530 194 501 152 517 171 b 549 274 542 216 549 243 b 533 339 549 299 544 320 b 492 388 523 357 509 374 b 431 424 474 401 454 414 b 357 454 407 435 383 445 b 274 492 328 465 300 478 b 203 542 247 506 223 522 b 154 611 182 561 166 584 b 136 707 142 638 136 670 b 163 831 136 752 145 794 b 239 926 181 869 206 900 b 354 987 271 952 310 972 b 499 1008 399 1001 447 1008 b 659 976 556 1008 609 998 b 774 886 709 955 747 925 l 668 806 "},"T":{"ha":743,"x_min":0,"x_max":0,"o":"m 225 0 l 378 864 l 67 864 l 88 983 l 843 983 l 822 864 l 514 864 l 361 0 "},"U":{"ha":989,"x_min":0,"x_max":0,"o":"m 440 -25 b 288 -1 382 -25 331 -17 b 181 64 245 14 209 36 b 116 160 152 92 130 124 b 94 278 102 197 94 236 b 103 364 94 306 97 334 l 211 983 l 347 983 l 239 372 b 232 299 234 346 232 322 b 243 220 232 271 236 245 b 280 155 250 196 263 174 b 346 110 297 136 319 121 b 444 93 373 99 406 93 b 567 117 493 93 533 101 b 650 180 600 132 628 153 b 702 269 672 206 690 236 b 731 372 715 303 724 337 l 838 983 l 974 983 l 865 364 b 822 219 856 314 841 266 b 741 94 802 172 775 131 b 616 8 707 58 666 29 b 440 -25 566 -14 508 -25 "},"V":{"ha":872,"x_min":0,"x_max":0,"o":"m 365 176 l 842 983 l 990 983 l 392 0 l 263 0 l 106 983 l 250 983 l 361 176 "},"W":{"ha":1364,"x_min":0,"x_max":0,"o":"m 326 197 l 708 983 l 858 983 l 938 197 l 940 197 l 1311 983 l 1456 983 l 978 0 l 836 0 l 751 794 l 749 794 l 356 0 l 213 0 l 117 983 l 260 983 l 324 197 "},"X":{"ha":864,"x_min":0,"x_max":0,"o":"m 775 983 l 943 983 l 524 508 l 764 0 l 607 0 l 424 413 l 74 0 l -103 0 l 361 521 l 144 983 l 299 983 l 461 613 "},"Y":{"ha":778,"x_min":0,"x_max":0,"o":"m 236 0 l 311 425 l 64 983 l 218 983 l 399 536 l 758 983 l 925 983 l 447 425 l 372 0 "},"Z":{"ha":806,"x_min":0,"x_max":0,"o":"m 154 121 l 714 121 l 693 0 l -46 0 l -25 119 l 660 864 l 150 864 l 171 983 l 857 983 l 835 864 "},"[":{"ha":438,"x_min":0,"x_max":0,"o":"m 286 925 l 101 -125 l 231 -125 l 214 -217 l -32 -217 l 186 1017 l 432 1017 l 415 925 "},"\\":{"ha":528,"x_min":0,"x_max":0,"o":"m 103 1031 l 531 -12 l 432 -46 l 6 994 "},"]":{"ha":438,"x_min":0,"x_max":0,"o":"m 142 -125 l 328 925 l 199 925 l 214 1017 l 460 1017 l 242 -217 l -4 -217 l 13 -125 "},"^":{"ha":925,"x_min":0,"x_max":0,"o":"m 508 983 l 822 429 l 696 429 l 461 846 l 229 429 l 103 429 l 417 983 "},"_":{"ha":694,"x_min":0,"x_max":0,"o":"m 601 -104 l 589 -174 l -106 -174 l -93 -104 "},"`":{"ha":347,"x_min":0,"x_max":0,"o":"m 179 983 l 318 783 l 217 783 l 26 983 "},"a":{"ha":746,"x_min":0,"x_max":0,"o":"m 514 411 b 518 442 516 424 517 434 b 519 463 519 449 519 456 b 483 547 519 501 507 529 b 381 572 459 564 425 572 b 275 551 345 572 310 565 b 183 500 240 538 209 520 l 131 586 b 254 652 166 614 207 636 b 399 676 301 668 350 676 b 490 666 430 676 460 673 b 567 633 519 659 545 648 b 622 572 590 617 608 597 b 643 482 636 547 643 517 b 642 449 643 474 643 463 b 638 415 641 436 639 425 l 589 149 b 578 69 584 123 581 96 b 574 0 575 41 574 19 l 456 0 b 458 44 456 14 456 29 b 464 92 459 60 461 76 l 461 92 b 358 11 430 55 395 28 b 228 -14 321 -6 278 -14 b 158 -6 206 -14 182 -11 b 92 23 134 0 112 9 b 43 76 72 36 56 54 b 24 160 30 99 24 126 b 68 290 24 213 38 257 b 183 366 98 322 136 348 b 340 402 229 384 282 396 b 514 411 399 408 456 411 m 479 317 b 367 312 443 317 406 315 b 260 292 328 309 292 302 b 182 250 228 283 202 269 b 151 178 162 231 151 207 b 162 133 151 159 155 144 b 190 104 169 121 178 112 b 228 89 201 97 214 92 b 272 85 243 86 257 85 b 353 99 301 85 328 90 b 418 139 378 109 400 122 b 465 197 437 156 452 175 b 490 268 477 219 486 243 l 500 317 l 479 317 "},"b":{"ha":879,"x_min":0,"x_max":0,"o":"m 165 0 l 42 0 l 226 1050 l 356 1050 l 265 553 l 268 553 b 367 641 292 588 325 617 b 507 676 409 665 456 676 b 625 656 550 676 590 669 b 715 597 660 642 690 622 b 774 508 740 572 760 542 b 794 392 788 473 794 434 b 767 233 794 335 785 282 b 689 103 748 183 722 140 b 570 15 656 66 616 37 b 421 -17 524 -6 475 -17 b 284 16 373 -17 327 -6 b 188 111 241 38 209 69 l 185 111 m 663 379 b 615 515 663 433 647 478 b 479 569 584 551 538 569 b 376 547 442 569 408 562 b 294 484 345 531 317 510 b 238 392 270 458 252 427 b 218 281 225 356 218 319 b 231 203 218 253 222 227 b 269 143 240 180 253 160 b 329 103 286 126 306 113 b 407 89 352 94 378 89 b 513 112 446 89 481 97 b 593 174 544 127 571 148 b 644 265 615 200 632 230 b 663 379 656 300 663 338 "},"c":{"ha":689,"x_min":0,"x_max":0,"o":"m 582 490 b 526 547 571 513 552 531 b 438 569 499 562 470 569 b 333 547 400 569 365 562 b 250 484 301 531 273 510 b 196 392 227 458 209 427 b 176 282 183 358 176 321 b 188 207 176 255 180 230 b 224 147 196 184 208 164 b 283 106 239 129 259 116 b 365 90 306 95 334 90 b 471 113 407 90 442 98 b 546 169 500 127 525 146 l 624 97 b 506 13 588 62 549 34 b 357 -18 463 -8 413 -18 b 228 3 310 -18 267 -11 b 131 61 190 17 157 36 b 68 151 104 86 83 116 b 46 267 53 185 46 224 b 74 423 46 321 55 373 b 155 553 93 472 120 516 b 281 643 190 591 231 621 b 444 676 330 665 384 676 b 516 669 469 676 492 674 b 583 649 540 665 562 658 b 640 615 603 641 622 629 b 682 565 657 601 671 585 l 582 490 "},"d":{"ha":872,"x_min":0,"x_max":0,"o":"m 42 268 b 69 427 42 325 51 378 b 147 557 88 477 114 520 b 266 644 181 594 220 623 b 417 676 312 666 362 676 b 556 643 470 676 517 665 b 646 550 596 621 625 590 l 649 550 l 736 1050 l 865 1050 l 679 0 l 554 0 l 572 106 l 569 106 b 469 17 545 69 512 40 b 329 -17 427 -5 380 -17 b 211 4 286 -17 246 -10 b 121 63 176 18 146 38 b 63 152 96 88 76 117 b 42 268 49 187 42 225 m 175 281 b 222 145 175 227 191 182 b 358 90 254 109 299 90 b 460 113 394 90 428 98 b 544 176 492 128 520 149 b 599 268 567 202 586 233 b 619 379 613 303 619 340 b 606 456 619 407 615 433 b 568 517 597 480 585 500 b 508 556 551 533 531 547 b 431 571 485 566 459 571 b 325 548 392 571 356 563 b 244 486 294 533 267 512 b 193 394 222 460 205 429 b 175 281 181 358 175 320 "},"e":{"ha":785,"x_min":0,"x_max":0,"o":"m 169 290 b 168 278 169 286 168 282 l 168 268 b 183 197 168 242 173 218 b 223 140 192 175 206 156 b 284 102 240 123 260 111 b 360 89 308 93 333 89 b 481 117 407 89 447 98 b 567 189 515 136 544 160 l 643 117 b 510 16 604 72 560 39 b 347 -18 460 -7 406 -18 b 226 1 304 -18 263 -12 b 128 58 188 14 156 33 b 65 150 101 83 80 114 b 42 274 49 186 42 227 b 71 429 42 328 51 380 b 151 558 90 478 117 521 b 274 644 186 594 226 623 b 426 676 321 666 372 676 b 626 608 511 676 577 653 b 700 415 675 562 700 498 b 697 359 700 402 699 384 b 686 290 694 334 691 312 l 169 290 m 576 385 b 578 406 577 391 578 398 b 579 426 579 413 579 420 b 538 533 579 469 565 504 b 417 575 510 561 469 575 b 331 558 385 575 356 569 b 262 515 305 547 282 533 b 212 454 242 498 225 477 b 183 385 198 431 189 408 l 576 385 "},"f":{"ha":429,"x_min":0,"x_max":0,"o":"m 289 554 l 192 0 l 65 0 l 163 554 l 31 554 l 50 658 l 179 658 l 204 797 b 233 897 211 831 220 865 b 284 983 245 930 262 958 b 364 1044 306 1008 332 1028 b 476 1067 395 1059 433 1067 b 556 1057 507 1067 533 1063 l 528 946 b 499 953 519 949 509 951 b 467 956 490 955 479 956 b 410 942 444 956 425 951 b 370 907 394 934 381 922 b 345 856 359 892 351 875 b 331 796 339 836 334 816 l 306 658 l 463 658 l 443 554 "},"g":{"ha":875,"x_min":0,"x_max":0,"o":"m 71 -115 b 167 -192 95 -148 127 -173 b 297 -221 208 -211 251 -221 b 408 -202 341 -221 378 -215 b 485 -151 439 -190 465 -172 b 535 -74 506 -129 523 -103 b 564 22 547 -44 556 -12 l 581 110 l 578 110 b 476 24 551 74 517 45 b 340 -7 436 3 390 -7 b 222 15 297 -7 257 0 b 132 74 187 29 157 49 b 74 164 107 99 88 129 b 54 279 61 199 54 238 b 82 433 54 334 63 385 b 160 560 100 481 126 524 b 278 645 193 596 232 624 b 428 676 323 666 373 676 b 568 643 481 676 528 665 b 654 551 608 621 637 590 l 658 551 l 676 658 l 801 658 l 692 32 b 655 -105 683 -15 671 -61 b 585 -222 639 -149 616 -188 b 470 -303 555 -255 517 -282 b 296 -333 423 -323 365 -333 b 122 -301 237 -333 178 -322 b -15 -208 65 -279 19 -248 l 71 -115 m 186 289 b 199 215 186 262 190 237 b 235 154 207 192 219 172 b 293 113 250 137 270 123 b 372 99 316 103 343 99 b 475 122 409 99 444 106 b 557 183 506 137 534 157 b 611 272 580 208 598 238 b 631 381 624 306 631 343 b 580 517 631 435 614 481 b 442 571 546 553 500 571 b 338 549 404 571 369 564 b 257 490 306 535 279 515 b 205 401 235 465 217 436 b 186 289 192 367 186 330 "},"h":{"ha":807,"x_min":0,"x_max":0,"o":"m 482 676 b 646 619 554 676 609 657 b 701 474 683 580 701 532 b 696 407 701 450 700 428 l 624 0 l 494 0 l 558 364 b 567 438 564 389 567 413 b 539 531 567 475 557 506 b 439 567 520 555 487 567 b 303 508 386 567 341 547 b 229 349 266 468 241 415 l 168 0 l 39 0 l 224 1050 l 353 1050 l 267 558 l 269 558 b 356 642 291 592 320 620 b 482 676 393 665 435 676 "},"i":{"ha":360,"x_min":0,"x_max":0,"o":"m 40 0 l 156 658 l 285 658 l 168 0 m 340 899 b 317 839 340 875 332 856 b 258 814 301 822 281 814 b 201 835 236 814 217 821 b 176 893 184 849 176 868 b 202 955 176 918 185 939 b 261 979 219 971 239 979 b 317 957 283 979 302 972 b 340 899 333 942 340 923 "},"j":{"ha":360,"x_min":0,"x_max":0,"o":"m -137 -215 b -86 -222 -121 -220 -104 -222 b -37 -211 -67 -222 -50 -219 b -6 -181 -25 -204 -14 -194 b 14 -137 3 -169 9 -154 b 26 -82 19 -120 23 -101 l 157 658 l 286 658 l 154 -86 b 131 -180 149 -119 141 -150 b 90 -259 122 -210 108 -236 b 19 -313 72 -282 48 -300 b -87 -333 -9 -327 -45 -333 b -127 -331 -100 -333 -113 -332 b -164 -325 -141 -329 -154 -327 l -137 -215 m 340 899 b 317 839 340 875 332 856 b 258 814 301 822 281 814 b 201 835 236 814 217 821 b 176 893 184 849 176 868 b 202 955 176 918 185 939 b 261 979 219 971 239 979 b 317 957 283 979 302 972 b 340 899 333 942 340 923 "},"k":{"ha":700,"x_min":0,"x_max":0,"o":"m 239 371 l 556 658 l 726 658 l 371 353 l 642 0 l 479 0 l 233 342 l 229 342 l 169 0 l 40 0 l 225 1050 l 354 1050 l 235 371 "},"l":{"ha":361,"x_min":0,"x_max":0,"o":"m 40 0 l 225 1050 l 356 1050 l 169 0 "},"m":{"ha":1228,"x_min":0,"x_max":0,"o":"m 900 676 b 1067 619 974 676 1030 657 b 1124 474 1105 580 1124 532 b 1122 441 1124 463 1123 452 b 1117 407 1120 430 1119 419 l 1044 0 l 917 0 l 981 364 b 985 401 982 377 984 389 b 988 438 987 413 988 425 b 960 531 988 475 978 507 b 861 568 941 556 908 568 b 781 549 831 568 804 562 b 724 500 759 537 739 520 b 685 432 708 480 695 457 b 664 356 676 407 669 381 l 601 0 l 472 0 l 542 390 b 547 422 544 401 545 412 b 549 451 548 432 549 442 b 522 536 549 487 540 515 b 433 568 505 557 475 568 b 364 552 409 568 386 563 b 303 508 342 541 322 527 b 257 439 285 489 270 466 b 229 350 244 412 235 382 l 168 0 l 39 0 l 129 515 b 141 583 133 533 137 556 b 150 658 145 611 148 636 l 272 658 b 265 606 270 645 268 628 b 258 551 263 583 260 565 l 261 551 b 349 640 284 587 314 616 b 476 676 385 664 427 676 b 598 644 522 676 562 666 b 667 542 634 622 656 588 b 766 641 694 584 727 617 b 900 676 805 665 850 676 "},"n":{"ha":807,"x_min":0,"x_max":0,"o":"m 272 658 b 266 606 270 645 268 628 b 258 551 264 584 261 566 l 261 551 b 353 642 285 589 316 620 b 481 676 391 665 433 676 b 645 619 553 676 608 657 b 701 474 683 580 701 532 b 696 407 701 450 700 428 l 624 0 l 494 0 l 558 364 b 567 438 564 389 567 413 b 539 531 567 475 557 506 b 439 567 520 555 487 567 b 304 508 387 567 342 547 b 229 350 266 468 241 416 l 168 0 l 39 0 l 129 515 b 141 583 133 533 137 556 b 150 658 145 611 148 636 l 272 658 "},"o":{"ha":833,"x_min":0,"x_max":0,"o":"m 354 -18 b 229 3 309 -18 267 -11 b 131 62 191 17 158 36 b 65 153 103 87 81 118 b 42 269 50 188 42 227 b 70 425 42 324 51 376 b 151 555 89 474 116 517 b 276 644 185 592 227 622 b 438 676 324 666 378 676 b 563 656 483 676 525 669 b 661 597 600 642 633 622 b 726 508 689 572 710 542 b 749 392 741 473 749 434 b 720 234 749 336 739 284 b 640 103 701 184 674 141 b 515 15 605 66 563 36 b 354 -18 467 -7 413 -18 m 618 379 b 605 454 618 406 614 431 b 567 515 596 477 584 497 b 508 555 551 532 531 545 b 429 569 484 565 458 569 b 325 546 391 569 356 562 b 244 483 294 530 266 509 b 191 391 221 456 203 426 b 172 281 178 356 172 319 b 222 144 172 225 189 179 b 361 90 256 108 302 90 b 465 113 399 90 434 98 b 547 176 497 128 524 149 b 599 268 569 202 587 233 b 618 379 612 303 618 340 "},"p":{"ha":878,"x_min":0,"x_max":0,"o":"m 265 553 b 365 640 289 588 323 617 b 506 675 408 663 455 675 b 624 654 549 675 588 668 b 714 596 659 640 689 621 b 772 506 739 571 758 541 b 793 390 786 472 793 433 b 765 231 793 334 784 281 b 686 101 746 182 719 138 b 567 14 653 64 613 35 b 418 -18 522 -7 472 -18 b 278 15 364 -18 318 -7 b 189 107 239 38 209 68 l 186 107 l 110 -333 l -19 -333 l 156 658 l 281 658 l 263 553 l 265 553 m 660 378 b 613 513 660 431 644 477 b 476 568 581 550 536 568 b 374 545 440 568 406 560 b 291 483 342 530 315 509 b 235 390 267 456 249 425 b 215 279 222 355 215 318 b 228 202 215 251 220 226 b 267 142 237 178 250 158 b 327 102 283 125 303 112 b 406 88 351 92 377 88 b 510 110 444 88 478 95 b 590 172 541 126 568 146 b 642 264 613 198 630 229 b 660 378 654 299 660 337 "},"q":{"ha":869,"x_min":0,"x_max":0,"o":"m 42 268 b 69 427 42 325 51 378 b 147 557 88 477 114 520 b 266 644 181 594 220 623 b 417 676 312 666 362 676 b 553 643 465 676 510 665 b 649 547 595 621 627 589 l 651 547 l 671 658 l 796 658 l 621 -333 l 492 -333 l 572 106 l 569 106 b 469 17 545 69 512 40 b 329 -17 427 -5 380 -17 b 211 4 286 -17 246 -10 b 121 63 176 18 146 38 b 63 152 96 88 76 117 b 42 268 49 187 42 225 m 175 281 b 222 145 175 227 191 182 b 358 90 254 109 299 90 b 460 113 394 90 428 98 b 544 176 492 128 520 149 b 599 268 567 202 586 233 b 619 379 613 303 619 340 b 606 456 619 407 615 433 b 568 517 597 480 585 500 b 508 556 551 533 531 547 b 431 571 485 566 459 571 b 325 548 392 571 356 563 b 244 486 294 533 267 512 b 193 394 222 460 205 429 b 175 281 181 358 175 320 "},"r":{"ha":476,"x_min":0,"x_max":0,"o":"m 128 515 b 140 583 131 533 135 556 b 149 658 144 611 147 636 l 271 658 b 268 634 270 652 269 644 b 265 603 267 624 266 614 b 260 573 263 593 262 583 b 257 547 259 563 258 555 l 260 547 b 347 641 283 586 312 617 b 465 676 381 665 421 676 b 517 671 486 676 503 675 l 494 550 b 438 557 476 555 457 557 b 354 540 406 557 378 551 b 292 493 330 528 309 513 b 249 426 274 474 260 451 b 226 346 239 400 231 374 l 165 0 l 38 0 l 128 515 l 128 515 "},"s":{"ha":617,"x_min":0,"x_max":0,"o":"m 482 500 b 429 553 469 521 451 539 b 343 574 407 567 378 574 b 296 569 327 574 312 572 b 252 553 280 566 266 560 b 219 525 239 547 228 537 b 207 482 211 513 207 499 b 238 422 207 454 217 434 b 325 389 258 410 287 399 b 470 317 388 370 436 347 b 521 193 504 288 521 247 b 497 99 521 157 513 125 b 435 32 481 72 461 50 b 349 -8 410 14 381 1 b 250 -21 316 -16 283 -21 b 87 14 187 -21 133 -9 b -19 108 41 37 6 69 l 85 176 b 151 111 100 150 122 128 b 250 86 180 94 213 86 b 351 110 289 86 323 94 b 394 183 380 127 394 151 b 360 249 394 212 383 234 b 258 293 338 263 304 278 b 188 319 232 301 209 310 b 132 354 166 329 148 340 b 95 403 116 368 104 384 b 82 471 86 421 82 444 b 104 558 82 503 89 532 b 164 622 119 583 139 605 b 251 663 189 640 218 653 b 353 676 284 672 318 676 b 490 647 404 676 450 667 b 582 565 531 628 562 600 l 482 500 "},"t":{"ha":450,"x_min":0,"x_max":0,"o":"m 275 553 l 213 207 b 208 165 210 191 208 177 b 230 109 208 138 216 119 b 288 94 244 99 263 94 b 326 99 300 94 313 96 b 358 110 339 101 350 105 l 349 7 b 301 -6 336 1 320 -3 b 244 -11 282 -9 263 -11 b 123 23 194 -11 153 0 b 78 131 93 46 78 81 b 79 163 78 141 78 151 b 83 196 80 174 81 185 l 147 553 l 22 553 l 42 658 l 165 658 l 197 847 l 325 847 l 292 658 l 457 658 l 438 553 "},"u":{"ha":807,"x_min":0,"x_max":0,"o":"m 489 0 b 496 52 491 13 493 30 b 503 107 499 74 501 92 l 500 107 b 408 16 476 69 445 39 b 281 -18 370 -7 328 -18 b 116 40 208 -18 153 1 b 60 186 78 78 60 127 b 62 218 60 196 60 207 b 67 251 63 229 65 240 l 139 658 l 267 658 l 203 296 b 198 258 201 283 199 270 b 196 221 197 245 196 233 b 224 128 196 183 205 152 b 322 92 242 104 275 92 b 458 151 374 92 419 111 b 532 308 496 190 521 243 l 594 658 l 722 658 l 632 143 b 620 75 628 125 624 103 b 611 0 616 47 613 22 l 489 0 "},"v":{"ha":681,"x_min":0,"x_max":0,"o":"m 178 0 l 44 658 l 178 658 l 269 139 l 272 139 l 572 658 l 710 658 l 315 0 "},"w":{"ha":1054,"x_min":0,"x_max":0,"o":"m 236 156 l 239 156 l 496 658 l 625 658 l 690 156 l 694 156 l 944 658 l 1081 658 l 733 0 l 600 0 l 533 499 l 531 499 l 271 0 l 138 0 l 56 658 l 190 658 "},"x":{"ha":679,"x_min":0,"x_max":0,"o":"m 307 257 l 71 0 l -92 0 l 247 349 l 76 658 l 217 658 l 333 426 l 544 658 l 701 658 l 394 339 l 585 0 l 438 0 "},"y":{"ha":688,"x_min":0,"x_max":0,"o":"m 290 140 l 582 658 l 721 658 l 239 -156 b 190 -230 222 -183 206 -208 b 139 -285 175 -252 157 -270 b 78 -321 120 -301 100 -312 b 3 -333 56 -329 31 -333 b -79 -324 -26 -333 -53 -330 l -61 -210 b 0 -221 -41 -217 -20 -221 b 74 -192 30 -221 54 -211 b 135 -111 93 -173 113 -146 l 200 0 l 56 658 l 193 658 l 288 140 "},"z":{"ha":640,"x_min":0,"x_max":0,"o":"m 151 108 l 539 108 l 521 0 l -29 0 l -11 106 l 443 553 l 90 553 l 110 658 l 625 658 l 607 553 "},"{":{"ha":438,"x_min":0,"x_max":0,"o":"m 17 451 b 94 481 44 451 70 461 b 140 576 117 500 133 532 l 188 838 b 215 919 193 869 202 896 b 261 975 228 941 244 960 b 319 1007 279 990 298 1000 b 382 1017 340 1013 361 1017 l 476 1017 l 460 921 l 389 921 b 350 912 373 921 360 918 b 324 888 340 906 331 898 b 308 856 317 878 312 868 b 300 821 305 845 302 833 l 256 567 b 227 490 250 536 241 511 b 183 441 214 470 199 453 b 135 413 168 428 152 419 b 97 401 119 406 106 402 l 97 399 b 127 391 106 398 116 395 b 160 371 139 387 150 380 b 188 333 171 362 180 349 b 200 274 196 318 200 298 b 196 229 200 261 199 246 l 153 -21 b 149 -62 150 -35 149 -49 b 161 -103 149 -78 153 -92 b 206 -121 169 -115 184 -121 l 276 -121 l 260 -217 l 165 -217 b 68 -185 127 -217 95 -206 b 28 -79 41 -163 28 -128 b 32 -37 28 -67 29 -53 l 78 218 b 82 257 81 232 82 245 b 58 327 82 289 74 313 b -3 349 41 341 21 349 l 17 451 "},"|":{"ha":308,"x_min":0,"x_max":0,"o":"m 211 -347 l 97 -347 l 97 1042 l 211 1042 "},"}":{"ha":438,"x_min":0,"x_max":0,"o":"m 424 349 b 347 319 396 349 370 339 b 300 224 323 300 307 268 l 253 -37 b 225 -119 247 -70 238 -97 b 179 -175 212 -142 197 -160 b 122 -207 162 -190 142 -200 b 58 -217 101 -213 80 -217 l -36 -217 l -19 -121 l 51 -121 b 90 -112 66 -121 79 -118 b 116 -88 100 -106 109 -98 b 132 -56 123 -78 128 -68 b 140 -21 136 -45 138 -33 l 185 233 b 213 310 190 264 200 289 b 257 359 227 330 241 347 b 304 387 273 372 288 381 b 343 399 320 393 333 397 l 343 401 b 313 409 335 402 325 405 b 280 429 302 413 291 420 b 252 467 269 438 260 451 b 240 526 244 482 240 502 b 244 571 240 539 242 554 l 288 821 b 292 863 290 835 292 849 b 279 903 292 878 288 892 b 235 921 271 915 256 921 l 164 921 l 181 1017 l 275 1017 b 372 984 313 1017 345 1006 b 413 879 399 962 413 927 b 408 838 413 866 411 852 l 363 582 b 358 543 360 568 358 555 b 383 473 358 511 366 487 b 443 451 399 459 419 451 l 424 349 "},"~":{"ha":925,"x_min":0,"x_max":0,"o":"m 472 481 b 518 453 490 469 505 460 b 553 436 531 445 543 440 b 581 428 563 432 572 430 b 610 426 590 427 600 426 b 731 521 656 426 696 458 l 813 444 b 763 378 796 418 779 395 b 712 336 746 360 729 346 b 661 315 695 326 678 319 b 613 310 644 312 628 310 b 536 321 586 310 560 313 b 451 363 512 328 484 342 b 406 390 434 374 419 383 b 372 406 394 397 382 402 b 344 413 362 409 353 412 b 315 415 335 415 325 415 b 194 321 269 415 229 384 l 113 397 b 213 506 145 451 178 487 b 313 533 248 524 281 533 b 390 522 340 533 366 530 b 472 481 413 515 441 501 "}," ":{"ha":347,"x_min":0,"x_max":0,"o":""},"¡":{"ha":399,"x_min":0,"x_max":0,"o":"m 257 389 l 135 -307 l 3 -307 l 125 389 m 131 592 b 156 656 131 617 139 638 b 219 683 173 674 194 683 b 281 660 244 683 264 676 b 307 597 298 645 307 624 b 280 531 307 570 298 548 b 217 506 262 514 241 506 b 156 528 193 506 172 513 b 131 592 139 544 131 565 "},"¢":{"ha":826,"x_min":0,"x_max":0,"o":"m 342 -12 b 163 80 267 0 207 30 b 97 267 119 129 97 192 b 123 416 97 319 106 368 b 197 542 140 464 165 506 b 312 633 228 579 267 609 b 463 675 357 656 407 670 l 478 763 l 549 763 l 533 674 b 650 642 575 670 614 659 b 735 565 686 624 714 599 l 635 490 b 588 541 625 510 609 527 b 515 568 566 555 542 564 l 431 90 b 527 115 469 92 501 100 b 599 169 553 130 577 148 l 675 97 b 559 15 641 63 602 35 b 411 -18 516 -6 467 -17 l 396 -108 l 325 -108 l 342 -12 m 444 567 b 356 534 412 562 383 551 b 288 469 330 517 307 495 b 244 382 269 444 254 414 b 228 282 233 350 228 316 b 260 163 228 238 238 198 b 361 96 281 127 315 105 l 444 567 "},"£":{"ha":826,"x_min":0,"x_max":0,"o":"m 364 453 l 304 114 l 671 114 l 650 0 l 13 0 l 33 114 l 172 114 l 231 453 l 96 453 l 114 551 l 246 551 l 268 674 b 299 784 275 708 285 745 b 360 893 314 823 334 860 b 461 976 387 926 420 954 b 611 1008 502 997 552 1008 b 735 988 656 1008 698 1001 b 826 928 772 974 802 954 l 746 836 b 688 881 731 855 712 870 b 606 899 663 893 636 899 b 512 874 568 899 536 891 b 452 815 487 858 467 838 b 417 739 437 791 425 766 b 399 665 408 712 402 687 l 379 551 l 613 551 l 594 453 "},"€":{"ha":826,"x_min":0,"x_max":0,"o":"m 797 853 b 722 883 776 867 751 877 b 632 893 694 890 663 893 b 531 876 597 893 563 887 b 444 828 499 864 470 848 b 372 755 417 807 394 783 b 318 664 351 727 333 696 l 718 664 l 669 565 l 282 565 b 272 531 278 555 275 544 b 263 490 268 518 266 504 b 258 450 261 476 259 463 b 256 417 256 437 256 426 l 607 417 l 560 318 l 254 318 b 274 226 255 285 262 254 b 327 153 287 197 304 173 b 409 106 350 134 377 118 b 515 89 441 95 476 89 b 609 101 549 89 580 93 b 699 142 638 110 668 123 l 728 38 b 625 -8 697 18 663 3 b 497 -25 587 -19 544 -25 b 338 3 436 -25 383 -16 b 223 79 292 22 254 48 b 152 188 192 111 168 147 b 125 318 136 229 127 273 l 10 318 l 60 417 l 125 417 b 133 481 126 432 129 454 b 153 565 138 509 144 537 l 56 565 l 107 664 l 183 664 b 256 799 202 712 226 757 b 361 909 286 841 321 878 b 492 982 401 940 445 964 b 646 1008 540 1000 591 1008 b 763 996 688 1008 726 1004 b 851 963 799 988 828 976 l 797 853 l 797 853 "},"¥":{"ha":826,"x_min":0,"x_max":0,"o":"m 351 444 l 115 444 l 131 535 l 339 535 l 131 983 l 275 983 l 442 575 l 743 983 l 894 983 l 536 535 l 733 535 l 718 444 l 479 444 l 456 317 l 694 317 l 679 226 l 442 226 l 401 0 l 275 0 l 315 226 l 78 226 l 92 317 l 329 317 "},"Š":{"ha":790,"x_min":0,"x_max":0,"o":"m 668 806 b 593 870 650 832 625 854 b 486 894 562 886 526 894 b 415 885 463 894 439 891 b 347 853 390 878 367 868 b 295 799 326 839 309 821 b 275 719 282 776 275 750 b 287 664 275 698 279 680 b 319 622 295 648 306 634 b 369 590 333 610 350 599 b 433 563 389 580 410 571 b 534 519 469 550 503 535 b 616 462 565 503 592 484 b 672 387 640 440 658 415 b 692 289 685 359 692 326 b 666 163 692 244 683 202 b 592 64 649 125 624 92 b 476 -1 560 36 522 14 b 324 -25 431 -17 380 -25 b 230 -15 292 -25 261 -22 b 140 13 199 -9 169 1 b 62 60 112 26 85 41 b 3 128 38 79 19 102 l 117 204 b 201 123 135 172 163 145 b 329 90 238 101 281 90 b 410 102 357 90 384 94 b 481 137 437 110 460 122 b 530 194 501 152 517 171 b 549 274 542 216 549 243 b 533 339 549 299 544 320 b 492 388 523 357 509 374 b 431 424 474 401 454 414 b 357 454 407 435 383 445 b 274 492 328 465 300 478 b 203 542 247 506 223 522 b 154 611 182 561 166 584 b 136 707 142 638 136 670 b 163 831 136 752 145 794 b 239 926 181 869 206 900 b 354 987 271 952 310 972 b 499 1008 399 1001 447 1008 b 659 976 556 1008 609 998 b 774 886 709 955 747 925 l 668 806 m 425 1061 l 306 1261 l 426 1261 l 507 1124 l 638 1261 l 763 1261 l 572 1061 "},"§":{"ha":810,"x_min":0,"x_max":0,"o":"m 664 817 b 597 876 646 844 624 863 b 510 896 570 889 541 896 b 395 862 463 896 425 884 b 350 767 365 839 350 807 b 358 722 350 750 353 735 b 385 688 364 709 373 698 b 431 658 397 677 412 668 b 497 628 449 649 471 639 b 581 587 529 615 557 601 b 644 540 606 572 627 557 b 683 481 661 522 674 503 b 696 407 691 459 696 435 b 651 272 696 350 681 306 b 539 197 621 239 583 214 b 585 137 558 180 574 159 b 603 64 597 114 603 90 b 578 -49 603 21 595 -16 b 513 -130 562 -81 540 -108 b 417 -179 485 -152 453 -168 b 303 -196 381 -190 343 -196 b 216 -185 274 -196 245 -192 b 133 -156 187 -178 159 -169 b 64 -109 107 -143 84 -127 b 17 -47 44 -91 28 -70 l 126 22 b 201 -57 142 -13 167 -39 b 301 -83 236 -75 269 -83 b 363 -76 323 -83 343 -81 b 416 -54 383 -72 401 -64 b 452 -15 431 -44 443 -31 b 465 43 461 2 465 21 b 456 90 465 61 462 76 b 428 128 450 104 441 117 b 377 162 415 140 398 151 b 303 194 356 172 331 183 b 162 278 242 219 195 246 b 113 407 129 309 113 352 b 160 539 113 458 128 502 b 283 617 191 576 232 602 b 235 672 264 630 248 648 b 215 751 222 695 215 722 b 239 857 215 790 223 825 b 303 937 255 888 276 915 b 399 987 331 959 363 975 b 514 1004 435 998 473 1004 b 665 975 570 1004 621 994 b 765 893 710 956 743 928 l 664 817 m 571 385 b 563 430 571 401 568 416 b 540 465 557 443 549 455 b 507 492 530 475 519 484 b 468 513 495 499 482 506 l 368 560 b 321 545 352 557 337 552 b 279 518 305 538 291 529 b 250 478 267 507 257 494 b 239 428 243 463 239 446 b 269 351 239 394 249 368 b 349 303 290 334 316 318 l 458 256 b 538 300 489 263 515 278 b 571 385 560 322 571 350 "},"š":{"ha":617,"x_min":0,"x_max":0,"o":"m 482 500 b 429 553 469 521 451 539 b 343 574 407 567 378 574 b 296 569 327 574 312 572 b 252 553 280 566 266 560 b 219 525 239 547 228 537 b 207 482 211 513 207 499 b 238 422 207 454 217 434 b 325 389 258 410 287 399 b 470 317 388 370 436 347 b 521 193 504 288 521 247 b 497 99 521 157 513 125 b 435 32 481 72 461 50 b 349 -8 410 14 381 1 b 250 -21 316 -16 283 -21 b 87 14 187 -21 133 -9 b -19 108 41 37 6 69 l 85 176 b 151 111 100 150 122 128 b 250 86 180 94 213 86 b 351 110 289 86 323 94 b 394 183 380 127 394 151 b 360 249 394 212 383 234 b 258 293 338 263 304 278 b 188 319 232 301 209 310 b 132 354 166 329 148 340 b 95 403 116 368 104 384 b 82 471 86 421 82 444 b 104 558 82 503 89 532 b 164 622 119 583 139 605 b 251 663 189 640 218 653 b 353 676 284 672 318 676 b 490 647 404 676 450 667 b 582 565 531 628 562 600 l 482 500 m 296 783 l 176 983 l 297 983 l 378 846 l 508 983 l 633 983 l 443 783 "},"©":{"ha":1111,"x_min":0,"x_max":0,"o":"m 28 490 b 69 695 28 563 42 632 b 183 861 97 759 135 814 b 351 973 230 908 286 946 b 557 1014 415 1000 484 1014 b 761 973 629 1014 697 1000 b 928 861 825 946 881 908 b 1042 695 976 814 1014 759 b 1083 490 1069 632 1083 563 b 1042 287 1083 418 1069 350 b 928 121 1014 223 976 168 b 761 10 881 74 825 37 b 557 -31 697 -17 629 -31 b 351 10 484 -31 415 -17 b 183 121 286 37 230 74 b 69 287 135 168 97 223 b 28 490 42 350 28 418 m 111 490 b 147 318 111 429 123 372 b 242 177 170 264 202 217 b 384 82 283 137 330 105 b 557 47 438 59 496 47 b 729 82 618 47 675 59 b 870 177 783 105 830 137 b 965 318 910 217 942 264 b 1000 490 988 372 1000 429 b 965 663 1000 551 988 609 b 870 805 942 717 910 765 b 729 901 830 845 783 877 b 557 936 675 924 618 936 b 384 901 496 936 438 924 b 242 805 330 877 283 845 b 147 663 202 765 170 717 b 111 490 123 609 111 551 m 715 657 b 653 703 700 678 679 694 b 579 718 628 713 603 718 b 495 701 549 718 521 713 b 430 656 470 690 448 675 b 388 586 412 636 398 613 b 372 500 377 559 372 531 b 427 340 372 434 391 381 b 575 279 464 300 513 279 b 660 298 607 279 636 285 b 721 349 685 310 705 327 l 806 289 b 708 211 779 256 746 230 b 574 183 669 193 625 183 b 445 206 527 183 484 191 b 344 271 406 222 372 243 b 278 371 316 299 294 332 b 254 500 262 410 254 453 b 279 630 254 548 263 591 b 348 728 296 668 319 701 b 451 790 377 755 411 775 b 579 813 490 805 533 813 b 639 807 599 813 619 811 b 699 790 659 803 679 798 b 753 762 718 783 736 773 b 796 721 769 750 784 737 l 715 657 "},"ª":{"ha":528,"x_min":0,"x_max":0,"o":"m 490 885 b 489 863 490 877 490 870 b 486 842 488 855 487 848 l 458 689 b 453 640 456 673 454 657 b 451 599 452 624 451 610 l 374 599 b 379 653 374 616 375 634 l 376 653 b 322 606 362 633 344 618 b 246 589 301 595 275 589 b 154 616 212 589 181 598 b 114 697 127 634 114 661 b 136 772 114 728 121 753 b 197 818 151 792 171 807 b 289 841 223 829 254 837 b 401 847 324 845 362 847 b 403 859 401 851 402 855 b 404 871 404 863 404 867 b 385 916 404 892 398 907 b 329 929 372 925 353 929 b 271 917 311 929 291 925 b 217 886 250 909 232 899 l 179 946 b 260 989 204 965 231 980 b 342 1003 290 998 317 1003 b 450 972 387 1003 423 992 b 490 885 477 951 490 922 m 382 783 b 321 781 363 783 342 782 b 263 770 300 779 280 775 b 220 748 246 765 232 758 b 203 710 209 738 203 725 b 224 669 203 689 210 676 b 269 658 239 662 254 658 b 348 688 302 658 328 668 b 388 758 368 707 381 731 l 393 783 l 382 783 "},"«":{"ha":704,"x_min":0,"x_max":0,"o":"m 199 35 l 46 339 l 301 639 l 378 576 l 172 331 l 290 90 m 478 35 l 325 339 l 581 639 l 656 576 l 450 331 l 568 90 "},"¬":{"ha":925,"x_min":0,"x_max":0,"o":"m 715 193 l 715 479 l 97 479 l 97 592 l 828 592 l 828 193 "},"­":{"ha":444,"x_min":0,"x_max":0,"o":"m 36 285 l 56 394 l 378 394 l 358 285 "},"®":{"ha":833,"x_min":0,"x_max":0,"o":"m 488 710 b 523 722 500 710 512 714 b 539 756 534 731 539 742 b 521 788 539 770 533 781 b 488 797 509 794 498 797 l 422 797 l 422 710 l 488 710 m 472 649 l 422 649 l 422 511 l 338 511 l 338 867 l 490 867 b 539 861 507 867 523 865 b 582 843 555 857 569 851 b 613 809 595 835 605 823 b 625 756 621 795 625 777 b 605 696 625 731 618 712 b 554 661 591 680 575 669 l 649 511 l 549 511 m 156 685 b 181 808 156 728 164 769 b 249 908 197 846 220 879 b 349 975 277 936 311 958 b 472 1000 388 992 429 1000 b 595 975 516 1000 557 992 b 696 908 634 958 667 936 b 764 808 725 879 747 846 b 789 685 781 769 789 728 b 764 563 789 641 781 600 b 696 463 747 525 725 491 b 595 397 667 435 634 413 b 472 372 557 380 516 372 b 349 397 429 372 388 380 b 249 463 311 413 277 435 b 181 563 220 491 197 525 b 156 685 164 600 156 641 m 206 685 b 226 582 206 649 213 614 b 283 497 240 550 259 521 b 368 439 307 472 336 453 b 472 418 400 425 435 418 b 576 439 509 418 544 425 b 661 497 609 453 637 472 b 718 582 685 521 704 550 b 739 685 732 614 739 649 b 718 789 739 722 732 756 b 661 874 704 821 685 850 b 576 931 637 898 609 917 b 472 951 544 944 509 951 b 368 931 435 951 400 944 b 283 874 336 917 307 898 b 226 789 259 850 240 821 b 206 685 213 756 206 722 "},"¯":{"ha":347,"x_min":0,"x_max":0,"o":"m 40 829 l 56 921 l 465 921 l 449 829 "},"°":{"ha":556,"x_min":0,"x_max":0,"o":"m 549 785 b 532 700 549 754 543 726 b 486 633 521 674 506 652 b 418 588 467 614 444 599 b 333 571 392 576 364 571 b 249 588 303 571 275 576 b 181 633 223 599 200 614 b 135 700 161 652 146 674 b 118 785 124 726 118 754 b 135 869 118 815 124 844 b 181 938 146 895 161 918 b 249 983 200 957 223 972 b 333 1000 275 994 303 1000 b 418 983 364 1000 392 994 b 486 938 444 972 467 957 b 532 869 506 918 521 895 b 549 785 543 844 549 815 m 460 785 b 450 835 460 802 456 819 b 423 876 444 850 434 864 b 383 903 411 887 398 896 b 333 913 367 909 351 913 b 284 903 316 913 299 909 b 244 876 269 896 255 887 b 217 835 232 864 223 850 b 207 785 210 819 207 802 b 244 695 207 750 219 720 b 333 658 268 671 298 658 b 423 695 369 658 398 671 b 460 785 447 720 460 750 "},"±":{"ha":925,"x_min":0,"x_max":0,"o":"m 407 582 l 407 790 l 519 790 l 519 582 l 828 582 l 828 469 l 519 469 l 519 265 l 407 265 l 407 469 l 97 469 l 97 582 m 828 168 l 828 56 l 97 56 l 97 168 "},"²":{"ha":535,"x_min":0,"x_max":0,"o":"m 460 397 l 71 397 l 88 493 l 346 707 b 412 776 376 733 398 756 b 432 836 425 796 432 816 b 409 891 432 860 424 878 b 346 910 394 903 373 910 b 281 885 319 910 297 902 b 242 819 264 869 251 847 l 149 846 b 229 958 166 895 193 932 b 351 996 265 983 306 996 b 482 954 407 996 450 982 b 529 842 513 926 529 889 b 521 782 529 819 526 800 b 496 732 515 764 507 748 b 453 685 485 716 471 701 b 394 635 436 670 417 653 l 214 490 l 478 490 "},"³":{"ha":535,"x_min":0,"x_max":0,"o":"m 274 747 b 404 846 361 747 404 780 b 383 897 404 868 397 885 b 329 914 368 908 350 914 b 269 899 305 914 285 909 b 226 847 254 888 239 871 l 149 894 b 229 976 170 931 197 959 b 338 1001 262 993 298 1001 b 460 958 389 1001 430 987 b 504 849 489 928 504 892 b 469 753 504 809 493 777 b 389 706 446 729 419 713 b 456 660 417 697 439 682 b 481 585 472 638 481 613 b 464 500 481 552 475 524 b 419 439 453 476 438 456 b 351 401 400 422 377 410 b 268 389 325 393 298 389 b 143 424 218 389 176 401 b 72 521 110 448 86 480 l 171 551 b 208 497 178 526 191 508 b 269 479 225 485 245 479 b 350 506 305 479 331 488 b 378 575 369 523 378 546 b 342 644 378 607 366 631 b 258 665 319 658 291 665 l 228 665 l 243 747 l 274 747 l 274 747 "},"Ž":{"ha":806,"x_min":0,"x_max":0,"o":"m 154 121 l 714 121 l 693 0 l -46 0 l -25 119 l 660 864 l 150 864 l 171 983 l 857 983 l 835 864 m 444 1061 l 325 1261 l 446 1261 l 526 1124 l 657 1261 l 782 1261 l 592 1061 "},"µ":{"ha":803,"x_min":0,"x_max":0,"o":"m 504 0 b 512 56 506 17 509 35 b 521 108 515 77 518 94 l 518 108 b 474 59 506 91 491 74 b 415 19 456 44 437 30 b 348 -8 394 7 372 -2 b 276 -18 324 -15 300 -18 b 213 -7 253 -18 232 -14 b 169 24 193 0 179 11 l 93 -333 l -37 -333 l 174 658 l 304 658 l 228 294 b 220 251 224 280 222 265 b 218 211 219 238 218 224 b 243 125 218 176 226 147 b 335 92 260 103 290 92 b 475 151 388 92 434 111 b 557 308 516 190 543 243 l 631 658 l 761 658 l 651 142 b 645 111 650 133 647 123 b 638 74 643 99 641 87 b 632 35 636 61 634 48 b 628 0 630 23 629 11 l 504 0 "},"¶":{"ha":833,"x_min":0,"x_max":0,"o":"m 513 -175 l 701 896 l 540 896 l 351 -175 l 243 -175 l 354 454 b 249 470 315 454 280 459 b 169 514 217 481 191 495 b 119 581 147 532 130 555 b 101 665 107 606 101 635 b 122 778 101 702 108 740 b 188 881 136 816 158 850 b 303 955 217 911 256 936 b 474 983 350 974 407 983 l 825 983 l 621 -175 "},"·":{"ha":361,"x_min":0,"x_max":0,"o":"m 274 425 b 248 361 274 401 265 380 b 185 333 231 343 210 333 b 123 356 161 333 140 341 b 97 419 106 372 97 393 b 125 485 97 446 106 468 b 189 511 144 503 165 511 b 249 488 213 511 233 503 b 274 425 266 473 274 452 "},"ž":{"ha":640,"x_min":0,"x_max":0,"o":"m 151 108 l 539 108 l 521 0 l -29 0 l -11 106 l 443 553 l 90 553 l 110 658 l 625 658 l 607 553 m 306 783 l 186 983 l 307 983 l 388 846 l 518 983 l 643 983 l 453 783 "},"¹":{"ha":535,"x_min":0,"x_max":0,"o":"m 229 392 l 311 854 l 201 772 l 151 843 l 349 983 l 440 983 l 336 392 "},"º":{"ha":528,"x_min":0,"x_max":0,"o":"m 542 832 b 524 735 542 797 536 764 b 474 658 512 705 495 680 b 399 608 452 637 427 620 b 306 590 370 596 339 590 b 169 639 248 590 203 606 b 118 760 135 671 118 712 b 136 856 118 794 124 826 b 186 933 148 885 165 911 b 261 983 207 954 232 971 b 354 1001 290 995 321 1001 b 489 955 409 1001 454 986 b 542 832 524 924 542 883 m 446 822 b 420 894 446 851 437 875 b 347 922 403 913 379 922 b 294 910 328 922 310 918 b 251 876 278 901 263 890 b 224 828 239 863 230 847 b 214 771 217 810 214 791 b 240 699 214 742 222 718 b 311 671 257 680 281 671 b 365 683 331 671 349 675 b 408 717 382 692 396 703 b 436 765 420 731 430 747 b 446 822 443 783 446 802 "},"»":{"ha":704,"x_min":0,"x_max":0,"o":"m 478 639 l 631 336 l 375 35 l 300 99 l 506 344 l 388 585 m 200 639 l 353 336 l 96 35 l 21 99 l 226 344 l 108 585 "},"Œ":{"ha":1372,"x_min":0,"x_max":0,"o":"m 913 865 l 860 567 l 1293 567 l 1272 453 l 840 453 l 781 121 l 1274 121 l 1253 0 l 532 0 b 367 23 476 0 421 8 b 219 95 312 38 263 62 b 114 222 176 128 141 170 b 74 411 87 274 74 337 b 119 646 74 497 89 575 b 244 826 149 716 191 776 b 435 942 298 876 362 915 b 674 983 508 970 588 983 l 1388 983 l 1367 865 m 667 867 b 472 830 593 867 528 854 b 331 732 416 805 369 773 b 244 592 293 691 264 645 b 215 431 225 540 215 486 b 235 310 215 388 222 348 b 299 210 249 272 270 239 b 408 143 327 182 364 160 b 564 118 452 126 504 118 l 649 118 l 781 867 l 667 867 "},"œ":{"ha":1349,"x_min":0,"x_max":0,"o":"m 1264 415 b 1260 360 1264 402 1263 384 b 1249 292 1258 336 1254 313 l 733 292 b 731 279 731 287 731 283 l 731 268 b 745 196 731 242 735 218 b 785 139 755 174 768 155 b 847 101 803 123 823 111 b 922 88 870 92 895 88 b 1044 117 969 88 1010 97 b 1131 189 1078 136 1106 160 l 1207 118 b 910 -18 1127 27 1028 -18 b 745 22 844 -18 789 -5 b 646 129 701 49 668 85 b 528 23 616 86 577 50 b 351 -18 480 -4 421 -18 b 226 3 306 -18 264 -11 b 128 61 188 17 156 36 b 65 151 101 86 80 116 b 42 268 49 187 42 225 b 71 425 42 324 51 376 b 153 555 90 474 118 517 b 278 644 188 592 230 622 b 439 676 327 666 381 676 b 601 637 503 676 557 663 b 700 526 646 610 679 574 b 823 636 731 573 772 609 b 989 676 874 663 930 676 b 1190 608 1073 676 1140 653 b 1264 415 1239 562 1264 498 m 1143 425 b 1101 533 1143 469 1129 505 b 981 576 1074 562 1033 576 b 894 560 949 576 920 571 b 824 516 867 549 844 534 b 774 454 804 498 788 477 b 746 383 761 431 751 407 l 1140 383 b 1142 405 1141 391 1142 398 b 1143 426 1143 412 1143 419 l 1143 425 m 618 379 b 605 455 618 406 614 431 b 567 516 596 478 584 499 b 508 556 551 533 531 547 b 429 571 485 566 459 571 b 326 547 392 571 358 563 b 245 484 295 531 268 510 b 192 392 222 458 205 427 b 172 281 179 356 172 319 b 185 204 172 253 176 227 b 222 144 193 181 205 161 b 281 103 238 127 257 113 b 360 89 304 94 330 89 b 463 113 397 89 431 97 b 545 176 495 128 522 149 b 599 268 568 202 586 233 b 618 379 612 303 618 340 "},"Ÿ":{"ha":778,"x_min":0,"x_max":0,"o":"m 236 0 l 311 425 l 64 983 l 218 983 l 399 536 l 758 983 l 925 983 l 447 425 l 372 0 m 728 1176 b 705 1117 728 1153 720 1134 b 646 1093 690 1101 670 1093 b 589 1114 624 1093 605 1100 b 565 1172 573 1128 565 1147 b 590 1233 565 1197 574 1218 b 650 1257 607 1249 627 1257 b 706 1235 672 1257 691 1250 b 728 1176 720 1221 728 1201 m 453 1176 b 430 1117 453 1153 445 1134 b 372 1093 415 1101 395 1093 b 314 1114 349 1093 330 1100 b 290 1172 298 1128 290 1147 b 316 1233 290 1197 299 1218 b 375 1257 333 1249 353 1257 b 431 1235 397 1257 416 1250 b 453 1176 445 1221 453 1201 "},"¿":{"ha":694,"x_min":0,"x_max":0,"o":"m 408 399 l 397 331 b 380 265 394 306 388 285 b 351 212 372 246 362 228 b 310 166 339 196 326 180 b 260 124 295 152 278 138 l 201 78 b 130 10 174 56 150 34 b 100 -85 110 -14 100 -46 b 135 -177 100 -125 112 -155 b 233 -210 159 -199 192 -210 b 356 -164 283 -210 324 -194 b 417 -56 387 -133 407 -97 l 540 -76 b 499 -176 532 -112 518 -146 b 430 -256 480 -207 457 -233 b 336 -308 403 -278 371 -295 b 222 -326 301 -320 263 -326 b 123 -313 187 -326 154 -322 b 41 -272 92 -304 65 -291 b -15 -200 17 -254 -1 -230 b -36 -93 -29 -170 -36 -135 b 10 51 -36 -37 -21 12 b 139 168 41 91 84 130 b 194 210 160 183 179 197 b 234 250 210 223 223 236 b 260 295 245 264 253 279 b 275 354 266 311 271 331 l 281 399 m 275 593 b 301 657 275 617 284 638 b 364 685 318 675 339 685 b 426 662 388 685 409 677 b 451 597 443 647 451 625 b 424 531 451 570 442 548 b 360 506 405 514 384 506 b 299 529 336 506 316 513 b 275 593 283 545 275 566 "},"À":{"ha":946,"x_min":0,"x_max":0,"o":"m -94 0 l 543 983 l 667 983 l 867 0 l 724 0 l 676 242 l 215 242 l 65 0 m 657 363 l 574 829 l 286 363 m 526 1261 l 665 1061 l 564 1061 l 374 1261 "},"Á":{"ha":946,"x_min":0,"x_max":0,"o":"m -94 0 l 543 983 l 667 983 l 867 0 l 724 0 l 676 242 l 215 242 l 65 0 m 657 363 l 574 829 l 286 363 m 550 1061 l 724 1261 l 878 1261 l 653 1061 "},"Â":{"ha":946,"x_min":0,"x_max":0,"o":"m -94 0 l 543 983 l 667 983 l 867 0 l 724 0 l 676 242 l 215 242 l 65 0 m 657 363 l 574 829 l 286 363 m 726 1061 l 644 1199 l 514 1061 l 388 1061 l 579 1261 l 726 1261 l 846 1061 "},"Ã":{"ha":946,"x_min":0,"x_max":0,"o":"m -94 0 l 543 983 l 667 983 l 867 0 l 724 0 l 676 242 l 215 242 l 65 0 m 657 363 l 574 829 l 286 363 m 376 1072 b 401 1131 383 1093 391 1112 b 437 1182 412 1150 423 1167 b 484 1218 450 1197 466 1209 b 547 1232 502 1227 523 1232 b 599 1224 566 1232 583 1229 b 647 1203 616 1218 631 1211 b 693 1183 663 1195 678 1189 b 735 1174 708 1177 722 1174 b 782 1194 754 1174 770 1181 b 811 1239 794 1208 804 1223 l 888 1239 b 862 1180 880 1219 872 1199 b 826 1129 852 1161 840 1144 b 778 1093 813 1114 797 1102 b 717 1079 760 1084 740 1079 b 668 1088 700 1079 684 1082 b 621 1107 652 1093 637 1100 b 574 1128 605 1115 590 1122 b 531 1138 559 1134 544 1138 b 482 1117 510 1138 494 1131 b 453 1072 470 1103 460 1088 l 376 1072 "},"Ä":{"ha":946,"x_min":0,"x_max":0,"o":"m -94 0 l 543 983 l 667 983 l 867 0 l 724 0 l 676 242 l 215 242 l 65 0 m 657 363 l 574 829 l 286 363 m 856 1176 b 833 1117 856 1153 848 1134 b 774 1093 817 1101 798 1093 b 717 1114 751 1093 732 1100 b 693 1172 701 1128 693 1147 b 718 1233 693 1197 701 1218 b 778 1257 735 1249 755 1257 b 833 1235 800 1257 819 1250 b 856 1176 848 1221 856 1201 m 581 1176 b 558 1117 581 1153 573 1134 b 500 1093 542 1101 523 1093 b 442 1114 477 1093 457 1100 b 418 1172 426 1128 418 1147 b 444 1233 418 1197 427 1218 b 503 1257 461 1249 481 1257 b 558 1235 525 1257 544 1250 b 581 1176 573 1221 581 1201 "},"Å":{"ha":946,"x_min":0,"x_max":0,"o":"m -94 0 l 543 983 l 667 983 l 867 0 l 724 0 l 676 242 l 215 242 l 65 0 m 657 363 l 574 829 l 286 363 m 618 1046 b 531 1079 583 1046 554 1057 b 497 1161 509 1101 497 1129 b 508 1223 497 1183 501 1204 b 540 1274 516 1242 526 1259 b 590 1308 554 1288 571 1300 b 651 1321 609 1317 629 1321 b 739 1289 688 1321 717 1310 b 772 1207 761 1268 772 1240 b 729 1092 772 1162 758 1123 b 618 1046 700 1061 663 1046 m 715 1199 b 697 1249 715 1218 709 1235 b 647 1269 685 1263 669 1269 b 581 1240 620 1269 598 1260 b 556 1168 564 1221 556 1197 b 573 1119 556 1149 561 1132 b 622 1099 584 1105 601 1099 b 689 1128 649 1099 671 1108 b 715 1199 706 1147 715 1171 "},"Æ":{"ha":1397,"x_min":0,"x_max":0,"o":"m 700 268 l 321 268 l 108 0 l -51 0 l 739 983 l 1413 983 l 1392 864 l 938 864 l 885 567 l 1318 567 l 1297 451 l 865 451 l 806 121 l 1297 121 l 1276 0 l 653 0 m 806 864 l 789 864 l 407 382 l 719 382 "},"Ç":{"ha":972,"x_min":0,"x_max":0,"o":"m 906 154 b 757 32 868 107 818 66 b 536 -24 696 -2 622 -21 l 475 -97 b 494 -94 482 -95 489 -94 b 511 -93 500 -93 506 -93 b 549 -98 523 -93 536 -95 b 586 -115 563 -101 575 -107 b 614 -145 597 -122 606 -133 b 625 -192 621 -158 625 -173 b 607 -256 625 -217 619 -238 b 562 -297 595 -273 580 -287 b 503 -319 544 -307 524 -315 b 442 -326 481 -324 461 -326 b 365 -318 418 -326 392 -324 b 297 -294 338 -312 316 -305 l 331 -236 b 381 -253 346 -244 363 -249 b 436 -260 399 -258 418 -260 b 465 -257 445 -260 455 -259 b 494 -248 475 -255 485 -252 b 517 -230 504 -244 511 -238 b 526 -200 523 -222 526 -212 b 506 -160 526 -181 520 -167 b 460 -149 493 -152 477 -149 b 431 -151 450 -149 441 -150 b 401 -158 420 -153 411 -156 l 378 -131 l 468 -22 b 306 17 409 -18 355 -4 b 182 105 258 39 216 68 b 102 234 148 141 121 184 b 74 397 83 284 74 338 b 119 636 74 482 89 562 b 243 830 149 710 190 775 b 428 960 296 885 358 928 b 657 1008 499 992 575 1008 b 762 997 693 1008 728 1005 b 856 966 796 990 827 979 b 933 918 884 953 910 937 b 989 856 956 900 975 879 l 876 774 b 846 815 869 788 859 801 b 798 853 833 829 817 842 b 733 881 779 865 757 874 b 653 892 709 888 682 892 b 476 851 589 892 530 878 b 338 743 423 823 376 788 b 247 590 299 699 269 648 b 215 414 226 533 215 474 b 235 289 215 369 222 328 b 295 187 249 250 269 216 b 393 118 322 158 354 135 b 526 93 432 101 476 93 b 682 126 581 93 633 104 b 814 231 731 149 775 183 l 906 154 "},"È":{"ha":808,"x_min":0,"x_max":0,"o":"m 710 121 l 689 0 l 44 0 l 218 983 l 824 983 l 803 864 l 331 864 l 279 567 l 729 567 l 708 451 l 258 451 l 200 121 m 490 1261 l 629 1061 l 528 1061 l 338 1261 "},"É":{"ha":808,"x_min":0,"x_max":0,"o":"m 710 121 l 689 0 l 44 0 l 218 983 l 824 983 l 803 864 l 331 864 l 279 567 l 729 567 l 708 451 l 258 451 l 200 121 m 432 1061 l 606 1261 l 760 1261 l 535 1061 "},"Ê":{"ha":808,"x_min":0,"x_max":0,"o":"m 710 121 l 689 0 l 44 0 l 218 983 l 824 983 l 803 864 l 331 864 l 279 567 l 729 567 l 708 451 l 258 451 l 200 121 m 639 1061 l 557 1199 l 426 1061 l 300 1061 l 492 1261 l 639 1261 l 758 1061 "},"Ë":{"ha":808,"x_min":0,"x_max":0,"o":"m 710 121 l 689 0 l 44 0 l 218 983 l 824 983 l 803 864 l 331 864 l 279 567 l 729 567 l 708 451 l 258 451 l 200 121 m 767 1176 b 744 1117 767 1153 759 1134 b 685 1093 728 1101 709 1093 b 628 1114 663 1093 644 1100 b 604 1172 612 1128 604 1147 b 629 1233 604 1197 613 1218 b 689 1257 646 1249 666 1257 b 744 1235 711 1257 730 1250 b 767 1176 759 1221 767 1201 m 492 1176 b 469 1117 492 1153 484 1134 b 411 1093 453 1101 434 1093 b 353 1114 388 1093 369 1100 b 329 1172 337 1128 329 1147 b 355 1233 329 1197 338 1218 b 414 1257 372 1249 392 1257 b 469 1235 436 1257 455 1250 b 492 1176 484 1221 492 1201 "},"Ì":{"ha":376,"x_min":0,"x_max":0,"o":"m 44 0 l 218 983 l 354 983 l 181 0 m 215 1261 l 354 1061 l 253 1061 l 63 1261 "},"Í":{"ha":376,"x_min":0,"x_max":0,"o":"m 44 0 l 218 983 l 354 983 l 181 0 m 228 1061 l 401 1261 l 556 1261 l 331 1061 "},"Î":{"ha":376,"x_min":0,"x_max":0,"o":"m 44 0 l 218 983 l 354 983 l 181 0 m 404 1061 l 322 1199 l 192 1061 l 65 1061 l 257 1261 l 404 1261 l 524 1061 "},"Ï":{"ha":376,"x_min":0,"x_max":0,"o":"m 44 0 l 218 983 l 354 983 l 181 0 m 531 1176 b 508 1117 531 1153 523 1134 b 449 1093 492 1101 473 1093 b 392 1114 426 1093 407 1100 b 368 1172 376 1128 368 1147 b 393 1233 368 1197 376 1218 b 453 1257 410 1249 430 1257 b 508 1235 475 1257 494 1250 b 531 1176 523 1221 531 1201 m 256 1176 b 233 1117 256 1153 248 1134 b 175 1093 217 1101 198 1093 b 117 1114 152 1093 132 1100 b 93 1172 101 1128 93 1147 b 119 1233 93 1197 102 1218 b 178 1257 136 1249 156 1257 b 233 1235 200 1257 219 1250 b 256 1176 248 1221 256 1201 "},"Ð":{"ha":1051,"x_min":0,"x_max":0,"o":"m 536 983 b 701 960 592 983 647 976 b 849 888 756 945 805 921 b 954 760 892 855 927 813 b 994 572 981 708 994 645 b 949 338 994 486 979 408 b 824 157 919 267 877 207 b 633 41 770 107 706 68 b 394 0 560 14 481 0 l 44 0 l 126 467 l 35 467 l 53 563 l 144 563 l 218 983 m 401 119 b 597 156 475 119 541 132 b 738 254 653 181 700 213 b 823 394 775 295 804 341 b 851 556 842 446 851 500 b 831 676 851 598 844 638 b 767 774 817 713 796 746 b 659 842 739 803 703 825 b 503 867 615 858 563 867 l 332 867 l 278 563 l 597 563 l 578 467 l 261 467 l 200 119 "},"Ñ":{"ha":1067,"x_min":0,"x_max":0,"o":"m 754 192 l 893 983 l 1029 983 l 856 0 l 686 0 l 325 808 l 322 808 l 179 0 l 44 0 l 218 983 l 392 983 l 751 192 m 394 1072 b 419 1131 401 1093 409 1112 b 455 1182 430 1150 441 1167 b 502 1218 468 1197 484 1209 b 565 1232 520 1227 541 1232 b 617 1224 584 1232 601 1229 b 665 1203 634 1218 650 1211 b 711 1183 681 1195 696 1189 b 753 1174 726 1177 740 1174 b 800 1194 772 1174 788 1181 b 829 1239 812 1208 822 1223 l 906 1239 b 880 1180 898 1219 890 1199 b 844 1129 870 1161 858 1144 b 797 1093 831 1114 815 1102 b 735 1079 778 1084 758 1079 b 686 1088 718 1079 702 1082 b 639 1107 670 1093 655 1100 b 592 1128 623 1115 608 1122 b 549 1138 577 1134 563 1138 b 500 1117 528 1138 512 1131 b 471 1072 488 1103 478 1088 l 394 1072 "},"Ò":{"ha":1154,"x_min":0,"x_max":0,"o":"m 529 -25 b 342 5 461 -25 398 -15 b 199 90 286 25 238 53 b 106 224 159 127 128 172 b 74 400 84 277 74 335 b 117 637 74 484 88 563 b 238 830 147 710 187 775 b 419 960 290 885 350 928 b 646 1008 489 992 564 1008 b 829 978 713 1008 774 998 b 972 893 885 959 932 930 b 1065 760 1012 856 1043 812 b 1097 585 1086 708 1097 650 b 1055 347 1097 500 1083 421 b 936 153 1027 273 987 209 b 756 23 885 98 825 55 b 529 -25 686 -9 611 -25 m 956 572 b 935 697 956 617 949 658 b 874 798 921 735 900 769 b 774 867 847 827 814 850 b 639 892 735 883 690 892 b 465 851 575 892 517 878 b 331 742 412 823 368 787 b 245 589 294 697 265 646 b 215 413 225 531 215 473 b 236 289 215 369 222 328 b 297 187 250 250 270 216 b 395 118 323 158 356 135 b 532 93 434 101 480 93 b 708 133 597 93 655 106 b 841 241 760 160 804 196 b 926 394 878 286 906 337 b 956 572 946 452 956 511 m 607 1261 l 746 1061 l 644 1061 l 454 1261 "},"Ó":{"ha":1154,"x_min":0,"x_max":0,"o":"m 529 -25 b 342 5 461 -25 398 -15 b 199 90 286 25 238 53 b 106 224 159 127 128 172 b 74 400 84 277 74 335 b 117 637 74 484 88 563 b 238 830 147 710 187 775 b 419 960 290 885 350 928 b 646 1008 489 992 564 1008 b 829 978 713 1008 774 998 b 972 893 885 959 932 930 b 1065 760 1012 856 1043 812 b 1097 585 1086 708 1097 650 b 1055 347 1097 500 1083 421 b 936 153 1027 273 987 209 b 756 23 885 98 825 55 b 529 -25 686 -9 611 -25 m 956 572 b 935 697 956 617 949 658 b 874 798 921 735 900 769 b 774 867 847 827 814 850 b 639 892 735 883 690 892 b 465 851 575 892 517 878 b 331 742 412 823 368 787 b 245 589 294 697 265 646 b 215 413 225 531 215 473 b 236 289 215 369 222 328 b 297 187 250 250 270 216 b 395 118 323 158 356 135 b 532 93 434 101 480 93 b 708 133 597 93 655 106 b 841 241 760 160 804 196 b 926 394 878 286 906 337 b 956 572 946 452 956 511 m 582 1061 l 756 1261 l 910 1261 l 685 1061 "},"Ô":{"ha":1154,"x_min":0,"x_max":0,"o":"m 529 -25 b 342 5 461 -25 398 -15 b 199 90 286 25 238 53 b 106 224 159 127 128 172 b 74 400 84 277 74 335 b 117 637 74 484 88 563 b 238 830 147 710 187 775 b 419 960 290 885 350 928 b 646 1008 489 992 564 1008 b 829 978 713 1008 774 998 b 972 893 885 959 932 930 b 1065 760 1012 856 1043 812 b 1097 585 1086 708 1097 650 b 1055 347 1097 500 1083 421 b 936 153 1027 273 987 209 b 756 23 885 98 825 55 b 529 -25 686 -9 611 -25 m 956 572 b 935 697 956 617 949 658 b 874 798 921 735 900 769 b 774 867 847 827 814 850 b 639 892 735 883 690 892 b 465 851 575 892 517 878 b 331 742 412 823 368 787 b 245 589 294 697 265 646 b 215 413 225 531 215 473 b 236 289 215 369 222 328 b 297 187 250 250 270 216 b 395 118 323 158 356 135 b 532 93 434 101 480 93 b 708 133 597 93 655 106 b 841 241 760 160 804 196 b 926 394 878 286 906 337 b 956 572 946 452 956 511 m 801 1061 l 719 1199 l 589 1061 l 463 1061 l 654 1261 l 801 1261 l 921 1061 "},"Õ":{"ha":1154,"x_min":0,"x_max":0,"o":"m 529 -25 b 342 5 461 -25 398 -15 b 199 90 286 25 238 53 b 106 224 159 127 128 172 b 74 400 84 277 74 335 b 117 637 74 484 88 563 b 238 830 147 710 187 775 b 419 960 290 885 350 928 b 646 1008 489 992 564 1008 b 829 978 713 1008 774 998 b 972 893 885 959 932 930 b 1065 760 1012 856 1043 812 b 1097 585 1086 708 1097 650 b 1055 347 1097 500 1083 421 b 936 153 1027 273 987 209 b 756 23 885 98 825 55 b 529 -25 686 -9 611 -25 m 956 572 b 935 697 956 617 949 658 b 874 798 921 735 900 769 b 774 867 847 827 814 850 b 639 892 735 883 690 892 b 465 851 575 892 517 878 b 331 742 412 823 368 787 b 245 589 294 697 265 646 b 215 413 225 531 215 473 b 236 289 215 369 222 328 b 297 187 250 250 270 216 b 395 118 323 158 356 135 b 532 93 434 101 480 93 b 708 133 597 93 655 106 b 841 241 760 160 804 196 b 926 394 878 286 906 337 b 956 572 946 452 956 511 m 438 1072 b 463 1131 444 1093 452 1112 b 498 1182 473 1150 484 1167 b 545 1218 511 1197 527 1209 b 608 1232 563 1227 584 1232 b 660 1224 627 1232 644 1229 b 708 1203 677 1218 693 1211 b 754 1183 724 1195 739 1189 b 796 1174 769 1177 783 1174 b 843 1194 815 1174 831 1181 b 872 1239 855 1208 865 1223 l 949 1239 b 923 1180 941 1219 933 1199 b 888 1129 913 1161 901 1144 b 840 1093 874 1114 858 1102 b 778 1079 822 1084 801 1079 b 729 1088 761 1079 745 1082 b 682 1107 713 1093 698 1100 b 635 1128 666 1115 651 1122 b 592 1138 620 1134 606 1138 b 543 1117 571 1138 555 1131 b 514 1072 531 1103 521 1088 l 438 1072 "},"Ö":{"ha":1154,"x_min":0,"x_max":0,"o":"m 529 -25 b 342 5 461 -25 398 -15 b 199 90 286 25 238 53 b 106 224 159 127 128 172 b 74 400 84 277 74 335 b 117 637 74 484 88 563 b 238 830 147 710 187 775 b 419 960 290 885 350 928 b 646 1008 489 992 564 1008 b 829 978 713 1008 774 998 b 972 893 885 959 932 930 b 1065 760 1012 856 1043 812 b 1097 585 1086 708 1097 650 b 1055 347 1097 500 1083 421 b 936 153 1027 273 987 209 b 756 23 885 98 825 55 b 529 -25 686 -9 611 -25 m 956 572 b 935 697 956 617 949 658 b 874 798 921 735 900 769 b 774 867 847 827 814 850 b 639 892 735 883 690 892 b 465 851 575 892 517 878 b 331 742 412 823 368 787 b 245 589 294 697 265 646 b 215 413 225 531 215 473 b 236 289 215 369 222 328 b 297 187 250 250 270 216 b 395 118 323 158 356 135 b 532 93 434 101 480 93 b 708 133 597 93 655 106 b 841 241 760 160 804 196 b 926 394 878 286 906 337 b 956 572 946 452 956 511 m 918 1176 b 895 1117 918 1153 910 1134 b 836 1093 880 1101 860 1093 b 779 1114 814 1093 795 1100 b 756 1172 763 1128 756 1147 b 781 1233 756 1197 764 1218 b 840 1257 797 1249 817 1257 b 896 1235 863 1257 881 1250 b 918 1176 911 1221 918 1201 m 643 1176 b 620 1117 643 1153 635 1134 b 563 1093 605 1101 586 1093 b 504 1114 539 1093 520 1100 b 481 1172 488 1128 481 1147 b 506 1233 481 1197 489 1218 b 565 1257 523 1249 543 1257 b 621 1235 588 1257 606 1250 b 643 1176 636 1221 643 1201 "},"×":{"ha":925,"x_min":0,"x_max":0,"o":"m 699 738 l 778 660 l 542 422 l 781 182 l 699 101 l 461 338 l 225 101 l 144 182 l 383 418 l 146 660 l 225 738 l 463 500 "},"Ø":{"ha":1154,"x_min":0,"x_max":0,"o":"m 1122 969 l 1006 858 b 1074 737 1035 823 1058 783 b 1097 585 1089 691 1097 640 b 1055 347 1097 500 1083 421 b 936 153 1027 273 987 209 b 756 23 885 98 825 55 b 529 -25 686 -9 611 -25 b 342 5 461 -25 398 -15 b 197 92 286 25 238 54 l 67 -32 l 13 21 l 147 149 b 92 263 123 183 105 221 b 74 400 80 304 74 350 b 117 637 74 484 88 563 b 238 830 147 710 187 775 b 419 960 290 885 350 928 b 646 1008 489 992 564 1008 b 815 983 707 1008 763 1000 b 953 911 867 967 913 943 l 1072 1024 m 297 186 b 396 118 324 157 357 135 b 532 93 435 101 480 93 b 708 133 597 93 655 106 b 841 241 760 160 804 196 b 926 394 878 286 906 337 b 956 572 946 452 956 511 b 903 761 956 644 938 707 l 297 186 m 854 817 b 761 872 828 841 797 859 b 639 892 725 885 684 892 b 465 851 575 892 517 878 b 331 742 412 823 368 787 b 245 589 294 697 265 646 b 215 413 225 531 215 473 b 225 326 215 383 219 354 b 254 249 231 299 241 273 l 854 817 "},"Ù":{"ha":989,"x_min":0,"x_max":0,"o":"m 440 -25 b 288 -1 382 -25 331 -17 b 181 64 245 14 209 36 b 116 160 152 92 130 124 b 94 278 102 197 94 236 b 103 364 94 306 97 334 l 211 983 l 347 983 l 239 372 b 232 299 234 346 232 322 b 243 220 232 271 236 245 b 280 155 250 196 263 174 b 346 110 297 136 319 121 b 444 93 373 99 406 93 b 567 117 493 93 533 101 b 650 180 600 132 628 153 b 702 269 672 206 690 236 b 731 372 715 303 724 337 l 838 983 l 974 983 l 865 364 b 822 219 856 314 841 266 b 741 94 802 172 775 131 b 616 8 707 58 666 29 b 440 -25 566 -14 508 -25 m 521 1261 l 660 1061 l 558 1061 l 368 1261 "},"Ú":{"ha":989,"x_min":0,"x_max":0,"o":"m 440 -25 b 288 -1 382 -25 331 -17 b 181 64 245 14 209 36 b 116 160 152 92 130 124 b 94 278 102 197 94 236 b 103 364 94 306 97 334 l 211 983 l 347 983 l 239 372 b 232 299 234 346 232 322 b 243 220 232 271 236 245 b 280 155 250 196 263 174 b 346 110 297 136 319 121 b 444 93 373 99 406 93 b 567 117 493 93 533 101 b 650 180 600 132 628 153 b 702 269 672 206 690 236 b 731 372 715 303 724 337 l 838 983 l 974 983 l 865 364 b 822 219 856 314 841 266 b 741 94 802 172 775 131 b 616 8 707 58 666 29 b 440 -25 566 -14 508 -25 m 513 1061 l 686 1261 l 840 1261 l 615 1061 "},"Û":{"ha":989,"x_min":0,"x_max":0,"o":"m 440 -25 b 288 -1 382 -25 331 -17 b 181 64 245 14 209 36 b 116 160 152 92 130 124 b 94 278 102 197 94 236 b 103 364 94 306 97 334 l 211 983 l 347 983 l 239 372 b 232 299 234 346 232 322 b 243 220 232 271 236 245 b 280 155 250 196 263 174 b 346 110 297 136 319 121 b 444 93 373 99 406 93 b 567 117 493 93 533 101 b 650 180 600 132 628 153 b 702 269 672 206 690 236 b 731 372 715 303 724 337 l 838 983 l 974 983 l 865 364 b 822 219 856 314 841 266 b 741 94 802 172 775 131 b 616 8 707 58 666 29 b 440 -25 566 -14 508 -25 m 715 1061 l 633 1199 l 503 1061 l 376 1061 l 568 1261 l 715 1261 l 835 1061 "},"Ü":{"ha":989,"x_min":0,"x_max":0,"o":"m 440 -25 b 288 -1 382 -25 331 -17 b 181 64 245 14 209 36 b 116 160 152 92 130 124 b 94 278 102 197 94 236 b 103 364 94 306 97 334 l 211 983 l 347 983 l 239 372 b 232 299 234 346 232 322 b 243 220 232 271 236 245 b 280 155 250 196 263 174 b 346 110 297 136 319 121 b 444 93 373 99 406 93 b 567 117 493 93 533 101 b 650 180 600 132 628 153 b 702 269 672 206 690 236 b 731 372 715 303 724 337 l 838 983 l 974 983 l 865 364 b 822 219 856 314 841 266 b 741 94 802 172 775 131 b 616 8 707 58 666 29 b 440 -25 566 -14 508 -25 m 839 1176 b 816 1117 839 1153 831 1134 b 757 1093 801 1101 781 1093 b 700 1114 735 1093 716 1100 b 676 1172 684 1128 676 1147 b 701 1233 676 1197 685 1218 b 761 1257 718 1249 738 1257 b 817 1235 783 1257 802 1250 b 839 1176 831 1221 839 1201 m 564 1176 b 541 1117 564 1153 556 1134 b 483 1093 526 1101 506 1093 b 425 1114 460 1093 441 1100 b 401 1172 409 1128 401 1147 b 427 1233 401 1197 410 1218 b 486 1257 444 1249 464 1257 b 542 1235 508 1257 527 1250 b 564 1176 556 1221 564 1201 "},"Ý":{"ha":778,"x_min":0,"x_max":0,"o":"m 236 0 l 311 425 l 64 983 l 218 983 l 399 536 l 758 983 l 925 983 l 447 425 l 372 0 m 435 1061 l 608 1261 l 763 1261 l 538 1061 "},"Þ":{"ha":826,"x_min":0,"x_max":0,"o":"m 46 0 l 219 983 l 354 983 l 318 781 l 464 781 b 699 715 566 781 644 759 b 782 533 754 672 782 611 b 753 400 782 482 772 438 b 673 305 734 362 708 330 b 549 248 638 279 597 260 b 389 229 500 235 447 229 l 221 229 l 181 0 m 396 343 b 580 387 475 343 536 358 b 646 518 624 416 646 460 b 592 633 646 573 628 611 b 446 665 556 654 507 665 l 299 665 l 240 343 "},"ß":{"ha":847,"x_min":0,"x_max":0,"o":"m 35 0 l 164 731 b 198 853 171 772 183 813 b 261 961 213 894 234 930 b 361 1038 288 993 321 1018 b 507 1067 401 1057 450 1067 b 615 1050 546 1067 582 1061 b 699 1002 647 1039 676 1023 b 755 928 723 981 741 956 b 775 831 768 899 775 867 b 719 676 775 768 756 716 b 581 594 682 635 636 608 l 581 592 b 658 559 609 585 635 574 b 717 504 681 544 701 525 b 755 432 734 483 746 459 b 768 346 764 405 768 376 b 740 197 768 291 759 242 b 659 83 721 153 694 115 b 535 10 624 52 583 27 b 379 -17 488 -8 436 -17 b 326 -14 363 -17 346 -16 b 272 -6 306 -12 288 -9 l 292 103 b 332 96 302 100 315 98 b 375 93 349 94 363 93 b 473 108 409 93 442 98 b 556 153 504 117 531 132 b 613 231 580 173 599 199 b 635 343 628 262 635 300 b 619 419 635 371 629 396 b 575 479 608 443 594 463 b 509 517 556 496 534 509 b 426 531 484 526 456 531 l 411 531 l 432 643 l 447 643 b 520 653 472 643 497 647 b 583 685 544 660 565 671 b 628 740 602 700 617 718 b 644 817 639 761 644 787 b 606 915 644 857 632 890 b 501 953 581 940 546 953 b 408 931 464 953 433 946 b 347 876 383 917 363 899 b 310 803 331 854 319 830 b 292 725 302 776 295 750 l 163 0 "},"à":{"ha":746,"x_min":0,"x_max":0,"o":"m 514 411 b 518 442 516 424 517 434 b 519 463 519 449 519 456 b 483 547 519 501 507 529 b 381 572 459 564 425 572 b 275 551 345 572 310 565 b 183 500 240 538 209 520 l 131 586 b 254 652 166 614 207 636 b 399 676 301 668 350 676 b 490 666 430 676 460 673 b 567 633 519 659 545 648 b 622 572 590 617 608 597 b 643 482 636 547 643 517 b 642 449 643 474 643 463 b 638 415 641 436 639 425 l 589 149 b 578 69 584 123 581 96 b 574 0 575 41 574 19 l 456 0 b 458 44 456 14 456 29 b 464 92 459 60 461 76 l 461 92 b 358 11 430 55 395 28 b 228 -14 321 -6 278 -14 b 158 -6 206 -14 182 -11 b 92 23 134 0 112 9 b 43 76 72 36 56 54 b 24 160 30 99 24 126 b 68 290 24 213 38 257 b 183 366 98 322 136 348 b 340 402 229 384 282 396 b 514 411 399 408 456 411 m 479 317 b 367 312 443 317 406 315 b 260 292 328 309 292 302 b 182 250 228 283 202 269 b 151 178 162 231 151 207 b 162 133 151 159 155 144 b 190 104 169 121 178 112 b 228 89 201 97 214 92 b 272 85 243 86 257 85 b 353 99 301 85 328 90 b 418 139 378 109 400 122 b 465 197 437 156 452 175 b 490 268 477 219 486 243 l 500 317 l 479 317 m 351 983 l 490 783 l 389 783 l 199 983 "},"á":{"ha":746,"x_min":0,"x_max":0,"o":"m 514 411 b 518 442 516 424 517 434 b 519 463 519 449 519 456 b 483 547 519 501 507 529 b 381 572 459 564 425 572 b 275 551 345 572 310 565 b 183 500 240 538 209 520 l 131 586 b 254 652 166 614 207 636 b 399 676 301 668 350 676 b 490 666 430 676 460 673 b 567 633 519 659 545 648 b 622 572 590 617 608 597 b 643 482 636 547 643 517 b 642 449 643 474 643 463 b 638 415 641 436 639 425 l 589 149 b 578 69 584 123 581 96 b 574 0 575 41 574 19 l 456 0 b 458 44 456 14 456 29 b 464 92 459 60 461 76 l 461 92 b 358 11 430 55 395 28 b 228 -14 321 -6 278 -14 b 158 -6 206 -14 182 -11 b 92 23 134 0 112 9 b 43 76 72 36 56 54 b 24 160 30 99 24 126 b 68 290 24 213 38 257 b 183 366 98 322 136 348 b 340 402 229 384 282 396 b 514 411 399 408 456 411 m 479 317 b 367 312 443 317 406 315 b 260 292 328 309 292 302 b 182 250 228 283 202 269 b 151 178 162 231 151 207 b 162 133 151 159 155 144 b 190 104 169 121 178 112 b 228 89 201 97 214 92 b 272 85 243 86 257 85 b 353 99 301 85 328 90 b 418 139 378 109 400 122 b 465 197 437 156 452 175 b 490 268 477 219 486 243 l 500 317 l 479 317 m 347 783 l 521 983 l 675 983 l 450 783 "},"â":{"ha":746,"x_min":0,"x_max":0,"o":"m 514 411 b 518 442 516 424 517 434 b 519 463 519 449 519 456 b 483 547 519 501 507 529 b 381 572 459 564 425 572 b 275 551 345 572 310 565 b 183 500 240 538 209 520 l 131 586 b 254 652 166 614 207 636 b 399 676 301 668 350 676 b 490 666 430 676 460 673 b 567 633 519 659 545 648 b 622 572 590 617 608 597 b 643 482 636 547 643 517 b 642 449 643 474 643 463 b 638 415 641 436 639 425 l 589 149 b 578 69 584 123 581 96 b 574 0 575 41 574 19 l 456 0 b 458 44 456 14 456 29 b 464 92 459 60 461 76 l 461 92 b 358 11 430 55 395 28 b 228 -14 321 -6 278 -14 b 158 -6 206 -14 182 -11 b 92 23 134 0 112 9 b 43 76 72 36 56 54 b 24 160 30 99 24 126 b 68 290 24 213 38 257 b 183 366 98 322 136 348 b 340 402 229 384 282 396 b 514 411 399 408 456 411 m 479 317 b 367 312 443 317 406 315 b 260 292 328 309 292 302 b 182 250 228 283 202 269 b 151 178 162 231 151 207 b 162 133 151 159 155 144 b 190 104 169 121 178 112 b 228 89 201 97 214 92 b 272 85 243 86 257 85 b 353 99 301 85 328 90 b 418 139 378 109 400 122 b 465 197 437 156 452 175 b 490 268 477 219 486 243 l 500 317 l 479 317 m 543 783 l 461 921 l 331 783 l 204 783 l 396 983 l 543 983 l 663 783 "},"ã":{"ha":746,"x_min":0,"x_max":0,"o":"m 514 411 b 518 442 516 424 517 434 b 519 463 519 449 519 456 b 483 547 519 501 507 529 b 381 572 459 564 425 572 b 275 551 345 572 310 565 b 183 500 240 538 209 520 l 131 586 b 254 652 166 614 207 636 b 399 676 301 668 350 676 b 490 666 430 676 460 673 b 567 633 519 659 545 648 b 622 572 590 617 608 597 b 643 482 636 547 643 517 b 642 449 643 474 643 463 b 638 415 641 436 639 425 l 589 149 b 578 69 584 123 581 96 b 574 0 575 41 574 19 l 456 0 b 458 44 456 14 456 29 b 464 92 459 60 461 76 l 461 92 b 358 11 430 55 395 28 b 228 -14 321 -6 278 -14 b 158 -6 206 -14 182 -11 b 92 23 134 0 112 9 b 43 76 72 36 56 54 b 24 160 30 99 24 126 b 68 290 24 213 38 257 b 183 366 98 322 136 348 b 340 402 229 384 282 396 b 514 411 399 408 456 411 m 479 317 b 367 312 443 317 406 315 b 260 292 328 309 292 302 b 182 250 228 283 202 269 b 151 178 162 231 151 207 b 162 133 151 159 155 144 b 190 104 169 121 178 112 b 228 89 201 97 214 92 b 272 85 243 86 257 85 b 353 99 301 85 328 90 b 418 139 378 109 400 122 b 465 197 437 156 452 175 b 490 268 477 219 486 243 l 500 317 l 479 317 m 183 794 b 208 853 190 815 198 834 b 244 904 219 872 230 889 b 291 940 257 919 273 931 b 354 954 309 950 330 954 b 406 946 373 954 390 951 b 454 925 422 940 438 933 b 500 905 470 918 485 911 b 542 896 515 899 529 896 b 589 917 561 896 577 903 b 618 961 601 931 611 945 l 694 961 b 669 902 687 941 678 921 b 633 851 659 883 647 866 b 585 815 619 837 603 825 b 524 801 567 806 547 801 b 475 810 507 801 491 804 b 428 829 459 815 444 822 b 381 851 412 838 397 845 b 338 860 366 857 351 860 b 289 839 317 860 301 853 b 260 794 277 825 267 810 l 183 794 "},"ä":{"ha":746,"x_min":0,"x_max":0,"o":"m 514 411 b 518 442 516 424 517 434 b 519 463 519 449 519 456 b 483 547 519 501 507 529 b 381 572 459 564 425 572 b 275 551 345 572 310 565 b 183 500 240 538 209 520 l 131 586 b 254 652 166 614 207 636 b 399 676 301 668 350 676 b 490 666 430 676 460 673 b 567 633 519 659 545 648 b 622 572 590 617 608 597 b 643 482 636 547 643 517 b 642 449 643 474 643 463 b 638 415 641 436 639 425 l 589 149 b 578 69 584 123 581 96 b 574 0 575 41 574 19 l 456 0 b 458 44 456 14 456 29 b 464 92 459 60 461 76 l 461 92 b 358 11 430 55 395 28 b 228 -14 321 -6 278 -14 b 158 -6 206 -14 182 -11 b 92 23 134 0 112 9 b 43 76 72 36 56 54 b 24 160 30 99 24 126 b 68 290 24 213 38 257 b 183 366 98 322 136 348 b 340 402 229 384 282 396 b 514 411 399 408 456 411 m 479 317 b 367 312 443 317 406 315 b 260 292 328 309 292 302 b 182 250 228 283 202 269 b 151 178 162 231 151 207 b 162 133 151 159 155 144 b 190 104 169 121 178 112 b 228 89 201 97 214 92 b 272 85 243 86 257 85 b 353 99 301 85 328 90 b 418 139 378 109 400 122 b 465 197 437 156 452 175 b 490 268 477 219 486 243 l 500 317 l 479 317 m 386 899 b 363 840 386 875 378 856 b 306 815 348 823 329 815 b 247 836 282 815 263 822 b 224 894 231 850 224 869 b 249 956 224 919 232 940 b 308 979 266 971 286 979 b 364 958 331 979 349 972 b 386 899 379 943 386 924 m 661 899 b 638 840 661 875 653 856 b 579 815 623 823 603 815 b 522 836 557 815 538 822 b 499 894 506 850 499 869 b 524 956 499 919 507 940 b 583 979 540 971 560 979 b 639 958 606 979 624 972 b 661 899 654 943 661 924 "},"å":{"ha":746,"x_min":0,"x_max":0,"o":"m 514 411 b 518 442 516 424 517 434 b 519 463 519 449 519 456 b 483 547 519 501 507 529 b 381 572 459 564 425 572 b 275 551 345 572 310 565 b 183 500 240 538 209 520 l 131 586 b 254 652 166 614 207 636 b 399 676 301 668 350 676 b 490 666 430 676 460 673 b 567 633 519 659 545 648 b 622 572 590 617 608 597 b 643 482 636 547 643 517 b 642 449 643 474 643 463 b 638 415 641 436 639 425 l 589 149 b 578 69 584 123 581 96 b 574 0 575 41 574 19 l 456 0 b 458 44 456 14 456 29 b 464 92 459 60 461 76 l 461 92 b 358 11 430 55 395 28 b 228 -14 321 -6 278 -14 b 158 -6 206 -14 182 -11 b 92 23 134 0 112 9 b 43 76 72 36 56 54 b 24 160 30 99 24 126 b 68 290 24 213 38 257 b 183 366 98 322 136 348 b 340 402 229 384 282 396 b 514 411 399 408 456 411 m 479 317 b 367 312 443 317 406 315 b 260 292 328 309 292 302 b 182 250 228 283 202 269 b 151 178 162 231 151 207 b 162 133 151 159 155 144 b 190 104 169 121 178 112 b 228 89 201 97 214 92 b 272 85 243 86 257 85 b 353 99 301 85 328 90 b 418 139 378 109 400 122 b 465 197 437 156 452 175 b 490 268 477 219 486 243 l 500 317 l 479 317 m 428 768 b 341 801 393 768 364 779 b 307 883 318 824 307 851 b 318 945 307 906 311 926 b 350 996 325 964 336 981 b 399 1031 364 1011 380 1022 b 461 1043 418 1039 439 1043 b 549 1011 497 1043 526 1032 b 582 929 571 990 582 963 b 539 815 582 884 568 846 b 428 768 510 784 473 768 m 525 921 b 507 971 525 940 519 957 b 457 992 495 985 478 992 b 391 963 430 992 408 982 b 365 890 374 943 365 919 b 383 841 365 871 371 854 b 432 821 394 828 411 821 b 499 850 459 821 481 831 b 525 921 516 869 525 893 "},"æ":{"ha":1229,"x_min":0,"x_max":0,"o":"m 619 556 b 724 641 644 589 679 617 b 869 676 768 665 817 676 b 1070 608 954 676 1021 653 b 1144 415 1120 562 1144 498 b 1141 359 1144 402 1143 384 b 1129 290 1139 334 1135 312 l 621 290 b 619 278 620 286 619 282 b 618 268 618 275 618 272 b 670 139 618 215 635 172 b 804 89 705 106 750 89 b 925 117 851 89 892 98 b 1011 189 958 136 987 160 l 1088 117 b 790 -18 1008 27 909 -18 b 634 22 732 -18 680 -5 b 538 132 588 49 556 86 b 434 29 514 92 480 58 b 253 -14 388 0 328 -14 b 174 -6 228 -14 202 -11 b 100 23 147 0 122 9 b 45 76 78 36 59 54 b 24 161 31 99 24 127 b 67 282 24 212 38 252 b 181 349 97 312 134 334 b 339 378 228 365 281 374 b 515 385 397 383 456 385 b 523 428 518 398 521 412 b 526 461 525 444 526 455 b 489 548 526 503 514 532 b 389 572 464 564 431 572 b 283 551 354 572 318 565 b 190 500 247 538 216 520 l 138 586 b 262 652 173 614 214 636 b 406 676 309 668 357 676 b 544 647 461 676 507 666 b 619 556 581 627 606 596 m 467 290 b 344 286 423 290 382 289 b 244 269 305 283 272 278 b 177 235 216 261 193 250 b 153 178 161 220 153 201 b 163 133 153 159 156 144 b 190 104 170 121 179 112 b 229 89 201 97 214 92 b 275 85 244 86 259 85 b 425 135 337 85 387 101 b 496 265 463 168 487 212 l 500 290 l 467 290 m 1021 385 b 1023 406 1022 391 1022 398 b 1024 426 1023 413 1024 420 b 981 533 1024 469 1009 504 b 860 575 953 561 913 575 b 776 558 829 575 801 569 b 710 515 751 547 729 533 b 662 454 690 498 674 477 b 635 385 649 431 640 408 l 1021 385 "},"ç":{"ha":689,"x_min":0,"x_max":0,"o":"m 582 490 b 526 547 571 513 552 531 b 438 569 499 562 470 569 b 333 547 400 569 365 562 b 250 484 301 531 273 510 b 196 392 227 458 209 427 b 176 282 183 358 176 321 b 188 207 176 255 180 230 b 224 147 196 184 208 164 b 283 106 239 129 259 116 b 365 90 306 95 334 90 b 471 113 407 90 442 98 b 546 169 500 127 525 146 l 624 97 b 510 15 589 63 551 36 b 367 -18 468 -5 420 -16 l 300 -97 b 319 -94 307 -95 314 -94 b 336 -93 325 -93 331 -93 b 374 -98 348 -93 361 -95 b 411 -115 388 -101 400 -107 b 439 -145 422 -122 431 -133 b 450 -192 446 -158 450 -173 b 432 -256 450 -217 444 -238 b 387 -297 420 -273 405 -287 b 328 -319 369 -307 349 -315 b 267 -326 306 -324 286 -326 b 190 -318 243 -326 217 -324 b 122 -294 163 -312 141 -305 l 156 -236 b 206 -253 171 -244 188 -249 b 261 -260 224 -258 243 -260 b 290 -257 270 -260 280 -259 b 319 -248 300 -255 310 -252 b 342 -230 329 -244 336 -238 b 351 -200 348 -222 351 -212 b 331 -160 351 -181 345 -167 b 285 -149 318 -152 302 -149 b 256 -151 275 -149 266 -150 b 226 -158 245 -153 236 -156 l 203 -131 l 300 -14 b 114 76 221 -4 159 26 b 46 267 69 126 46 190 b 74 423 46 321 55 373 b 155 553 93 472 120 516 b 281 643 190 591 231 621 b 444 676 330 665 384 676 b 516 669 469 676 492 674 b 583 649 540 665 562 658 b 640 615 603 641 622 629 b 682 565 657 601 671 585 l 582 490 "},"è":{"ha":785,"x_min":0,"x_max":0,"o":"m 169 290 b 168 278 169 286 168 282 l 168 268 b 183 197 168 242 173 218 b 223 140 192 175 206 156 b 284 102 240 123 260 111 b 360 89 308 93 333 89 b 481 117 407 89 447 98 b 567 189 515 136 544 160 l 643 117 b 510 16 604 72 560 39 b 347 -18 460 -7 406 -18 b 226 1 304 -18 263 -12 b 128 58 188 14 156 33 b 65 150 101 83 80 114 b 42 274 49 186 42 227 b 71 429 42 328 51 380 b 151 558 90 478 117 521 b 274 644 186 594 226 623 b 426 676 321 666 372 676 b 626 608 511 676 577 653 b 700 415 675 562 700 498 b 697 359 700 402 699 384 b 686 290 694 334 691 312 l 169 290 m 576 385 b 578 406 577 391 578 398 b 579 426 579 413 579 420 b 538 533 579 469 565 504 b 417 575 510 561 469 575 b 331 558 385 575 356 569 b 262 515 305 547 282 533 b 212 454 242 498 225 477 b 183 385 198 431 189 408 l 576 385 m 383 983 l 522 783 l 421 783 l 231 983 "},"é":{"ha":785,"x_min":0,"x_max":0,"o":"m 169 290 b 168 278 169 286 168 282 l 168 268 b 183 197 168 242 173 218 b 223 140 192 175 206 156 b 284 102 240 123 260 111 b 360 89 308 93 333 89 b 481 117 407 89 447 98 b 567 189 515 136 544 160 l 643 117 b 510 16 604 72 560 39 b 347 -18 460 -7 406 -18 b 226 1 304 -18 263 -12 b 128 58 188 14 156 33 b 65 150 101 83 80 114 b 42 274 49 186 42 227 b 71 429 42 328 51 380 b 151 558 90 478 117 521 b 274 644 186 594 226 623 b 426 676 321 666 372 676 b 626 608 511 676 577 653 b 700 415 675 562 700 498 b 697 359 700 402 699 384 b 686 290 694 334 691 312 l 169 290 m 576 385 b 578 406 577 391 578 398 b 579 426 579 413 579 420 b 538 533 579 469 565 504 b 417 575 510 561 469 575 b 331 558 385 575 356 569 b 262 515 305 547 282 533 b 212 454 242 498 225 477 b 183 385 198 431 189 408 l 576 385 m 356 783 l 529 983 l 683 983 l 458 783 "},"ê":{"ha":785,"x_min":0,"x_max":0,"o":"m 169 290 b 168 278 169 286 168 282 l 168 268 b 183 197 168 242 173 218 b 223 140 192 175 206 156 b 284 102 240 123 260 111 b 360 89 308 93 333 89 b 481 117 407 89 447 98 b 567 189 515 136 544 160 l 643 117 b 510 16 604 72 560 39 b 347 -18 460 -7 406 -18 b 226 1 304 -18 263 -12 b 128 58 188 14 156 33 b 65 150 101 83 80 114 b 42 274 49 186 42 227 b 71 429 42 328 51 380 b 151 558 90 478 117 521 b 274 644 186 594 226 623 b 426 676 321 666 372 676 b 626 608 511 676 577 653 b 700 415 675 562 700 498 b 697 359 700 402 699 384 b 686 290 694 334 691 312 l 169 290 m 576 385 b 578 406 577 391 578 398 b 579 426 579 413 579 420 b 538 533 579 469 565 504 b 417 575 510 561 469 575 b 331 558 385 575 356 569 b 262 515 305 547 282 533 b 212 454 242 498 225 477 b 183 385 198 431 189 408 l 576 385 m 574 783 l 492 921 l 361 783 l 235 783 l 426 983 l 574 983 l 693 783 "},"ë":{"ha":785,"x_min":0,"x_max":0,"o":"m 169 290 b 168 278 169 286 168 282 l 168 268 b 183 197 168 242 173 218 b 223 140 192 175 206 156 b 284 102 240 123 260 111 b 360 89 308 93 333 89 b 481 117 407 89 447 98 b 567 189 515 136 544 160 l 643 117 b 510 16 604 72 560 39 b 347 -18 460 -7 406 -18 b 226 1 304 -18 263 -12 b 128 58 188 14 156 33 b 65 150 101 83 80 114 b 42 274 49 186 42 227 b 71 429 42 328 51 380 b 151 558 90 478 117 521 b 274 644 186 594 226 623 b 426 676 321 666 372 676 b 626 608 511 676 577 653 b 700 415 675 562 700 498 b 697 359 700 402 699 384 b 686 290 694 334 691 312 l 169 290 m 576 385 b 578 406 577 391 578 398 b 579 426 579 413 579 420 b 538 533 579 469 565 504 b 417 575 510 561 469 575 b 331 558 385 575 356 569 b 262 515 305 547 282 533 b 212 454 242 498 225 477 b 183 385 198 431 189 408 l 576 385 m 419 899 b 397 840 419 875 412 856 b 339 815 381 823 362 815 b 281 836 316 815 296 822 b 257 894 265 850 257 869 b 283 956 257 919 266 940 b 342 979 300 971 319 979 b 397 958 364 979 382 972 b 419 899 412 943 419 924 m 694 899 b 672 840 694 875 687 856 b 613 815 656 823 637 815 b 556 836 590 815 571 822 b 532 894 540 850 532 869 b 557 956 532 919 540 940 b 617 979 574 971 594 979 b 672 958 639 979 657 972 b 694 899 687 943 694 924 "},"ì":{"ha":360,"x_min":0,"x_max":0,"o":"m 40 0 l 156 658 l 285 658 l 168 0 m 154 983 l 293 783 l 192 783 l 1 983 "},"í":{"ha":360,"x_min":0,"x_max":0,"o":"m 40 0 l 156 658 l 285 658 l 168 0 m 160 782 l 333 982 l 488 982 l 263 782 "},"î":{"ha":360,"x_min":0,"x_max":0,"o":"m 40 0 l 156 658 l 285 658 l 168 0 m 349 783 l 267 921 l 136 783 l 10 783 l 201 983 l 349 983 l 468 783 "},"ï":{"ha":360,"x_min":0,"x_max":0,"o":"m 40 0 l 156 658 l 285 658 l 168 0 m 206 899 b 183 840 206 875 198 856 b 125 815 167 823 148 815 b 67 836 102 815 82 822 b 43 894 51 850 43 869 b 69 956 43 919 52 940 b 128 979 86 971 106 979 b 183 958 150 979 169 972 b 206 899 198 943 206 924 m 481 899 b 458 840 481 875 473 856 b 399 815 442 823 423 815 b 342 836 376 815 357 822 b 318 894 326 850 318 869 b 343 956 318 919 326 940 b 403 979 360 971 380 979 b 458 958 425 979 444 972 b 481 899 473 943 481 924 "},"ð":{"ha":833,"x_min":0,"x_max":0,"o":"m 438 676 b 617 613 514 676 574 655 l 621 615 b 559 746 605 659 584 702 b 468 863 534 789 503 828 l 303 788 l 247 853 l 414 926 b 362 978 398 944 381 961 b 307 1024 343 994 325 1010 l 417 1086 b 478 1030 438 1068 459 1049 b 528 978 498 1011 515 994 l 690 1051 l 750 989 l 585 914 b 712 702 638 853 680 782 b 760 442 744 622 760 535 b 738 276 760 386 752 331 b 667 128 723 222 699 172 b 544 22 635 84 594 49 b 360 -18 493 -5 432 -18 b 235 3 314 -18 273 -11 b 136 62 197 17 164 36 b 72 153 108 87 87 118 b 49 269 56 188 49 227 b 76 422 49 322 58 373 b 155 552 95 471 121 515 b 278 642 189 590 230 620 b 438 676 326 665 379 676 m 624 379 b 610 454 624 406 619 431 b 573 515 602 477 589 497 b 514 555 557 532 537 545 b 435 569 491 565 464 569 b 331 546 397 569 362 562 b 251 483 300 530 273 509 b 198 391 228 456 210 426 b 179 281 185 356 179 319 b 228 144 179 225 196 179 b 367 90 261 108 307 90 b 471 113 405 90 439 98 b 552 176 502 128 529 149 b 605 268 575 202 592 233 b 624 379 617 303 624 340 "},"ñ":{"ha":807,"x_min":0,"x_max":0,"o":"m 272 658 b 266 606 270 645 268 628 b 258 551 264 584 261 566 l 261 551 b 353 642 285 589 316 620 b 481 676 391 665 433 676 b 645 619 553 676 608 657 b 701 474 683 580 701 532 b 696 407 701 450 700 428 l 624 0 l 494 0 l 558 364 b 567 438 564 389 567 413 b 539 531 567 475 557 506 b 439 567 520 555 487 567 b 304 508 387 567 342 547 b 229 350 266 468 241 416 l 168 0 l 39 0 l 129 515 b 141 583 133 533 137 556 b 150 658 145 611 148 636 l 272 658 m 222 794 b 247 853 229 815 237 834 b 283 904 257 872 269 889 b 330 940 296 919 312 931 b 393 954 348 950 369 954 b 445 946 412 954 429 951 b 493 925 461 940 477 933 b 539 905 509 918 524 911 b 581 896 554 899 568 896 b 628 917 600 896 616 903 b 657 961 640 931 650 945 l 733 961 b 708 902 726 941 717 921 b 672 851 698 883 686 866 b 624 815 658 837 642 825 b 563 801 606 806 586 801 b 514 810 546 801 530 804 b 467 829 498 815 482 822 b 420 851 451 838 435 845 b 376 860 405 857 390 860 b 328 839 356 860 340 853 b 299 794 316 825 306 810 l 222 794 "},"ò":{"ha":833,"x_min":0,"x_max":0,"o":"m 354 -18 b 229 3 309 -18 267 -11 b 131 62 191 17 158 36 b 65 153 103 87 81 118 b 42 269 50 188 42 227 b 70 425 42 324 51 376 b 151 555 89 474 116 517 b 276 644 185 592 227 622 b 438 676 324 666 378 676 b 563 656 483 676 525 669 b 661 597 600 642 633 622 b 726 508 689 572 710 542 b 749 392 741 473 749 434 b 720 234 749 336 739 284 b 640 103 701 184 674 141 b 515 15 605 66 563 36 b 354 -18 467 -7 413 -18 m 618 379 b 605 454 618 406 614 431 b 567 515 596 477 584 497 b 508 555 551 532 531 545 b 429 569 484 565 458 569 b 325 546 391 569 356 562 b 244 483 294 530 266 509 b 191 391 221 456 203 426 b 172 281 178 356 172 319 b 222 144 172 225 189 179 b 361 90 256 108 302 90 b 465 113 399 90 434 98 b 547 176 497 128 524 149 b 599 268 569 202 587 233 b 618 379 612 303 618 340 m 397 983 l 536 783 l 435 783 l 244 983 "},"ó":{"ha":833,"x_min":0,"x_max":0,"o":"m 354 -18 b 229 3 309 -18 267 -11 b 131 62 191 17 158 36 b 65 153 103 87 81 118 b 42 269 50 188 42 227 b 70 425 42 324 51 376 b 151 555 89 474 116 517 b 276 644 185 592 227 622 b 438 676 324 666 378 676 b 563 656 483 676 525 669 b 661 597 600 642 633 622 b 726 508 689 572 710 542 b 749 392 741 473 749 434 b 720 234 749 336 739 284 b 640 103 701 184 674 141 b 515 15 605 66 563 36 b 354 -18 467 -7 413 -18 m 618 379 b 605 454 618 406 614 431 b 567 515 596 477 584 497 b 508 555 551 532 531 545 b 429 569 484 565 458 569 b 325 546 391 569 356 562 b 244 483 294 530 266 509 b 191 391 221 456 203 426 b 172 281 178 356 172 319 b 222 144 172 225 189 179 b 361 90 256 108 302 90 b 465 113 399 90 434 98 b 547 176 497 128 524 149 b 599 268 569 202 587 233 b 618 379 612 303 618 340 m 382 783 l 556 983 l 710 983 l 485 783 "},"ô":{"ha":833,"x_min":0,"x_max":0,"o":"m 354 -18 b 229 3 309 -18 267 -11 b 131 62 191 17 158 36 b 65 153 103 87 81 118 b 42 269 50 188 42 227 b 70 425 42 324 51 376 b 151 555 89 474 116 517 b 276 644 185 592 227 622 b 438 676 324 666 378 676 b 563 656 483 676 525 669 b 661 597 600 642 633 622 b 726 508 689 572 710 542 b 749 392 741 473 749 434 b 720 234 749 336 739 284 b 640 103 701 184 674 141 b 515 15 605 66 563 36 b 354 -18 467 -7 413 -18 m 618 379 b 605 454 618 406 614 431 b 567 515 596 477 584 497 b 508 555 551 532 531 545 b 429 569 484 565 458 569 b 325 546 391 569 356 562 b 244 483 294 530 266 509 b 191 391 221 456 203 426 b 172 281 178 356 172 319 b 222 144 172 225 189 179 b 361 90 256 108 302 90 b 465 113 399 90 434 98 b 547 176 497 128 524 149 b 599 268 569 202 587 233 b 618 379 612 303 618 340 m 596 783 l 514 921 l 383 783 l 257 783 l 449 983 l 596 983 l 715 783 "},"õ":{"ha":833,"x_min":0,"x_max":0,"o":"m 354 -18 b 229 3 309 -18 267 -11 b 131 62 191 17 158 36 b 65 153 103 87 81 118 b 42 269 50 188 42 227 b 70 425 42 324 51 376 b 151 555 89 474 116 517 b 276 644 185 592 227 622 b 438 676 324 666 378 676 b 563 656 483 676 525 669 b 661 597 600 642 633 622 b 726 508 689 572 710 542 b 749 392 741 473 749 434 b 720 234 749 336 739 284 b 640 103 701 184 674 141 b 515 15 605 66 563 36 b 354 -18 467 -7 413 -18 m 618 379 b 605 454 618 406 614 431 b 567 515 596 477 584 497 b 508 555 551 532 531 545 b 429 569 484 565 458 569 b 325 546 391 569 356 562 b 244 483 294 530 266 509 b 191 391 221 456 203 426 b 172 281 178 356 172 319 b 222 144 172 225 189 179 b 361 90 256 108 302 90 b 465 113 399 90 434 98 b 547 176 497 128 524 149 b 599 268 569 202 587 233 b 618 379 612 303 618 340 m 229 794 b 254 853 236 815 244 834 b 290 904 264 872 276 889 b 337 940 303 919 319 931 b 400 954 355 950 376 954 b 452 946 419 954 436 951 b 500 925 468 940 484 933 b 546 905 516 918 531 911 b 588 896 561 899 575 896 b 635 917 607 896 623 903 b 664 961 647 931 656 945 l 740 961 b 715 902 733 941 724 921 b 679 851 705 883 693 866 b 631 815 665 837 649 825 b 569 801 613 806 593 801 b 521 810 553 801 537 804 b 474 829 505 815 489 822 b 427 851 458 838 442 845 b 383 860 412 857 397 860 b 335 839 363 860 347 853 b 306 794 323 825 313 810 l 229 794 "},"ö":{"ha":833,"x_min":0,"x_max":0,"o":"m 354 -18 b 229 3 309 -18 267 -11 b 131 62 191 17 158 36 b 65 153 103 87 81 118 b 42 269 50 188 42 227 b 70 425 42 324 51 376 b 151 555 89 474 116 517 b 276 644 185 592 227 622 b 438 676 324 666 378 676 b 563 656 483 676 525 669 b 661 597 600 642 633 622 b 726 508 689 572 710 542 b 749 392 741 473 749 434 b 720 234 749 336 739 284 b 640 103 701 184 674 141 b 515 15 605 66 563 36 b 354 -18 467 -7 413 -18 m 618 379 b 605 454 618 406 614 431 b 567 515 596 477 584 497 b 508 555 551 532 531 545 b 429 569 484 565 458 569 b 325 546 391 569 356 562 b 244 483 294 530 266 509 b 191 391 221 456 203 426 b 172 281 178 356 172 319 b 222 144 172 225 189 179 b 361 90 256 108 302 90 b 465 113 399 90 434 98 b 547 176 497 128 524 149 b 599 268 569 202 587 233 b 618 379 612 303 618 340 m 433 899 b 410 840 433 875 426 856 b 353 815 395 823 376 815 b 294 836 330 815 310 822 b 271 894 279 850 271 869 b 297 956 271 919 279 940 b 356 979 314 971 333 979 b 411 958 378 979 396 972 b 433 899 426 943 433 924 m 708 899 b 685 840 708 875 701 856 b 626 815 670 823 650 815 b 569 836 604 815 585 822 b 546 894 554 850 546 869 b 571 956 546 919 554 940 b 631 979 588 971 607 979 b 686 958 653 979 671 972 b 708 899 701 943 708 924 "},"÷":{"ha":925,"x_min":0,"x_max":0,"o":"m 97 364 l 97 478 l 828 478 l 828 364 m 553 183 b 527 120 553 159 544 138 b 463 93 510 102 488 93 b 398 120 437 93 415 102 b 372 183 381 138 372 159 b 398 247 372 207 381 228 b 463 274 415 265 437 274 b 527 247 488 274 510 265 b 553 183 544 228 553 207 m 553 651 b 527 588 553 627 544 606 b 463 561 510 570 488 561 b 398 588 437 561 415 570 b 372 651 381 606 372 627 b 398 715 372 675 381 697 b 463 742 415 733 437 742 b 527 715 488 742 510 733 b 553 651 544 697 553 675 "},"ø":{"ha":833,"x_min":0,"x_max":0,"o":"m 690 567 b 749 392 729 518 749 459 b 720 234 749 336 739 284 b 640 103 701 184 674 141 b 515 15 605 66 563 36 b 354 -18 467 -7 413 -18 b 239 -1 313 -18 274 -12 b 146 49 204 11 173 27 l 63 -32 l 8 21 l 94 103 b 56 178 78 125 65 150 b 42 269 46 207 42 237 b 70 425 42 324 51 376 b 151 555 89 474 116 517 b 276 644 185 592 227 622 b 438 676 324 666 378 676 b 636 618 515 676 581 657 l 715 693 l 765 639 l 690 567 m 235 132 b 361 90 268 104 310 90 b 465 113 399 90 434 98 b 547 176 497 128 524 149 b 599 268 569 202 587 233 b 618 379 612 303 618 340 b 594 476 618 415 610 448 l 235 132 m 547 533 b 494 560 531 544 514 553 b 429 569 475 566 453 569 b 325 546 391 569 356 562 b 244 483 294 530 266 509 b 191 391 221 456 203 426 b 172 281 178 356 172 319 b 190 193 172 246 178 217 l 547 533 "},"ù":{"ha":807,"x_min":0,"x_max":0,"o":"m 489 0 b 496 52 491 13 493 30 b 503 107 499 74 501 92 l 500 107 b 408 16 476 69 445 39 b 281 -18 370 -7 328 -18 b 116 40 208 -18 153 1 b 60 186 78 78 60 127 b 62 218 60 196 60 207 b 67 251 63 229 65 240 l 139 658 l 267 658 l 203 296 b 198 258 201 283 199 270 b 196 221 197 245 196 233 b 224 128 196 183 205 152 b 322 92 242 104 275 92 b 458 151 374 92 419 111 b 532 308 496 190 521 243 l 594 658 l 722 658 l 632 143 b 620 75 628 125 624 103 b 611 0 616 47 613 22 l 489 0 m 378 983 l 517 783 l 415 783 l 225 983 "},"ú":{"ha":807,"x_min":0,"x_max":0,"o":"m 489 0 b 496 52 491 13 493 30 b 503 107 499 74 501 92 l 500 107 b 408 16 476 69 445 39 b 281 -18 370 -7 328 -18 b 116 40 208 -18 153 1 b 60 186 78 78 60 127 b 62 218 60 196 60 207 b 67 251 63 229 65 240 l 139 658 l 267 658 l 203 296 b 198 258 201 283 199 270 b 196 221 197 245 196 233 b 224 128 196 183 205 152 b 322 92 242 104 275 92 b 458 151 374 92 419 111 b 532 308 496 190 521 243 l 594 658 l 722 658 l 632 143 b 620 75 628 125 624 103 b 611 0 616 47 613 22 l 489 0 m 375 783 l 549 983 l 703 983 l 478 783 "},"û":{"ha":807,"x_min":0,"x_max":0,"o":"m 489 0 b 496 52 491 13 493 30 b 503 107 499 74 501 92 l 500 107 b 408 16 476 69 445 39 b 281 -18 370 -7 328 -18 b 116 40 208 -18 153 1 b 60 186 78 78 60 127 b 62 218 60 196 60 207 b 67 251 63 229 65 240 l 139 658 l 267 658 l 203 296 b 198 258 201 283 199 270 b 196 221 197 245 196 233 b 224 128 196 183 205 152 b 322 92 242 104 275 92 b 458 151 374 92 419 111 b 532 308 496 190 521 243 l 594 658 l 722 658 l 632 143 b 620 75 628 125 624 103 b 611 0 616 47 613 22 l 489 0 m 561 783 l 479 921 l 349 783 l 222 783 l 414 983 l 561 983 l 681 783 "},"ü":{"ha":807,"x_min":0,"x_max":0,"o":"m 489 0 b 496 52 491 13 493 30 b 503 107 499 74 501 92 l 500 107 b 408 16 476 69 445 39 b 281 -18 370 -7 328 -18 b 116 40 208 -18 153 1 b 60 186 78 78 60 127 b 62 218 60 196 60 207 b 67 251 63 229 65 240 l 139 658 l 267 658 l 203 296 b 198 258 201 283 199 270 b 196 221 197 245 196 233 b 224 128 196 183 205 152 b 322 92 242 104 275 92 b 458 151 374 92 419 111 b 532 308 496 190 521 243 l 594 658 l 722 658 l 632 143 b 620 75 628 125 624 103 b 611 0 616 47 613 22 l 489 0 m 413 899 b 390 840 413 875 405 856 b 332 815 374 823 355 815 b 274 836 309 815 289 822 b 250 894 258 850 250 869 b 276 956 250 919 259 940 b 335 979 293 971 313 979 b 390 958 357 979 375 972 b 413 899 405 943 413 924 m 688 899 b 665 840 688 875 680 856 b 606 815 649 823 630 815 b 549 836 583 815 564 822 b 525 894 533 850 525 869 b 550 956 525 919 533 940 b 610 979 567 971 587 979 b 665 958 632 979 650 972 b 688 899 680 943 688 924 "},"ý":{"ha":688,"x_min":0,"x_max":0,"o":"m 290 140 l 582 658 l 721 658 l 239 -156 b 190 -230 222 -183 206 -208 b 139 -285 175 -252 157 -270 b 78 -321 120 -301 100 -312 b 3 -333 56 -329 31 -333 b -79 -324 -26 -333 -53 -330 l -61 -210 b 0 -221 -41 -217 -20 -221 b 74 -192 30 -221 54 -211 b 135 -111 93 -173 113 -146 l 200 0 l 56 658 l 193 658 l 288 140 m 325 783 l 499 983 l 653 983 l 428 783 "},"þ":{"ha":879,"x_min":0,"x_max":0,"o":"m 267 553 b 365 640 290 588 323 617 b 506 675 408 663 455 675 b 624 654 549 675 588 668 b 714 596 659 640 689 621 b 772 506 739 571 758 541 b 793 390 786 472 793 433 b 765 231 793 334 784 281 b 686 101 746 182 719 138 b 567 14 653 64 613 35 b 418 -18 522 -7 472 -18 b 278 15 364 -18 318 -7 b 189 107 239 38 209 68 l 186 107 l 110 -333 l -19 -333 l 224 1050 l 353 1050 l 264 553 l 267 553 m 660 378 b 613 513 660 431 644 477 b 476 568 581 550 536 568 b 374 545 440 568 406 560 b 291 483 342 530 315 509 b 235 390 267 456 249 425 b 215 279 222 355 215 318 b 228 202 215 251 220 226 b 267 142 237 178 250 158 b 327 102 283 125 303 112 b 406 88 351 92 377 88 b 510 110 444 88 478 95 b 590 172 541 126 568 146 b 642 264 613 198 630 229 b 660 378 654 299 660 337 "},"ÿ":{"ha":688,"x_min":0,"x_max":0,"o":"m 290 140 l 582 658 l 721 658 l 239 -156 b 190 -230 222 -183 206 -208 b 139 -285 175 -252 157 -270 b 78 -321 120 -301 100 -312 b 3 -333 56 -329 31 -333 b -79 -324 -26 -333 -53 -330 l -61 -210 b 0 -221 -41 -217 -20 -221 b 74 -192 30 -221 54 -211 b 135 -111 93 -173 113 -146 l 200 0 l 56 658 l 193 658 l 288 140 m 365 899 b 342 840 365 875 358 856 b 285 815 327 823 308 815 b 226 836 262 815 242 822 b 203 894 211 850 203 869 b 228 956 203 919 211 940 b 288 979 246 971 265 979 b 343 958 310 979 328 972 b 365 899 358 943 365 924 m 640 899 b 617 840 640 875 633 856 b 558 815 602 823 582 815 b 501 836 536 815 517 822 b 478 894 486 850 478 869 b 503 956 478 919 486 940 b 563 979 519 971 539 979 b 618 958 585 979 603 972 b 640 899 633 943 640 924 "},"¤":{"ha":826,"x_min":0,"x_max":0,"o":"m 682 583 b 726 494 701 556 716 527 b 742 388 737 462 742 426 b 724 278 742 349 736 312 b 679 186 713 244 698 213 l 796 68 l 725 -4 l 604 114 b 517 71 578 95 549 81 b 411 56 484 61 449 56 b 308 72 376 56 342 61 b 218 117 275 83 245 98 l 96 -4 l 24 68 l 143 190 b 100 280 125 216 111 246 b 83 388 89 314 83 350 b 98 493 83 426 88 462 b 139 581 108 525 121 554 l 24 697 l 96 768 l 213 654 b 303 699 239 673 270 688 b 411 717 337 711 373 717 b 519 699 450 717 486 711 b 608 654 553 688 582 673 l 724 768 l 796 697 l 682 583 m 411 607 b 324 590 379 607 350 601 b 257 542 298 578 275 562 b 215 473 238 522 224 499 b 200 388 205 447 200 418 b 215 302 200 357 205 328 b 257 232 224 276 238 252 b 324 184 275 212 298 196 b 411 167 350 172 379 167 b 499 184 444 167 473 172 b 567 232 526 196 548 212 b 609 302 585 252 599 276 b 624 388 619 328 624 357 b 609 473 624 418 619 447 b 567 542 599 499 585 522 b 499 590 548 562 526 578 b 411 607 473 601 444 607 "},"¦":{"ha":308,"x_min":0,"x_max":0,"o":"m 211 451 l 97 451 l 97 938 l 211 938 m 211 -243 l 97 -243 l 97 243 l 211 243 "},"¨":{"ha":347,"x_min":0,"x_max":0,"o":"m 199 899 b 176 840 199 875 191 856 b 118 815 160 823 141 815 b 60 836 95 815 75 822 b 36 894 44 850 36 869 b 62 956 36 919 45 940 b 121 979 79 971 99 979 b 176 958 143 979 162 972 b 199 899 191 943 199 924 m 474 899 b 451 840 474 875 466 856 b 392 815 435 823 416 815 b 335 836 369 815 350 822 b 311 894 319 850 311 869 b 336 956 311 919 319 940 b 396 979 353 971 373 979 b 451 958 418 979 437 972 b 474 899 466 943 474 924 "},"´":{"ha":347,"x_min":0,"x_max":0,"o":"m 161 783 l 335 983 l 489 983 l 264 783 "},"¸":{"ha":347,"x_min":0,"x_max":0,"o":"m 75 -97 b 94 -94 82 -95 89 -94 b 111 -93 100 -93 106 -93 b 149 -98 123 -93 136 -95 b 186 -115 163 -101 175 -107 b 214 -145 197 -122 206 -133 b 225 -192 221 -158 225 -173 b 207 -256 225 -217 219 -238 b 162 -297 195 -273 180 -287 b 103 -319 144 -307 124 -315 b 42 -326 81 -324 61 -326 b -35 -318 18 -326 -8 -324 b -103 -294 -62 -312 -84 -305 l -69 -236 b -19 -253 -54 -244 -37 -249 b 36 -260 -1 -258 18 -260 b 65 -257 45 -260 55 -259 b 94 -248 75 -255 85 -252 b 117 -230 104 -244 111 -238 b 126 -200 123 -222 126 -212 b 106 -160 126 -181 120 -167 b 60 -149 93 -152 77 -149 b 31 -151 50 -149 41 -150 b 1 -158 20 -153 11 -156 l -22 -131 l 88 0 l 157 0 l 75 -97 "},"¼":{"ha":1208,"x_min":0,"x_max":0,"o":"m 986 131 l 964 0 l 865 0 l 889 129 l 622 129 l 636 214 l 944 592 l 1063 592 l 997 219 l 1085 219 l 1068 131 m 746 218 l 900 218 l 944 458 l 939 458 m 169 1 l 953 1028 l 1026 982 l 244 -44 m 229 392 l 311 854 l 201 772 l 151 843 l 349 983 l 440 983 l 336 392 "},"½":{"ha":1208,"x_min":0,"x_max":0,"o":"m 1122 444 b 1114 385 1122 422 1119 402 b 1089 335 1108 367 1100 350 b 1047 288 1078 319 1064 303 b 988 238 1029 273 1010 256 l 806 93 l 1071 93 l 1053 0 l 664 0 l 681 94 l 938 308 b 1005 377 969 334 991 357 b 1025 438 1018 397 1025 417 b 1002 493 1025 462 1017 480 b 939 513 987 506 966 513 b 874 488 912 513 890 504 b 835 422 857 472 844 450 l 742 447 b 821 560 758 496 785 534 b 944 599 857 586 898 599 b 1075 557 1000 599 1044 585 b 1122 444 1106 529 1122 492 m 169 1 l 953 1028 l 1026 982 l 244 -44 m 229 392 l 311 854 l 201 772 l 151 843 l 349 983 l 440 983 l 336 392 "},"¾":{"ha":1208,"x_min":0,"x_max":0,"o":"m 986 131 l 964 0 l 865 0 l 889 129 l 622 129 l 636 214 l 944 592 l 1063 592 l 997 219 l 1085 219 l 1068 131 m 746 218 l 900 218 l 944 458 l 939 458 m 169 1 l 953 1028 l 1026 982 l 244 -44 m 504 850 b 469 753 504 809 493 777 b 388 706 446 729 419 713 b 455 660 415 698 438 683 b 481 585 472 638 481 613 b 464 500 481 552 475 524 b 419 439 453 476 438 456 b 351 401 400 422 377 410 b 268 389 325 393 298 389 b 143 424 218 389 176 401 b 72 521 110 448 86 480 l 169 551 b 206 497 177 526 189 508 b 268 479 223 485 244 479 b 350 506 303 479 331 488 b 379 575 369 523 379 546 b 343 644 379 607 367 631 b 258 665 319 658 291 665 l 228 665 l 242 746 l 272 746 b 372 772 318 746 351 754 b 404 846 394 789 404 813 b 383 897 404 868 397 885 b 329 914 369 908 351 914 b 269 899 305 914 285 909 b 226 847 254 888 239 871 l 149 894 b 229 975 170 931 197 957 b 338 1001 262 993 298 1001 b 459 958 388 1001 429 987 b 504 850 489 928 504 893 "},"Ā":{"ha":946,"x_min":0,"x_max":0,"o":"m -94 0 l 543 983 l 667 983 l 867 0 l 724 0 l 676 242 l 215 242 l 65 0 m 657 363 l 574 829 l 286 363 m 417 1107 l 432 1199 l 842 1199 l 825 1107 "},"ā":{"ha":746,"x_min":0,"x_max":0,"o":"m 514 411 b 518 442 516 424 517 434 b 519 463 519 449 519 456 b 483 547 519 501 507 529 b 381 572 459 564 425 572 b 275 551 345 572 310 565 b 183 500 240 538 209 520 l 131 586 b 254 652 166 614 207 636 b 399 676 301 668 350 676 b 490 666 430 676 460 673 b 567 633 519 659 545 648 b 622 572 590 617 608 597 b 643 482 636 547 643 517 b 642 449 643 474 643 463 b 638 415 641 436 639 425 l 589 149 b 578 69 584 123 581 96 b 574 0 575 41 574 19 l 456 0 b 458 44 456 14 456 29 b 464 92 459 60 461 76 l 461 92 b 358 11 430 55 395 28 b 228 -14 321 -6 278 -14 b 158 -6 206 -14 182 -11 b 92 23 134 0 112 9 b 43 76 72 36 56 54 b 24 160 30 99 24 126 b 68 290 24 213 38 257 b 183 366 98 322 136 348 b 340 402 229 384 282 396 b 514 411 399 408 456 411 m 479 317 b 367 312 443 317 406 315 b 260 292 328 309 292 302 b 182 250 228 283 202 269 b 151 178 162 231 151 207 b 162 133 151 159 155 144 b 190 104 169 121 178 112 b 228 89 201 97 214 92 b 272 85 243 86 257 85 b 353 99 301 85 328 90 b 418 139 378 109 400 122 b 465 197 437 156 452 175 b 490 268 477 219 486 243 l 500 317 l 479 317 m 226 829 l 242 921 l 651 921 l 635 829 "},"Ă":{"ha":946,"x_min":0,"x_max":0,"o":"m -94 0 l 543 983 l 667 983 l 867 0 l 724 0 l 676 242 l 215 242 l 65 0 m 657 363 l 574 829 l 286 363 m 858 1261 b 773 1119 845 1200 817 1153 b 615 1069 729 1086 676 1069 b 471 1116 554 1069 506 1085 b 418 1261 436 1147 418 1195 l 496 1261 b 506 1214 496 1243 499 1227 b 532 1183 512 1201 521 1191 b 572 1166 543 1175 556 1169 b 621 1161 587 1163 603 1161 b 723 1183 660 1161 694 1168 b 782 1261 752 1197 772 1223 l 858 1261 "},"ă":{"ha":746,"x_min":0,"x_max":0,"o":"m 514 411 b 518 442 516 424 517 434 b 519 463 519 449 519 456 b 483 547 519 501 507 529 b 381 572 459 564 425 572 b 275 551 345 572 310 565 b 183 500 240 538 209 520 l 131 586 b 254 652 166 614 207 636 b 399 676 301 668 350 676 b 490 666 430 676 460 673 b 567 633 519 659 545 648 b 622 572 590 617 608 597 b 643 482 636 547 643 517 b 642 449 643 474 643 463 b 638 415 641 436 639 425 l 589 149 b 578 69 584 123 581 96 b 574 0 575 41 574 19 l 456 0 b 458 44 456 14 456 29 b 464 92 459 60 461 76 l 461 92 b 358 11 430 55 395 28 b 228 -14 321 -6 278 -14 b 158 -6 206 -14 182 -11 b 92 23 134 0 112 9 b 43 76 72 36 56 54 b 24 160 30 99 24 126 b 68 290 24 213 38 257 b 183 366 98 322 136 348 b 340 402 229 384 282 396 b 514 411 399 408 456 411 m 479 317 b 367 312 443 317 406 315 b 260 292 328 309 292 302 b 182 250 228 283 202 269 b 151 178 162 231 151 207 b 162 133 151 159 155 144 b 190 104 169 121 178 112 b 228 89 201 97 214 92 b 272 85 243 86 257 85 b 353 99 301 85 328 90 b 418 139 378 109 400 122 b 465 197 437 156 452 175 b 490 268 477 219 486 243 l 500 317 l 479 317 m 664 983 b 578 842 651 922 622 875 b 421 792 534 808 482 792 b 276 838 360 792 312 807 b 224 983 241 869 224 918 l 301 983 b 311 936 301 965 305 949 b 338 905 318 923 326 913 b 377 888 349 897 362 891 b 426 883 392 885 409 883 b 528 905 465 883 499 891 b 588 983 558 919 577 945 l 664 983 "},"Ą":{"ha":946,"x_min":0,"x_max":0,"o":"m 813 -265 b 746 -303 791 -281 769 -294 b 675 -317 723 -312 699 -317 b 593 -291 643 -317 615 -308 b 560 -212 571 -274 560 -248 b 575 -149 560 -190 565 -169 b 615 -90 585 -128 598 -109 b 667 -40 631 -72 648 -55 b 722 3 686 -24 705 -10 l 676 242 l 215 242 l 65 0 l -94 0 l 543 983 l 667 983 l 867 0 l 794 0 b 743 -45 777 -15 760 -30 b 699 -92 726 -60 712 -76 b 669 -139 687 -107 677 -123 b 658 -185 662 -155 658 -170 b 675 -223 658 -203 664 -216 b 715 -233 686 -230 700 -233 b 793 -204 743 -233 769 -224 l 813 -265 m 657 363 l 574 829 l 286 363 "},"ą":{"ha":746,"x_min":0,"x_max":0,"o":"m 544 -265 b 478 -303 523 -281 501 -294 b 407 -317 455 -312 431 -317 b 325 -291 375 -317 347 -308 b 292 -212 303 -274 292 -248 b 308 -148 292 -190 297 -169 b 347 -90 318 -127 331 -108 b 400 -39 363 -72 381 -55 b 456 3 419 -23 438 -9 b 464 92 456 32 458 62 l 461 92 b 358 11 430 55 395 28 b 228 -14 321 -6 278 -14 b 158 -6 206 -14 182 -11 b 92 23 134 0 112 9 b 43 76 72 36 56 54 b 24 160 30 99 24 126 b 68 290 24 213 38 257 b 183 366 98 322 136 348 b 340 402 229 384 282 396 b 514 411 399 408 456 411 b 518 442 516 424 517 434 b 519 463 519 449 519 456 b 483 547 519 501 507 529 b 381 572 459 564 425 572 b 275 551 345 572 310 565 b 183 500 240 538 209 520 l 131 586 b 254 652 166 614 207 636 b 399 676 301 668 350 676 b 490 666 430 676 460 673 b 567 633 519 659 545 648 b 622 572 590 617 608 597 b 643 482 636 547 643 517 b 642 449 643 474 643 463 b 638 415 641 436 639 425 l 589 149 b 578 69 584 123 581 96 b 574 0 575 41 574 19 l 526 0 b 475 -45 509 -15 492 -30 b 431 -92 458 -60 444 -76 b 401 -139 419 -107 409 -123 b 390 -185 394 -155 390 -170 b 407 -223 390 -203 396 -216 b 447 -233 418 -230 431 -233 b 525 -204 475 -233 501 -224 l 544 -265 m 479 317 b 367 312 443 317 406 315 b 260 292 328 309 292 302 b 182 250 228 283 202 269 b 151 178 162 231 151 207 b 162 133 151 159 155 144 b 190 104 169 121 178 112 b 228 89 201 97 214 92 b 272 85 243 86 257 85 b 353 99 301 85 328 90 b 418 139 378 109 400 122 b 465 197 437 156 452 175 b 490 268 477 219 486 243 l 500 317 l 479 317 "},"Ć":{"ha":972,"x_min":0,"x_max":0,"o":"m 906 154 b 838 84 886 129 863 106 b 750 27 812 62 782 43 b 642 -11 718 11 682 -2 b 514 -25 603 -20 560 -25 b 334 6 448 -25 388 -15 b 195 92 280 26 234 55 b 106 225 157 129 127 173 b 74 397 84 277 74 334 b 119 636 74 482 89 562 b 243 830 149 710 190 775 b 428 960 296 885 358 928 b 657 1008 499 992 575 1008 b 762 997 693 1008 728 1005 b 856 966 796 990 827 979 b 933 918 884 953 910 937 b 989 856 956 900 975 879 l 876 774 b 846 815 869 788 859 801 b 798 853 833 829 817 842 b 733 881 779 865 757 874 b 653 892 709 888 682 892 b 476 851 589 892 530 878 b 338 743 423 823 376 788 b 247 590 299 699 269 648 b 215 414 226 533 215 474 b 235 289 215 369 222 328 b 295 187 249 250 269 216 b 393 118 322 158 354 135 b 526 93 432 101 476 93 b 682 126 581 93 633 104 b 814 231 731 149 775 183 l 906 154 m 574 1061 l 747 1261 l 901 1261 l 676 1061 "},"ć":{"ha":689,"x_min":0,"x_max":0,"o":"m 582 490 b 526 547 571 513 552 531 b 438 569 499 562 470 569 b 333 547 400 569 365 562 b 250 484 301 531 273 510 b 196 392 227 458 209 427 b 176 282 183 358 176 321 b 188 207 176 255 180 230 b 224 147 196 184 208 164 b 283 106 239 129 259 116 b 365 90 306 95 334 90 b 471 113 407 90 442 98 b 546 169 500 127 525 146 l 624 97 b 506 13 588 62 549 34 b 357 -18 463 -8 413 -18 b 228 3 310 -18 267 -11 b 131 61 190 17 157 36 b 68 151 104 86 83 116 b 46 267 53 185 46 224 b 74 423 46 321 55 373 b 155 553 93 472 120 516 b 281 643 190 591 231 621 b 444 676 330 665 384 676 b 516 669 469 676 492 674 b 583 649 540 665 562 658 b 640 615 603 641 622 629 b 682 565 657 601 671 585 l 582 490 m 368 783 l 542 983 l 696 983 l 471 783 "},"Ĉ":{"ha":972,"x_min":0,"x_max":0,"o":"m 906 154 b 838 84 886 129 863 106 b 750 27 812 62 782 43 b 642 -11 718 11 682 -2 b 514 -25 603 -20 560 -25 b 334 6 448 -25 388 -15 b 195 92 280 26 234 55 b 106 225 157 129 127 173 b 74 397 84 277 74 334 b 119 636 74 482 89 562 b 243 830 149 710 190 775 b 428 960 296 885 358 928 b 657 1008 499 992 575 1008 b 762 997 693 1008 728 1005 b 856 966 796 990 827 979 b 933 918 884 953 910 937 b 989 856 956 900 975 879 l 876 774 b 846 815 869 788 859 801 b 798 853 833 829 817 842 b 733 881 779 865 757 874 b 653 892 709 888 682 892 b 476 851 589 892 530 878 b 338 743 423 823 376 788 b 247 590 299 699 269 648 b 215 414 226 533 215 474 b 235 289 215 369 222 328 b 295 187 249 250 269 216 b 393 118 322 158 354 135 b 526 93 432 101 476 93 b 682 126 581 93 633 104 b 814 231 731 149 775 183 l 906 154 m 801 1061 l 719 1199 l 589 1061 l 463 1061 l 654 1261 l 801 1261 l 921 1061 "},"ĉ":{"ha":689,"x_min":0,"x_max":0,"o":"m 582 490 b 526 547 571 513 552 531 b 438 569 499 562 470 569 b 333 547 400 569 365 562 b 250 484 301 531 273 510 b 196 392 227 458 209 427 b 176 282 183 358 176 321 b 188 207 176 255 180 230 b 224 147 196 184 208 164 b 283 106 239 129 259 116 b 365 90 306 95 334 90 b 471 113 407 90 442 98 b 546 169 500 127 525 146 l 624 97 b 506 13 588 62 549 34 b 357 -18 463 -8 413 -18 b 228 3 310 -18 267 -11 b 131 61 190 17 157 36 b 68 151 104 86 83 116 b 46 267 53 185 46 224 b 74 423 46 321 55 373 b 155 553 93 472 120 516 b 281 643 190 591 231 621 b 444 676 330 665 384 676 b 516 669 469 676 492 674 b 583 649 540 665 562 658 b 640 615 603 641 622 629 b 682 565 657 601 671 585 l 582 490 m 593 783 l 511 921 l 381 783 l 254 783 l 446 983 l 593 983 l 713 783 "},"Ċ":{"ha":972,"x_min":0,"x_max":0,"o":"m 906 154 b 838 84 886 129 863 106 b 750 27 812 62 782 43 b 642 -11 718 11 682 -2 b 514 -25 603 -20 560 -25 b 334 6 448 -25 388 -15 b 195 92 280 26 234 55 b 106 225 157 129 127 173 b 74 397 84 277 74 334 b 119 636 74 482 89 562 b 243 830 149 710 190 775 b 428 960 296 885 358 928 b 657 1008 499 992 575 1008 b 762 997 693 1008 728 1005 b 856 966 796 990 827 979 b 933 918 884 953 910 937 b 989 856 956 900 975 879 l 876 774 b 846 815 869 788 859 801 b 798 853 833 829 817 842 b 733 881 779 865 757 874 b 653 892 709 888 682 892 b 476 851 589 892 530 878 b 338 743 423 823 376 788 b 247 590 299 699 269 648 b 215 414 226 533 215 474 b 235 289 215 369 222 328 b 295 187 249 250 269 216 b 393 118 322 158 354 135 b 526 93 432 101 476 93 b 682 126 581 93 633 104 b 814 231 731 149 775 183 l 906 154 m 779 1176 b 756 1117 779 1153 771 1133 b 697 1092 740 1100 720 1092 b 640 1113 675 1092 656 1099 b 615 1171 623 1126 615 1146 b 641 1233 615 1196 624 1216 b 700 1257 658 1249 678 1257 b 756 1235 722 1257 741 1250 b 779 1176 772 1220 779 1200 "},"ċ":{"ha":689,"x_min":0,"x_max":0,"o":"m 582 490 b 526 547 571 513 552 531 b 438 569 499 562 470 569 b 333 547 400 569 365 562 b 250 484 301 531 273 510 b 196 392 227 458 209 427 b 176 282 183 358 176 321 b 188 207 176 255 180 230 b 224 147 196 184 208 164 b 283 106 239 129 259 116 b 365 90 306 95 334 90 b 471 113 407 90 442 98 b 546 169 500 127 525 146 l 624 97 b 506 13 588 62 549 34 b 357 -18 463 -8 413 -18 b 228 3 310 -18 267 -11 b 131 61 190 17 157 36 b 68 151 104 86 83 116 b 46 267 53 185 46 224 b 74 423 46 321 55 373 b 155 553 93 472 120 516 b 281 643 190 591 231 621 b 444 676 330 665 384 676 b 516 669 469 676 492 674 b 583 649 540 665 562 658 b 640 615 603 641 622 629 b 682 565 657 601 671 585 l 582 490 m 572 899 b 549 839 572 875 564 856 b 490 814 533 822 513 814 b 433 835 468 814 449 821 b 408 893 416 849 408 868 b 434 955 408 918 417 939 b 493 979 451 971 471 979 b 549 957 515 979 534 972 b 572 899 565 942 572 923 "},"Č":{"ha":972,"x_min":0,"x_max":0,"o":"m 906 154 b 838 84 886 129 863 106 b 750 27 812 62 782 43 b 642 -11 718 11 682 -2 b 514 -25 603 -20 560 -25 b 334 6 448 -25 388 -15 b 195 92 280 26 234 55 b 106 225 157 129 127 173 b 74 397 84 277 74 334 b 119 636 74 482 89 562 b 243 830 149 710 190 775 b 428 960 296 885 358 928 b 657 1008 499 992 575 1008 b 762 997 693 1008 728 1005 b 856 966 796 990 827 979 b 933 918 884 953 910 937 b 989 856 956 900 975 879 l 876 774 b 846 815 869 788 859 801 b 798 853 833 829 817 842 b 733 881 779 865 757 874 b 653 892 709 888 682 892 b 476 851 589 892 530 878 b 338 743 423 823 376 788 b 247 590 299 699 269 648 b 215 414 226 533 215 474 b 235 289 215 369 222 328 b 295 187 249 250 269 216 b 393 118 322 158 354 135 b 526 93 432 101 476 93 b 682 126 581 93 633 104 b 814 231 731 149 775 183 l 906 154 m 607 1061 l 488 1261 l 608 1261 l 689 1124 l 819 1261 l 944 1261 l 754 1061 "},"č":{"ha":689,"x_min":0,"x_max":0,"o":"m 582 490 b 526 547 571 513 552 531 b 438 569 499 562 470 569 b 333 547 400 569 365 562 b 250 484 301 531 273 510 b 196 392 227 458 209 427 b 176 282 183 358 176 321 b 188 207 176 255 180 230 b 224 147 196 184 208 164 b 283 106 239 129 259 116 b 365 90 306 95 334 90 b 471 113 407 90 442 98 b 546 169 500 127 525 146 l 624 97 b 506 13 588 62 549 34 b 357 -18 463 -8 413 -18 b 228 3 310 -18 267 -11 b 131 61 190 17 157 36 b 68 151 104 86 83 116 b 46 267 53 185 46 224 b 74 423 46 321 55 373 b 155 553 93 472 120 516 b 281 643 190 591 231 621 b 444 676 330 665 384 676 b 516 669 469 676 492 674 b 583 649 540 665 562 658 b 640 615 603 641 622 629 b 682 565 657 601 671 585 l 582 490 m 396 783 l 276 983 l 397 983 l 478 846 l 608 983 l 733 983 l 543 783 "},"Ď":{"ha":1051,"x_min":0,"x_max":0,"o":"m 536 983 b 701 960 592 983 647 976 b 849 888 756 945 805 921 b 954 760 892 855 927 813 b 994 572 981 708 994 645 b 949 338 994 486 979 408 b 824 157 919 267 877 207 b 633 41 770 107 706 68 b 394 0 560 14 481 0 l 44 0 l 218 983 m 401 119 b 597 156 475 119 541 132 b 738 254 653 181 700 213 b 823 394 775 295 804 341 b 851 556 842 446 851 500 b 831 676 851 598 844 638 b 767 774 817 713 796 746 b 659 842 739 803 703 825 b 503 867 615 858 563 867 l 332 867 l 200 119 m 500 1061 l 381 1261 l 501 1261 l 582 1124 l 713 1261 l 838 1261 l 647 1061 "},"ď":{"ha":872,"x_min":0,"x_max":0,"o":"m 42 268 b 69 427 42 325 51 378 b 147 557 88 477 114 520 b 266 644 181 594 220 623 b 417 676 312 666 362 676 b 556 643 470 676 517 665 b 646 550 596 621 625 590 l 649 550 l 736 1050 l 865 1050 l 679 0 l 554 0 l 572 106 l 569 106 b 469 17 545 69 512 40 b 329 -17 427 -5 380 -17 b 211 4 286 -17 246 -10 b 121 63 176 18 146 38 b 63 152 96 88 76 117 b 42 268 49 187 42 225 m 175 281 b 222 145 175 227 191 182 b 358 90 254 109 299 90 b 460 113 394 90 428 98 b 544 176 492 128 520 149 b 599 268 567 202 586 233 b 619 379 613 303 619 340 b 606 456 619 407 615 433 b 568 517 597 480 585 500 b 508 556 551 533 531 547 b 431 571 485 566 459 571 b 325 548 392 571 356 563 b 244 486 294 533 267 512 b 193 394 222 460 205 429 b 175 281 181 358 175 320 m 869 719 l 1014 983 l 1143 983 l 976 719 "},"Đ":{"ha":1051,"x_min":0,"x_max":0,"o":"m 536 983 b 701 960 592 983 647 976 b 849 888 756 945 805 921 b 954 760 892 855 927 813 b 994 572 981 708 994 645 b 949 338 994 486 979 408 b 824 157 919 267 877 207 b 633 41 770 107 706 68 b 394 0 560 14 481 0 l 44 0 l 126 467 l 35 467 l 53 563 l 144 563 l 218 983 m 401 119 b 597 156 475 119 541 132 b 738 254 653 181 700 213 b 823 394 775 295 804 341 b 851 556 842 446 851 500 b 831 676 851 598 844 638 b 767 774 817 713 796 746 b 659 842 739 803 703 825 b 503 867 615 858 563 867 l 332 867 l 278 563 l 597 563 l 578 467 l 261 467 l 200 119 "},"đ":{"ha":872,"x_min":0,"x_max":0,"o":"m 736 1050 l 865 1050 l 835 879 l 914 879 l 899 792 l 819 792 l 679 0 l 554 0 l 572 106 l 569 106 b 469 17 545 69 512 40 b 329 -17 427 -5 380 -17 b 211 4 286 -17 246 -10 b 121 63 176 18 146 38 b 63 152 96 88 76 117 b 42 268 49 187 42 225 b 69 427 42 325 51 378 b 147 557 88 477 114 520 b 266 644 181 594 220 623 b 417 676 312 666 362 676 b 556 643 470 676 517 665 b 646 550 596 621 625 590 l 649 550 l 690 792 l 464 792 l 479 879 l 706 879 m 175 281 b 222 145 175 227 191 182 b 358 90 254 109 299 90 b 460 113 394 90 428 98 b 544 176 492 128 520 149 b 599 268 567 202 586 233 b 619 379 613 303 619 340 b 606 456 619 407 615 433 b 568 517 597 480 585 500 b 508 556 551 533 531 547 b 431 571 485 566 459 571 b 325 548 392 571 356 563 b 244 486 294 533 267 512 b 193 394 222 460 205 429 b 175 281 181 358 175 320 "},"Ē":{"ha":808,"x_min":0,"x_max":0,"o":"m 710 121 l 689 0 l 44 0 l 218 983 l 824 983 l 803 864 l 331 864 l 279 567 l 729 567 l 708 451 l 258 451 l 200 121 m 332 1107 l 347 1199 l 757 1199 l 740 1107 "},"ē":{"ha":785,"x_min":0,"x_max":0,"o":"m 169 290 b 168 278 169 286 168 282 l 168 268 b 183 197 168 242 173 218 b 223 140 192 175 206 156 b 284 102 240 123 260 111 b 360 89 308 93 333 89 b 481 117 407 89 447 98 b 567 189 515 136 544 160 l 643 117 b 510 16 604 72 560 39 b 347 -18 460 -7 406 -18 b 226 1 304 -18 263 -12 b 128 58 188 14 156 33 b 65 150 101 83 80 114 b 42 274 49 186 42 227 b 71 429 42 328 51 380 b 151 558 90 478 117 521 b 274 644 186 594 226 623 b 426 676 321 666 372 676 b 626 608 511 676 577 653 b 700 415 675 562 700 498 b 697 359 700 402 699 384 b 686 290 694 334 691 312 l 169 290 m 576 385 b 578 406 577 391 578 398 b 579 426 579 413 579 420 b 538 533 579 469 565 504 b 417 575 510 561 469 575 b 331 558 385 575 356 569 b 262 515 305 547 282 533 b 212 454 242 498 225 477 b 183 385 198 431 189 408 l 576 385 m 265 829 l 281 921 l 690 921 l 674 829 "},"Ĕ":{"ha":808,"x_min":0,"x_max":0,"o":"m 710 121 l 689 0 l 44 0 l 218 983 l 824 983 l 803 864 l 331 864 l 279 567 l 729 567 l 708 451 l 258 451 l 200 121 m 781 1261 b 695 1119 768 1200 739 1153 b 538 1069 651 1086 599 1069 b 393 1116 476 1069 428 1085 b 340 1261 358 1147 340 1195 l 418 1261 b 428 1214 418 1243 421 1227 b 454 1183 434 1201 443 1191 b 494 1166 465 1175 478 1169 b 543 1161 509 1163 525 1161 b 645 1183 582 1161 616 1168 b 704 1261 674 1197 694 1223 l 781 1261 "},"ĕ":{"ha":785,"x_min":0,"x_max":0,"o":"m 169 290 b 168 278 169 286 168 282 l 168 268 b 183 197 168 242 173 218 b 223 140 192 175 206 156 b 284 102 240 123 260 111 b 360 89 308 93 333 89 b 481 117 407 89 447 98 b 567 189 515 136 544 160 l 643 117 b 510 16 604 72 560 39 b 347 -18 460 -7 406 -18 b 226 1 304 -18 263 -12 b 128 58 188 14 156 33 b 65 150 101 83 80 114 b 42 274 49 186 42 227 b 71 429 42 328 51 380 b 151 558 90 478 117 521 b 274 644 186 594 226 623 b 426 676 321 666 372 676 b 626 608 511 676 577 653 b 700 415 675 562 700 498 b 697 359 700 402 699 384 b 686 290 694 334 691 312 l 169 290 m 576 385 b 578 406 577 391 578 398 b 579 426 579 413 579 420 b 538 533 579 469 565 504 b 417 575 510 561 469 575 b 331 558 385 575 356 569 b 262 515 305 547 282 533 b 212 454 242 498 225 477 b 183 385 198 431 189 408 l 576 385 m 707 983 b 622 842 694 922 666 875 b 464 792 578 808 525 792 b 319 838 403 792 355 807 b 267 983 284 869 267 918 l 344 983 b 354 936 344 965 348 949 b 381 905 361 923 369 913 b 420 888 392 897 405 891 b 469 883 435 885 452 883 b 572 905 508 883 542 891 b 631 983 601 919 620 945 l 707 983 "},"Ė":{"ha":808,"x_min":0,"x_max":0,"o":"m 710 121 l 689 0 l 44 0 l 218 983 l 824 983 l 803 864 l 331 864 l 279 567 l 729 567 l 708 451 l 258 451 l 200 121 m 628 1176 b 604 1117 628 1153 620 1133 b 546 1092 588 1100 569 1092 b 488 1113 524 1092 504 1099 b 464 1171 472 1126 464 1146 b 490 1233 464 1196 472 1216 b 549 1257 507 1249 526 1257 b 605 1235 571 1257 590 1250 b 628 1176 620 1220 628 1200 "},"ė":{"ha":785,"x_min":0,"x_max":0,"o":"m 169 290 b 168 278 169 286 168 282 l 168 268 b 183 197 168 242 173 218 b 223 140 192 175 206 156 b 284 102 240 123 260 111 b 360 89 308 93 333 89 b 481 117 407 89 447 98 b 567 189 515 136 544 160 l 643 117 b 510 16 604 72 560 39 b 347 -18 460 -7 406 -18 b 226 1 304 -18 263 -12 b 128 58 188 14 156 33 b 65 150 101 83 80 114 b 42 274 49 186 42 227 b 71 429 42 328 51 380 b 151 558 90 478 117 521 b 274 644 186 594 226 623 b 426 676 321 666 372 676 b 626 608 511 676 577 653 b 700 415 675 562 700 498 b 697 359 700 402 699 384 b 686 290 694 334 691 312 l 169 290 m 576 385 b 578 406 577 391 578 398 b 579 426 579 413 579 420 b 538 533 579 469 565 504 b 417 575 510 561 469 575 b 331 558 385 575 356 569 b 262 515 305 547 282 533 b 212 454 242 498 225 477 b 183 385 198 431 189 408 l 576 385 m 560 899 b 536 839 560 875 552 856 b 478 814 520 822 501 814 b 420 835 456 814 436 821 b 396 893 404 849 396 868 b 422 955 396 918 404 939 b 481 979 439 971 458 979 b 537 957 503 979 522 972 b 560 899 552 942 560 923 "},"Ę":{"ha":808,"x_min":0,"x_max":0,"o":"m 681 -265 b 614 -303 659 -281 637 -294 b 543 -317 591 -312 567 -317 b 461 -291 511 -317 483 -308 b 428 -212 439 -274 428 -248 b 443 -150 428 -191 433 -170 b 481 -92 453 -130 466 -110 b 532 -42 497 -74 513 -58 b 586 0 550 -27 569 -13 l 44 0 l 218 983 l 824 983 l 803 864 l 331 864 l 279 567 l 729 567 l 708 451 l 258 451 l 200 121 l 710 121 l 689 0 l 663 0 b 611 -45 645 -15 628 -30 b 567 -92 594 -60 580 -76 b 538 -139 555 -107 545 -123 b 526 -185 530 -155 526 -170 b 543 -223 526 -203 532 -216 b 583 -233 554 -230 568 -233 b 661 -204 611 -233 637 -224 l 681 -265 "},"ę":{"ha":785,"x_min":0,"x_max":0,"o":"m 436 -265 b 369 -303 415 -281 393 -294 b 299 -317 346 -312 323 -317 b 217 -291 266 -317 239 -308 b 183 -212 194 -274 183 -248 b 195 -156 183 -193 187 -174 b 226 -104 203 -138 213 -121 b 270 -58 239 -87 254 -72 b 319 -17 286 -43 303 -30 b 208 9 279 -14 241 -5 b 120 67 174 23 145 43 b 63 156 96 92 76 122 b 42 274 49 191 42 230 b 71 429 42 328 51 380 b 151 558 90 478 117 521 b 274 644 186 594 226 623 b 426 676 321 666 372 676 b 626 608 511 676 577 653 b 700 415 675 562 700 498 b 697 359 700 402 699 384 b 686 290 694 334 691 312 l 169 290 b 168 278 169 286 168 282 l 168 268 b 183 197 168 242 173 218 b 223 140 192 175 206 156 b 284 102 240 123 260 111 b 360 89 308 93 333 89 b 481 117 407 89 447 98 b 567 189 515 136 544 160 l 643 117 b 533 28 611 79 574 49 b 401 -14 493 6 449 -7 b 317 -99 369 -42 341 -70 b 282 -185 294 -128 282 -157 b 299 -223 282 -203 288 -216 b 339 -233 310 -230 323 -233 b 417 -204 367 -233 393 -224 l 436 -265 m 576 385 b 578 406 577 391 578 398 b 579 426 579 413 579 420 b 538 533 579 469 565 504 b 417 575 510 561 469 575 b 331 558 385 575 356 569 b 262 515 305 547 282 533 b 212 454 242 498 225 477 b 183 385 198 431 189 408 l 576 385 "},"Ě":{"ha":808,"x_min":0,"x_max":0,"o":"m 710 121 l 689 0 l 44 0 l 218 983 l 824 983 l 803 864 l 331 864 l 279 567 l 729 567 l 708 451 l 258 451 l 200 121 m 460 1061 l 340 1261 l 461 1261 l 542 1124 l 672 1261 l 797 1261 l 607 1061 "},"ě":{"ha":785,"x_min":0,"x_max":0,"o":"m 169 290 b 168 278 169 286 168 282 l 168 268 b 183 197 168 242 173 218 b 223 140 192 175 206 156 b 284 102 240 123 260 111 b 360 89 308 93 333 89 b 481 117 407 89 447 98 b 567 189 515 136 544 160 l 643 117 b 510 16 604 72 560 39 b 347 -18 460 -7 406 -18 b 226 1 304 -18 263 -12 b 128 58 188 14 156 33 b 65 150 101 83 80 114 b 42 274 49 186 42 227 b 71 429 42 328 51 380 b 151 558 90 478 117 521 b 274 644 186 594 226 623 b 426 676 321 666 372 676 b 626 608 511 676 577 653 b 700 415 675 562 700 498 b 697 359 700 402 699 384 b 686 290 694 334 691 312 l 169 290 m 576 385 b 578 406 577 391 578 398 b 579 426 579 413 579 420 b 538 533 579 469 565 504 b 417 575 510 561 469 575 b 331 558 385 575 356 569 b 262 515 305 547 282 533 b 212 454 242 498 225 477 b 183 385 198 431 189 408 l 576 385 m 378 783 l 258 983 l 379 983 l 460 846 l 590 983 l 715 983 l 525 783 "},"Ĝ":{"ha":1049,"x_min":0,"x_max":0,"o":"m 538 93 b 765 146 629 94 705 112 l 814 421 l 592 421 l 614 538 l 967 538 l 883 61 b 710 -3 830 32 772 11 b 521 -25 649 -18 586 -25 b 338 6 454 -25 393 -15 b 197 92 283 26 236 55 b 106 225 157 129 127 173 b 74 397 84 277 74 334 b 119 636 74 482 89 562 b 243 830 149 710 190 775 b 428 960 296 885 358 928 b 657 1008 499 992 575 1008 b 856 969 729 1008 796 995 b 996 856 917 944 963 906 l 883 774 b 799 856 865 804 837 831 b 653 892 761 880 712 892 b 476 851 589 892 530 878 b 338 743 423 823 376 788 b 247 590 299 699 269 648 b 215 414 226 533 215 474 b 237 287 215 369 222 326 b 299 185 251 247 272 213 b 400 117 327 156 360 134 b 538 93 440 101 486 93 m 789 1061 l 707 1199 l 576 1061 l 450 1061 l 642 1261 l 789 1261 l 908 1061 "},"ĝ":{"ha":875,"x_min":0,"x_max":0,"o":"m 71 -115 b 167 -192 95 -148 127 -173 b 297 -221 208 -211 251 -221 b 408 -202 341 -221 378 -215 b 485 -151 439 -190 465 -172 b 535 -74 506 -129 523 -103 b 564 22 547 -44 556 -12 l 581 110 l 578 110 b 476 24 551 74 517 45 b 340 -7 436 3 390 -7 b 222 15 297 -7 257 0 b 132 74 187 29 157 49 b 74 164 107 99 88 129 b 54 279 61 199 54 238 b 82 433 54 334 63 385 b 160 560 100 481 126 524 b 278 645 193 596 232 624 b 428 676 323 666 373 676 b 568 643 481 676 528 665 b 654 551 608 621 637 590 l 658 551 l 676 658 l 801 658 l 692 32 b 655 -105 683 -15 671 -61 b 585 -222 639 -149 616 -188 b 470 -303 555 -255 517 -282 b 296 -333 423 -323 365 -333 b 122 -301 237 -333 178 -322 b -15 -208 65 -279 19 -248 l 71 -115 m 186 289 b 199 215 186 262 190 237 b 235 154 207 192 219 172 b 293 113 250 137 270 123 b 372 99 316 103 343 99 b 475 122 409 99 444 106 b 557 183 506 137 534 157 b 611 272 580 208 598 238 b 631 381 624 306 631 343 b 580 517 631 435 614 481 b 442 571 546 553 500 571 b 338 549 404 571 369 564 b 257 490 306 535 279 515 b 205 401 235 465 217 436 b 186 289 192 367 186 330 m 613 783 l 531 921 l 400 783 l 274 783 l 465 983 l 613 983 l 732 783 "},"Ğ":{"ha":1049,"x_min":0,"x_max":0,"o":"m 538 93 b 765 146 629 94 705 112 l 814 421 l 592 421 l 614 538 l 967 538 l 883 61 b 710 -3 830 32 772 11 b 521 -25 649 -18 586 -25 b 338 6 454 -25 393 -15 b 197 92 283 26 236 55 b 106 225 157 129 127 173 b 74 397 84 277 74 334 b 119 636 74 482 89 562 b 243 830 149 710 190 775 b 428 960 296 885 358 928 b 657 1008 499 992 575 1008 b 856 969 729 1008 796 995 b 996 856 917 944 963 906 l 883 774 b 799 856 865 804 837 831 b 653 892 761 880 712 892 b 476 851 589 892 530 878 b 338 743 423 823 376 788 b 247 590 299 699 269 648 b 215 414 226 533 215 474 b 237 287 215 369 222 326 b 299 185 251 247 272 213 b 400 117 327 156 360 134 b 538 93 440 101 486 93 m 917 1261 b 831 1119 904 1200 875 1153 b 674 1069 787 1086 735 1069 b 529 1116 613 1069 564 1085 b 476 1261 494 1147 476 1195 l 554 1261 b 564 1214 554 1243 557 1227 b 590 1183 570 1201 579 1191 b 630 1166 601 1175 615 1169 b 679 1161 645 1163 662 1161 b 781 1183 718 1161 752 1168 b 840 1261 810 1197 830 1223 l 917 1261 "},"ğ":{"ha":875,"x_min":0,"x_max":0,"o":"m 71 -115 b 167 -192 95 -148 127 -173 b 297 -221 208 -211 251 -221 b 408 -202 341 -221 378 -215 b 485 -151 439 -190 465 -172 b 535 -74 506 -129 523 -103 b 564 22 547 -44 556 -12 l 581 110 l 578 110 b 476 24 551 74 517 45 b 340 -7 436 3 390 -7 b 222 15 297 -7 257 0 b 132 74 187 29 157 49 b 74 164 107 99 88 129 b 54 279 61 199 54 238 b 82 433 54 334 63 385 b 160 560 100 481 126 524 b 278 645 193 596 232 624 b 428 676 323 666 373 676 b 568 643 481 676 528 665 b 654 551 608 621 637 590 l 658 551 l 676 658 l 801 658 l 692 32 b 655 -105 683 -15 671 -61 b 585 -222 639 -149 616 -188 b 470 -303 555 -255 517 -282 b 296 -333 423 -323 365 -333 b 122 -301 237 -333 178 -322 b -15 -208 65 -279 19 -248 l 71 -115 m 186 289 b 199 215 186 262 190 237 b 235 154 207 192 219 172 b 293 113 250 137 270 123 b 372 99 316 103 343 99 b 475 122 409 99 444 106 b 557 183 506 137 534 157 b 611 272 580 208 598 238 b 631 381 624 306 631 343 b 580 517 631 435 614 481 b 442 571 546 553 500 571 b 338 549 404 571 369 564 b 257 490 306 535 279 515 b 205 401 235 465 217 436 b 186 289 192 367 186 330 m 743 983 b 658 842 730 922 702 875 b 500 792 614 808 561 792 b 356 838 439 792 391 807 b 303 983 320 869 303 918 l 381 983 b 390 936 381 965 384 949 b 417 905 397 923 406 913 b 456 888 428 897 441 891 b 506 883 472 885 488 883 b 608 905 544 883 578 891 b 667 983 637 919 656 945 l 743 983 "},"Ġ":{"ha":1049,"x_min":0,"x_max":0,"o":"m 538 93 b 765 146 629 94 705 112 l 814 421 l 592 421 l 614 538 l 967 538 l 883 61 b 710 -3 830 32 772 11 b 521 -25 649 -18 586 -25 b 338 6 454 -25 393 -15 b 197 92 283 26 236 55 b 106 225 157 129 127 173 b 74 397 84 277 74 334 b 119 636 74 482 89 562 b 243 830 149 710 190 775 b 428 960 296 885 358 928 b 657 1008 499 992 575 1008 b 856 969 729 1008 796 995 b 996 856 917 944 963 906 l 883 774 b 799 856 865 804 837 831 b 653 892 761 880 712 892 b 476 851 589 892 530 878 b 338 743 423 823 376 788 b 247 590 299 699 269 648 b 215 414 226 533 215 474 b 237 287 215 369 222 326 b 299 185 251 247 272 213 b 400 117 327 156 360 134 b 538 93 440 101 486 93 m 778 1176 b 754 1117 778 1153 770 1133 b 696 1092 738 1100 719 1092 b 638 1113 674 1092 654 1099 b 614 1171 622 1126 614 1146 b 640 1233 614 1196 622 1216 b 699 1257 657 1249 676 1257 b 755 1235 721 1257 740 1250 b 778 1176 770 1220 778 1200 "},"ġ":{"ha":875,"x_min":0,"x_max":0,"o":"m 71 -115 b 167 -192 95 -148 127 -173 b 297 -221 208 -211 251 -221 b 408 -202 341 -221 378 -215 b 485 -151 439 -190 465 -172 b 535 -74 506 -129 523 -103 b 564 22 547 -44 556 -12 l 581 110 l 578 110 b 476 24 551 74 517 45 b 340 -7 436 3 390 -7 b 222 15 297 -7 257 0 b 132 74 187 29 157 49 b 74 164 107 99 88 129 b 54 279 61 199 54 238 b 82 433 54 334 63 385 b 160 560 100 481 126 524 b 278 645 193 596 232 624 b 428 676 323 666 373 676 b 568 643 481 676 528 665 b 654 551 608 621 637 590 l 658 551 l 676 658 l 801 658 l 692 32 b 655 -105 683 -15 671 -61 b 585 -222 639 -149 616 -188 b 470 -303 555 -255 517 -282 b 296 -333 423 -323 365 -333 b 122 -301 237 -333 178 -322 b -15 -208 65 -279 19 -248 l 71 -115 m 186 289 b 199 215 186 262 190 237 b 235 154 207 192 219 172 b 293 113 250 137 270 123 b 372 99 316 103 343 99 b 475 122 409 99 444 106 b 557 183 506 137 534 157 b 611 272 580 208 598 238 b 631 381 624 306 631 343 b 580 517 631 435 614 481 b 442 571 546 553 500 571 b 338 549 404 571 369 564 b 257 490 306 535 279 515 b 205 401 235 465 217 436 b 186 289 192 367 186 330 m 594 899 b 571 839 594 875 587 856 b 513 814 555 822 536 814 b 455 835 490 814 471 821 b 431 893 439 849 431 868 b 456 955 431 918 439 939 b 515 979 473 971 493 979 b 572 957 538 979 556 972 b 594 899 587 942 594 923 "},"Ģ":{"ha":1049,"x_min":0,"x_max":0,"o":"m 538 93 b 765 146 629 94 705 112 l 814 421 l 592 421 l 614 538 l 967 538 l 883 61 b 710 -3 830 32 772 11 b 521 -25 649 -18 586 -25 b 338 6 454 -25 393 -15 b 197 92 283 26 236 55 b 106 225 157 129 127 173 b 74 397 84 277 74 334 b 119 636 74 482 89 562 b 243 830 149 710 190 775 b 428 960 296 885 358 928 b 657 1008 499 992 575 1008 b 856 969 729 1008 796 995 b 996 856 917 944 963 906 l 883 774 b 799 856 865 804 837 831 b 653 892 761 880 712 892 b 476 851 589 892 530 878 b 338 743 423 823 376 788 b 247 590 299 699 269 648 b 215 414 226 533 215 474 b 237 287 215 369 222 326 b 299 185 251 247 272 213 b 400 117 327 156 360 134 b 538 93 440 101 486 93 m 301 -326 l 446 -62 l 575 -62 l 408 -326 "},"ģ":{"ha":875,"x_min":0,"x_max":0,"o":"m 71 -115 b 167 -192 95 -148 127 -173 b 297 -221 208 -211 251 -221 b 408 -202 341 -221 378 -215 b 485 -151 439 -190 465 -172 b 535 -74 506 -129 523 -103 b 564 22 547 -44 556 -12 l 581 110 l 578 110 b 476 24 551 74 517 45 b 340 -7 436 3 390 -7 b 222 15 297 -7 257 0 b 132 74 187 29 157 49 b 74 164 107 99 88 129 b 54 279 61 199 54 238 b 82 433 54 334 63 385 b 160 560 100 481 126 524 b 278 645 193 596 232 624 b 428 676 323 666 373 676 b 568 643 481 676 528 665 b 654 551 608 621 637 590 l 658 551 l 676 658 l 801 658 l 692 32 b 655 -105 683 -15 671 -61 b 585 -222 639 -149 616 -188 b 470 -303 555 -255 517 -282 b 296 -333 423 -323 365 -333 b 122 -301 237 -333 178 -322 b -15 -208 65 -279 19 -248 l 71 -115 m 186 289 b 199 215 186 262 190 237 b 235 154 207 192 219 172 b 293 113 250 137 270 123 b 372 99 316 103 343 99 b 475 122 409 99 444 106 b 557 183 506 137 534 157 b 611 272 580 208 598 238 b 631 381 624 306 631 343 b 580 517 631 435 614 481 b 442 571 546 553 500 571 b 338 549 404 571 369 564 b 257 490 306 535 279 515 b 205 401 235 465 217 436 b 186 289 192 367 186 330 m 682 1054 l 538 783 l 408 783 l 575 1054 "},"Ĥ":{"ha":999,"x_min":0,"x_max":0,"o":"m 354 983 l 281 571 l 767 571 l 840 983 l 976 983 l 803 0 l 667 0 l 746 451 l 260 451 l 181 0 l 44 0 l 218 983 m 717 1061 l 635 1199 l 504 1061 l 378 1061 l 569 1261 l 717 1261 l 836 1061 "},"ĥ":{"ha":807,"x_min":0,"x_max":0,"o":"m 482 676 b 646 619 554 676 609 657 b 701 474 683 580 701 532 b 696 407 701 450 700 428 l 624 0 l 494 0 l 558 364 b 567 438 564 389 567 413 b 539 531 567 475 557 506 b 439 567 520 555 487 567 b 303 508 386 567 341 547 b 229 349 266 468 241 415 l 168 0 l 39 0 l 224 1050 l 353 1050 l 267 558 l 269 558 b 356 642 291 592 320 620 b 482 676 393 665 435 676 m 646 1106 l 564 1243 l 433 1106 l 307 1106 l 499 1306 l 646 1306 l 765 1106 "},"Ħ":{"ha":999,"x_min":0,"x_max":0,"o":"m 354 983 l 318 782 l 804 782 l 840 983 l 976 983 l 803 0 l 667 0 l 746 451 l 260 451 l 181 0 l 44 0 l 218 983 m 789 694 l 303 694 l 281 571 l 767 571 "},"ħ":{"ha":807,"x_min":0,"x_max":0,"o":"m 224 1050 l 353 1050 l 322 879 l 542 879 l 526 792 l 307 792 l 267 558 l 269 558 b 356 642 291 592 320 620 b 482 676 393 665 435 676 b 646 619 554 676 609 657 b 701 474 683 580 701 532 b 696 407 701 450 700 428 l 624 0 l 494 0 l 558 364 b 567 438 564 389 567 413 b 539 531 567 475 557 506 b 439 567 520 555 487 567 b 303 508 386 567 341 547 b 229 349 266 468 241 415 l 168 0 l 39 0 l 178 792 l 93 792 l 108 879 l 193 879 "},"Ĩ":{"ha":376,"x_min":0,"x_max":0,"o":"m 44 0 l 218 983 l 354 983 l 181 0 m 54 1072 b 79 1131 61 1093 69 1112 b 115 1182 89 1150 101 1167 b 162 1218 128 1197 144 1209 b 225 1232 180 1227 201 1232 b 277 1224 244 1232 261 1229 b 325 1203 293 1218 309 1211 b 371 1183 341 1195 356 1189 b 413 1174 386 1177 400 1174 b 460 1194 432 1174 448 1181 b 489 1239 472 1208 481 1223 l 565 1239 b 540 1180 558 1219 549 1199 b 504 1129 530 1161 518 1144 b 456 1093 490 1114 474 1102 b 394 1079 438 1084 418 1079 b 346 1088 378 1079 362 1082 b 299 1107 330 1093 314 1100 b 252 1128 283 1115 267 1122 b 208 1138 237 1134 222 1138 b 160 1117 188 1138 172 1131 b 131 1072 148 1103 138 1088 l 54 1072 "},"ĩ":{"ha":360,"x_min":0,"x_max":0,"o":"m 40 0 l 156 658 l 285 658 l 168 0 m -8 794 b 17 853 -2 815 6 834 b 52 904 27 872 39 889 b 99 940 66 919 81 931 b 163 954 117 950 138 954 b 215 946 181 954 198 951 b 263 925 231 940 247 933 b 308 905 278 918 294 911 b 350 896 323 899 337 896 b 397 917 369 896 385 903 b 426 961 409 931 419 945 l 503 961 b 477 902 495 941 487 921 b 442 851 467 883 456 866 b 394 815 428 837 412 825 b 332 801 376 806 355 801 b 283 810 315 801 299 804 b 236 829 268 815 252 822 b 190 851 220 838 205 845 b 146 860 174 857 160 860 b 97 839 125 860 109 853 b 68 794 85 825 75 810 l -8 794 "},"Ī":{"ha":376,"x_min":0,"x_max":0,"o":"m 44 0 l 218 983 l 354 983 l 181 0 m 100 1107 l 115 1199 l 525 1199 l 508 1107 "},"ī":{"ha":360,"x_min":0,"x_max":0,"o":"m 40 0 l 156 658 l 285 658 l 168 0 m 39 829 l 54 921 l 464 921 l 447 829 "},"Į":{"ha":376,"x_min":0,"x_max":0,"o":"m 193 -265 b 126 -303 172 -281 150 -294 b 56 -317 103 -312 80 -317 b -26 -291 23 -317 -4 -308 b -60 -212 -49 -274 -60 -248 b -44 -150 -60 -191 -55 -170 b -6 -92 -34 -130 -22 -110 b 44 -42 9 -74 26 -58 b 99 0 63 -27 81 -13 l 44 0 l 218 983 l 354 983 l 181 0 l 175 0 b 124 -45 157 -15 140 -30 b 80 -92 107 -60 92 -76 b 50 -139 67 -107 57 -123 b 39 -185 43 -155 39 -170 b 56 -223 39 -203 44 -216 b 96 -233 67 -230 80 -233 b 174 -204 124 -233 150 -224 l 193 -265 "},"į":{"ha":360,"x_min":0,"x_max":0,"o":"m 179 -265 b 113 -303 158 -281 136 -294 b 42 -317 89 -312 66 -317 b -40 -291 9 -317 -18 -308 b -74 -212 -62 -274 -74 -248 b -58 -150 -74 -191 -69 -170 b -20 -92 -48 -130 -35 -110 b 31 -42 -5 -74 12 -58 b 85 0 49 -27 67 -13 l 40 0 l 156 658 l 285 658 l 168 0 l 161 0 b 110 -45 144 -15 126 -30 b 66 -92 93 -60 78 -76 b 36 -139 53 -107 44 -123 b 25 -185 29 -155 25 -170 b 42 -223 25 -203 31 -216 b 82 -233 53 -230 66 -233 b 160 -204 110 -233 136 -224 l 179 -265 m 340 899 b 317 839 340 875 332 856 b 258 814 301 822 281 814 b 201 835 236 814 217 821 b 176 893 184 849 176 868 b 202 955 176 918 185 939 b 261 979 219 971 239 979 b 317 957 283 979 302 972 b 340 899 333 942 340 923 "},"İ":{"ha":376,"x_min":0,"x_max":0,"o":"m 44 0 l 218 983 l 354 983 l 181 0 m 394 1176 b 371 1117 394 1153 387 1133 b 313 1092 355 1100 336 1092 b 255 1113 290 1092 271 1099 b 231 1171 239 1126 231 1146 b 256 1233 231 1196 239 1216 b 315 1257 273 1249 293 1257 b 372 1235 338 1257 356 1250 b 394 1176 387 1220 394 1200 "},"ı":{"ha":360,"x_min":0,"x_max":0,"o":"m 40 0 l 156 658 l 285 658 l 168 0 "},"Ĳ":{"ha":1054,"x_min":0,"x_max":0,"o":"m 44 0 l 218 983 l 354 983 l 181 0 m 472 215 b 513 130 477 182 490 153 b 603 94 535 106 565 94 b 681 111 634 94 660 100 b 733 157 702 122 719 138 b 765 225 746 176 757 199 b 783 307 772 251 779 278 l 903 983 l 1039 983 l 918 300 b 892 190 913 265 904 228 b 840 85 881 152 863 117 b 750 6 817 53 787 27 b 607 -25 713 -15 665 -25 b 505 -10 569 -25 535 -20 b 427 33 475 0 449 15 b 374 98 405 52 388 73 b 349 179 361 122 352 150 l 472 215 "},"ĳ":{"ha":717,"x_min":0,"x_max":0,"o":"m 40 0 l 156 658 l 285 658 l 168 0 m 340 899 b 317 839 340 875 332 856 b 258 814 301 822 281 814 b 201 835 236 814 217 821 b 176 893 184 849 176 868 b 202 955 176 918 185 939 b 261 979 219 971 239 979 b 317 957 283 979 302 972 b 340 899 333 942 340 923 m 219 -215 b 271 -222 236 -220 253 -222 b 319 -211 290 -222 306 -219 b 351 -181 332 -204 343 -194 b 371 -137 360 -169 366 -154 b 383 -82 375 -120 380 -101 l 514 658 l 643 658 l 511 -86 b 488 -180 506 -119 498 -150 b 447 -259 478 -210 465 -236 b 376 -313 428 -282 405 -300 b 269 -333 348 -327 312 -333 b 230 -331 257 -333 244 -332 b 193 -325 216 -329 203 -327 l 219 -215 m 697 899 b 674 839 697 875 689 856 b 615 814 658 822 638 814 b 558 835 593 814 574 821 b 533 893 541 849 533 868 b 559 955 533 918 542 939 b 618 979 576 971 596 979 b 674 957 640 979 659 972 b 697 899 690 942 697 923 "},"Ĵ":{"ha":682,"x_min":0,"x_max":0,"o":"m 100 215 b 140 130 105 182 118 153 b 231 94 163 106 193 94 b 309 111 262 94 288 100 b 360 157 330 122 347 138 b 392 225 374 176 384 199 b 411 307 400 251 406 278 l 531 983 l 667 983 l 546 300 b 520 190 540 265 532 228 b 468 85 509 152 491 117 b 378 6 445 53 415 27 b 235 -25 341 -15 293 -25 b 133 -10 197 -25 163 -20 b 55 33 103 0 77 15 b 2 98 33 52 16 73 b -24 179 -11 122 -20 150 l 100 215 m 713 1061 l 631 1199 l 500 1061 l 374 1061 l 565 1261 l 713 1261 l 832 1061 "},"ĵ":{"ha":360,"x_min":0,"x_max":0,"o":"m -137 -215 b -86 -222 -121 -220 -104 -222 b -37 -211 -67 -222 -50 -219 b -6 -181 -25 -204 -14 -194 b 14 -137 3 -169 9 -154 b 26 -82 19 -120 23 -101 l 157 658 l 286 658 l 154 -86 b 131 -180 149 -119 141 -150 b 90 -259 122 -210 108 -236 b 19 -313 72 -282 48 -300 b -87 -333 -9 -327 -45 -333 b -127 -331 -100 -333 -113 -332 b -164 -325 -141 -329 -154 -327 l -137 -215 m 347 783 l 265 921 l 135 783 l 8 783 l 200 983 l 347 983 l 467 783 "},"Ķ":{"ha":863,"x_min":0,"x_max":0,"o":"m 278 544 l 749 983 l 938 983 l 414 524 l 810 0 l 633 0 l 271 508 l 268 508 l 179 0 l 44 0 l 218 983 l 353 983 l 275 544 m 178 -326 l 322 -62 l 451 -62 l 285 -326 "},"ķ":{"ha":700,"x_min":0,"x_max":0,"o":"m 239 371 l 556 658 l 726 658 l 371 353 l 642 0 l 479 0 l 233 342 l 229 342 l 169 0 l 40 0 l 225 1050 l 354 1050 l 235 371 m 110 -326 l 254 -62 l 383 -62 l 217 -326 "},"Ĺ":{"ha":710,"x_min":0,"x_max":0,"o":"m 640 121 l 621 0 l 44 0 l 218 983 l 354 983 l 200 121 m 246 1061 l 419 1261 l 574 1261 l 349 1061 "},"ĺ":{"ha":361,"x_min":0,"x_max":0,"o":"m 40 0 l 225 1050 l 356 1050 l 169 0 m 228 1100 l 401 1300 l 556 1300 l 331 1100 "},"Ļ":{"ha":710,"x_min":0,"x_max":0,"o":"m 640 121 l 621 0 l 44 0 l 218 983 l 354 983 l 200 121 m 126 -326 l 271 -62 l 400 -62 l 233 -326 "},"ļ":{"ha":361,"x_min":0,"x_max":0,"o":"m 40 0 l 225 1050 l 356 1050 l 169 0 m -93 -326 l 51 -62 l 181 -62 l 14 -326 "},"Ľ":{"ha":710,"x_min":0,"x_max":0,"o":"m 640 121 l 621 0 l 44 0 l 218 983 l 354 983 l 200 121 m 399 719 l 543 983 l 672 983 l 506 719 "},"ľ":{"ha":361,"x_min":0,"x_max":0,"o":"m 40 0 l 225 1050 l 356 1050 l 169 0 m 349 719 l 493 983 l 622 983 l 456 719 "},"Ŀ":{"ha":710,"x_min":0,"x_max":0,"o":"m 640 121 l 621 0 l 44 0 l 218 983 l 354 983 l 200 121 m 619 468 b 596 408 619 445 612 425 b 538 383 580 392 561 383 b 480 404 515 383 496 390 b 456 463 464 418 456 438 b 481 524 456 488 464 508 b 540 549 498 541 518 549 b 597 526 563 549 581 541 b 619 468 612 512 619 492 "},"ŀ":{"ha":486,"x_min":0,"x_max":0,"o":"m 40 0 l 225 1050 l 356 1050 l 169 0 m 508 468 b 485 408 508 445 500 425 b 426 383 469 392 450 383 b 369 404 404 383 385 390 b 344 463 353 418 344 438 b 370 524 344 488 353 508 b 429 549 387 541 407 549 b 485 526 451 549 470 541 b 508 468 501 512 508 492 "},"Ł":{"ha":710,"x_min":0,"x_max":0,"o":"m 614 789 l 592 665 l 253 410 l 201 121 l 642 121 l 621 0 l 44 0 l 100 308 l -24 217 l -1 342 l 121 432 l 218 983 l 354 983 l 275 533 "},"ł":{"ha":361,"x_min":0,"x_max":0,"o":"m 410 772 l 388 647 l 264 543 l 168 0 l 40 0 l 118 438 l -6 332 l 17 457 l 140 563 l 225 1050 l 354 1050 l 286 665 "},"Ń":{"ha":1067,"x_min":0,"x_max":0,"o":"m 754 192 l 893 983 l 1029 983 l 856 0 l 686 0 l 325 808 l 322 808 l 179 0 l 44 0 l 218 983 l 392 983 l 751 192 m 535 1061 l 708 1261 l 863 1261 l 638 1061 "},"ń":{"ha":807,"x_min":0,"x_max":0,"o":"m 272 658 b 266 606 270 645 268 628 b 258 551 264 584 261 566 l 261 551 b 353 642 285 589 316 620 b 481 676 391 665 433 676 b 645 619 553 676 608 657 b 701 474 683 580 701 532 b 696 407 701 450 700 428 l 624 0 l 494 0 l 558 364 b 567 438 564 389 567 413 b 539 531 567 475 557 506 b 439 567 520 555 487 567 b 304 508 387 567 342 547 b 229 350 266 468 241 416 l 168 0 l 39 0 l 129 515 b 141 583 133 533 137 556 b 150 658 145 611 148 636 l 272 658 m 364 783 l 538 983 l 692 983 l 467 783 "},"Ņ":{"ha":1067,"x_min":0,"x_max":0,"o":"m 754 192 l 893 983 l 1029 983 l 856 0 l 686 0 l 325 808 l 322 808 l 179 0 l 44 0 l 218 983 l 392 983 l 751 192 m 229 -326 l 374 -62 l 503 -62 l 336 -326 "},"ņ":{"ha":807,"x_min":0,"x_max":0,"o":"m 272 658 b 266 606 270 645 268 628 b 258 551 264 584 261 566 l 261 551 b 353 642 285 589 316 620 b 481 676 391 665 433 676 b 645 619 553 676 608 657 b 701 474 683 580 701 532 b 696 407 701 450 700 428 l 624 0 l 494 0 l 558 364 b 567 438 564 389 567 413 b 539 531 567 475 557 506 b 439 567 520 555 487 567 b 304 508 387 567 342 547 b 229 350 266 468 241 416 l 168 0 l 39 0 l 129 515 b 141 583 133 533 137 556 b 150 658 145 611 148 636 l 272 658 m 122 -326 l 267 -62 l 396 -62 l 229 -326 "},"Ň":{"ha":1067,"x_min":0,"x_max":0,"o":"m 754 192 l 893 983 l 1029 983 l 856 0 l 686 0 l 325 808 l 322 808 l 179 0 l 44 0 l 218 983 l 392 983 l 751 192 m 557 1061 l 438 1261 l 558 1261 l 639 1124 l 769 1261 l 894 1261 l 704 1061 "},"ň":{"ha":807,"x_min":0,"x_max":0,"o":"m 272 658 b 266 606 270 645 268 628 b 258 551 264 584 261 566 l 261 551 b 353 642 285 589 316 620 b 481 676 391 665 433 676 b 645 619 553 676 608 657 b 701 474 683 580 701 532 b 696 407 701 450 700 428 l 624 0 l 494 0 l 558 364 b 567 438 564 389 567 413 b 539 531 567 475 557 506 b 439 567 520 555 487 567 b 304 508 387 567 342 547 b 229 350 266 468 241 416 l 168 0 l 39 0 l 129 515 b 141 583 133 533 137 556 b 150 658 145 611 148 636 l 272 658 m 385 783 l 265 983 l 386 983 l 467 846 l 597 983 l 722 983 l 532 783 "},"ŉ":{"ha":835,"x_min":0,"x_max":0,"o":"m 300 658 b 294 606 298 645 296 628 b 286 551 291 584 289 566 l 289 551 b 381 642 313 589 344 620 b 508 676 419 665 461 676 b 673 619 581 676 635 657 b 729 474 710 580 729 532 b 724 407 729 450 727 428 l 651 0 l 522 0 l 586 364 b 594 438 592 389 594 413 b 567 531 594 475 585 506 b 467 567 548 555 515 567 b 332 508 415 567 370 547 b 257 350 294 468 269 416 l 196 0 l 67 0 l 157 515 b 169 583 161 533 165 556 b 178 658 173 611 176 636 l 300 658 m 56 719 l 200 983 l 329 983 l 163 719 "},"Ō":{"ha":1154,"x_min":0,"x_max":0,"o":"m 529 -25 b 342 5 461 -25 398 -15 b 199 90 286 25 238 53 b 106 224 159 127 128 172 b 74 400 84 277 74 335 b 117 637 74 484 88 563 b 238 830 147 710 187 775 b 419 960 290 885 350 928 b 646 1008 489 992 564 1008 b 829 978 713 1008 774 998 b 972 893 885 959 932 930 b 1065 760 1012 856 1043 812 b 1097 585 1086 708 1097 650 b 1055 347 1097 500 1083 421 b 936 153 1027 273 987 209 b 756 23 885 98 825 55 b 529 -25 686 -9 611 -25 m 956 572 b 935 697 956 617 949 658 b 874 798 921 735 900 769 b 774 867 847 827 814 850 b 639 892 735 883 690 892 b 465 851 575 892 517 878 b 331 742 412 823 368 787 b 245 589 294 697 265 646 b 215 413 225 531 215 473 b 236 289 215 369 222 328 b 297 187 250 250 270 216 b 395 118 323 158 356 135 b 532 93 434 101 480 93 b 708 133 597 93 655 106 b 841 241 760 160 804 196 b 926 394 878 286 906 337 b 956 572 946 452 956 511 m 485 1107 l 500 1199 l 910 1199 l 893 1107 "},"ō":{"ha":833,"x_min":0,"x_max":0,"o":"m 354 -18 b 229 3 309 -18 267 -11 b 131 62 191 17 158 36 b 65 153 103 87 81 118 b 42 269 50 188 42 227 b 70 425 42 324 51 376 b 151 555 89 474 116 517 b 276 644 185 592 227 622 b 438 676 324 666 378 676 b 563 656 483 676 525 669 b 661 597 600 642 633 622 b 726 508 689 572 710 542 b 749 392 741 473 749 434 b 720 234 749 336 739 284 b 640 103 701 184 674 141 b 515 15 605 66 563 36 b 354 -18 467 -7 413 -18 m 618 379 b 605 454 618 406 614 431 b 567 515 596 477 584 497 b 508 555 551 532 531 545 b 429 569 484 565 458 569 b 325 546 391 569 356 562 b 244 483 294 530 266 509 b 191 391 221 456 203 426 b 172 281 178 356 172 319 b 222 144 172 225 189 179 b 361 90 256 108 302 90 b 465 113 399 90 434 98 b 547 176 497 128 524 149 b 599 268 569 202 587 233 b 618 379 612 303 618 340 m 271 829 l 286 921 l 696 921 l 679 829 "},"Ŏ":{"ha":1154,"x_min":0,"x_max":0,"o":"m 529 -25 b 342 5 461 -25 398 -15 b 199 90 286 25 238 53 b 106 224 159 127 128 172 b 74 400 84 277 74 335 b 117 637 74 484 88 563 b 238 830 147 710 187 775 b 419 960 290 885 350 928 b 646 1008 489 992 564 1008 b 829 978 713 1008 774 998 b 972 893 885 959 932 930 b 1065 760 1012 856 1043 812 b 1097 585 1086 708 1097 650 b 1055 347 1097 500 1083 421 b 936 153 1027 273 987 209 b 756 23 885 98 825 55 b 529 -25 686 -9 611 -25 m 956 572 b 935 697 956 617 949 658 b 874 798 921 735 900 769 b 774 867 847 827 814 850 b 639 892 735 883 690 892 b 465 851 575 892 517 878 b 331 742 412 823 368 787 b 245 589 294 697 265 646 b 215 413 225 531 215 473 b 236 289 215 369 222 328 b 297 187 250 250 270 216 b 395 118 323 158 356 135 b 532 93 434 101 480 93 b 708 133 597 93 655 106 b 841 241 760 160 804 196 b 926 394 878 286 906 337 b 956 572 946 452 956 511 m 919 1261 b 834 1119 906 1200 878 1153 b 676 1069 790 1086 738 1069 b 532 1116 615 1069 567 1085 b 479 1261 497 1147 479 1195 l 557 1261 b 567 1214 557 1243 560 1227 b 593 1183 573 1201 582 1191 b 633 1166 604 1175 617 1169 b 682 1161 648 1163 664 1161 b 784 1183 721 1161 755 1168 b 843 1261 813 1197 833 1223 l 919 1261 "},"ŏ":{"ha":833,"x_min":0,"x_max":0,"o":"m 354 -18 b 229 3 309 -18 267 -11 b 131 62 191 17 158 36 b 65 153 103 87 81 118 b 42 269 50 188 42 227 b 70 425 42 324 51 376 b 151 555 89 474 116 517 b 276 644 185 592 227 622 b 438 676 324 666 378 676 b 563 656 483 676 525 669 b 661 597 600 642 633 622 b 726 508 689 572 710 542 b 749 392 741 473 749 434 b 720 234 749 336 739 284 b 640 103 701 184 674 141 b 515 15 605 66 563 36 b 354 -18 467 -7 413 -18 m 618 379 b 605 454 618 406 614 431 b 567 515 596 477 584 497 b 508 555 551 532 531 545 b 429 569 484 565 458 569 b 325 546 391 569 356 562 b 244 483 294 530 266 509 b 191 391 221 456 203 426 b 172 281 178 356 172 319 b 222 144 172 225 189 179 b 361 90 256 108 302 90 b 465 113 399 90 434 98 b 547 176 497 128 524 149 b 599 268 569 202 587 233 b 618 379 612 303 618 340 m 707 983 b 622 842 694 922 666 875 b 464 792 578 808 525 792 b 319 838 403 792 355 807 b 267 983 284 869 267 918 l 344 983 b 354 936 344 965 348 949 b 381 905 361 923 369 913 b 420 888 392 897 405 891 b 469 883 435 885 452 883 b 572 905 508 883 542 891 b 631 983 601 919 620 945 l 707 983 "},"Ő":{"ha":1154,"x_min":0,"x_max":0,"o":"m 529 -25 b 342 5 461 -25 398 -15 b 199 90 286 25 238 53 b 106 224 159 127 128 172 b 74 400 84 277 74 335 b 117 637 74 484 88 563 b 238 830 147 710 187 775 b 419 960 290 885 350 928 b 646 1008 489 992 564 1008 b 829 978 713 1008 774 998 b 972 893 885 959 932 930 b 1065 760 1012 856 1043 812 b 1097 585 1086 708 1097 650 b 1055 347 1097 500 1083 421 b 936 153 1027 273 987 209 b 756 23 885 98 825 55 b 529 -25 686 -9 611 -25 m 956 572 b 935 697 956 617 949 658 b 874 798 921 735 900 769 b 774 867 847 827 814 850 b 639 892 735 883 690 892 b 465 851 575 892 517 878 b 331 742 412 823 368 787 b 245 589 294 697 265 646 b 215 413 225 531 215 473 b 236 289 215 369 222 328 b 297 187 250 250 270 216 b 395 118 323 158 356 135 b 532 93 434 101 480 93 b 708 133 597 93 655 106 b 841 241 760 160 804 196 b 926 394 878 286 906 337 b 956 572 946 452 956 511 m 744 1061 l 919 1261 l 1076 1261 l 850 1061 m 494 1061 l 668 1261 l 825 1261 l 600 1061 "},"ő":{"ha":833,"x_min":0,"x_max":0,"o":"m 354 -18 b 229 3 309 -18 267 -11 b 131 62 191 17 158 36 b 65 153 103 87 81 118 b 42 269 50 188 42 227 b 70 425 42 324 51 376 b 151 555 89 474 116 517 b 276 644 185 592 227 622 b 438 676 324 666 378 676 b 563 656 483 676 525 669 b 661 597 600 642 633 622 b 726 508 689 572 710 542 b 749 392 741 473 749 434 b 720 234 749 336 739 284 b 640 103 701 184 674 141 b 515 15 605 66 563 36 b 354 -18 467 -7 413 -18 m 618 379 b 605 454 618 406 614 431 b 567 515 596 477 584 497 b 508 555 551 532 531 545 b 429 569 484 565 458 569 b 325 546 391 569 356 562 b 244 483 294 530 266 509 b 191 391 221 456 203 426 b 172 281 178 356 172 319 b 222 144 172 225 189 179 b 361 90 256 108 302 90 b 465 113 399 90 434 98 b 547 176 497 128 524 149 b 599 268 569 202 587 233 b 618 379 612 303 618 340 m 531 783 l 706 983 l 863 983 l 636 783 m 281 783 l 454 983 l 611 983 l 386 783 "},"Ŕ":{"ha":850,"x_min":0,"x_max":0,"o":"m 44 0 l 218 983 l 497 983 b 629 967 545 983 589 978 b 731 920 669 957 703 941 b 797 844 759 899 781 874 b 819 739 812 814 819 779 b 799 626 819 696 813 659 b 742 542 785 594 766 566 b 656 485 718 519 689 500 b 546 453 622 470 586 459 l 756 0 l 603 0 l 407 439 l 256 439 l 179 0 m 426 551 b 526 560 462 551 495 554 b 606 588 557 565 584 575 b 660 641 629 602 647 619 b 681 724 674 663 681 690 b 626 835 681 775 662 813 b 476 868 589 857 539 868 l 332 868 l 275 551 m 408 1061 l 582 1261 l 736 1261 l 511 1061 "},"ŕ":{"ha":476,"x_min":0,"x_max":0,"o":"m 128 515 b 140 583 131 533 135 556 b 149 658 144 611 147 636 l 271 658 b 268 634 270 652 269 644 b 265 603 267 624 266 614 b 260 573 263 593 262 583 b 257 547 259 563 258 555 l 260 547 b 347 641 283 586 312 617 b 465 676 381 665 421 676 b 517 671 486 676 503 675 l 494 550 b 438 557 476 555 457 557 b 354 540 406 557 378 551 b 292 493 330 528 309 513 b 249 426 274 474 260 451 b 226 346 239 400 231 374 l 165 0 l 38 0 l 128 515 m 208 783 l 382 983 l 536 983 l 311 783 "},"Ŗ":{"ha":850,"x_min":0,"x_max":0,"o":"m 44 0 l 218 983 l 497 983 b 629 967 545 983 589 978 b 731 920 669 957 703 941 b 797 844 759 899 781 874 b 819 739 812 814 819 779 b 799 626 819 696 813 659 b 742 542 785 594 766 566 b 656 485 718 519 689 500 b 546 453 622 470 586 459 l 756 0 l 603 0 l 407 439 l 256 439 l 179 0 m 426 551 b 526 560 462 551 495 554 b 606 588 557 565 584 575 b 660 641 629 602 647 619 b 681 724 674 663 681 690 b 626 835 681 775 662 813 b 476 868 589 857 539 868 l 332 868 l 275 551 m 151 -326 l 296 -62 l 425 -62 l 258 -326 "},"ŗ":{"ha":476,"x_min":0,"x_max":0,"o":"m 128 515 b 140 583 131 533 135 556 b 149 658 144 611 147 636 l 271 658 b 268 634 270 652 269 644 b 265 603 267 624 266 614 b 260 573 263 593 262 583 b 257 547 259 563 258 555 l 260 547 b 347 641 283 586 312 617 b 465 676 381 665 421 676 b 517 671 486 676 503 675 l 494 550 b 438 557 476 555 457 557 b 354 540 406 557 378 551 b 292 493 330 528 309 513 b 249 426 274 474 260 451 b 226 346 239 400 231 374 l 165 0 l 38 0 l 128 515 m -100 -328 l 44 -64 l 174 -64 l 7 -328 "},"Ř":{"ha":850,"x_min":0,"x_max":0,"o":"m 44 0 l 218 983 l 497 983 b 629 967 545 983 589 978 b 731 920 669 957 703 941 b 797 844 759 899 781 874 b 819 739 812 814 819 779 b 799 626 819 696 813 659 b 742 542 785 594 766 566 b 656 485 718 519 689 500 b 546 453 622 470 586 459 l 756 0 l 603 0 l 407 439 l 256 439 l 179 0 m 426 551 b 526 560 462 551 495 554 b 606 588 557 565 584 575 b 660 641 629 602 647 619 b 681 724 674 663 681 690 b 626 835 681 775 662 813 b 476 868 589 857 539 868 l 332 868 l 275 551 m 432 1061 l 313 1261 l 433 1261 l 514 1124 l 644 1261 l 769 1261 l 579 1061 "},"ř":{"ha":476,"x_min":0,"x_max":0,"o":"m 128 515 b 140 583 131 533 135 556 b 149 658 144 611 147 636 l 271 658 b 268 634 270 652 269 644 b 265 603 267 624 266 614 b 260 573 263 593 262 583 b 257 547 259 563 258 555 l 260 547 b 347 641 283 586 312 617 b 465 676 381 665 421 676 b 517 671 486 676 503 675 l 494 550 b 438 557 476 555 457 557 b 354 540 406 557 378 551 b 292 493 330 528 309 513 b 249 426 274 474 260 451 b 226 346 239 400 231 374 l 165 0 l 38 0 l 128 515 m 271 783 l 151 983 l 272 983 l 353 846 l 483 983 l 608 983 l 418 783 "},"Ś":{"ha":790,"x_min":0,"x_max":0,"o":"m 668 806 b 593 870 650 832 625 854 b 486 894 562 886 526 894 b 415 885 463 894 439 891 b 347 853 390 878 367 868 b 295 799 326 839 309 821 b 275 719 282 776 275 750 b 287 664 275 698 279 680 b 319 622 295 648 306 634 b 369 590 333 610 350 599 b 433 563 389 580 410 571 b 534 519 469 550 503 535 b 616 462 565 503 592 484 b 672 387 640 440 658 415 b 692 289 685 359 692 326 b 666 163 692 244 683 202 b 592 64 649 125 624 92 b 476 -1 560 36 522 14 b 324 -25 431 -17 380 -25 b 230 -15 292 -25 261 -22 b 140 13 199 -9 169 1 b 62 60 112 26 85 41 b 3 128 38 79 19 102 l 117 204 b 201 123 135 172 163 145 b 329 90 238 101 281 90 b 410 102 357 90 384 94 b 481 137 437 110 460 122 b 530 194 501 152 517 171 b 549 274 542 216 549 243 b 533 339 549 299 544 320 b 492 388 523 357 509 374 b 431 424 474 401 454 414 b 357 454 407 435 383 445 b 274 492 328 465 300 478 b 203 542 247 506 223 522 b 154 611 182 561 166 584 b 136 707 142 638 136 670 b 163 831 136 752 145 794 b 239 926 181 869 206 900 b 354 987 271 952 310 972 b 499 1008 399 1001 447 1008 b 659 976 556 1008 609 998 b 774 886 709 955 747 925 l 668 806 m 401 1061 l 575 1261 l 729 1261 l 504 1061 "},"ś":{"ha":617,"x_min":0,"x_max":0,"o":"m 482 500 b 429 553 469 521 451 539 b 343 574 407 567 378 574 b 296 569 327 574 312 572 b 252 553 280 566 266 560 b 219 525 239 547 228 537 b 207 482 211 513 207 499 b 238 422 207 454 217 434 b 325 389 258 410 287 399 b 470 317 388 370 436 347 b 521 193 504 288 521 247 b 497 99 521 157 513 125 b 435 32 481 72 461 50 b 349 -8 410 14 381 1 b 250 -21 316 -16 283 -21 b 87 14 187 -21 133 -9 b -19 108 41 37 6 69 l 85 176 b 151 111 100 150 122 128 b 250 86 180 94 213 86 b 351 110 289 86 323 94 b 394 183 380 127 394 151 b 360 249 394 212 383 234 b 258 293 338 263 304 278 b 188 319 232 301 209 310 b 132 354 166 329 148 340 b 95 403 116 368 104 384 b 82 471 86 421 82 444 b 104 558 82 503 89 532 b 164 622 119 583 139 605 b 251 663 189 640 218 653 b 353 676 284 672 318 676 b 490 647 404 676 450 667 b 582 565 531 628 562 600 l 482 500 m 279 783 l 453 983 l 607 983 l 382 783 "},"Ŝ":{"ha":790,"x_min":0,"x_max":0,"o":"m 668 806 b 593 870 650 832 625 854 b 486 894 562 886 526 894 b 415 885 463 894 439 891 b 347 853 390 878 367 868 b 295 799 326 839 309 821 b 275 719 282 776 275 750 b 287 664 275 698 279 680 b 319 622 295 648 306 634 b 369 590 333 610 350 599 b 433 563 389 580 410 571 b 534 519 469 550 503 535 b 616 462 565 503 592 484 b 672 387 640 440 658 415 b 692 289 685 359 692 326 b 666 163 692 244 683 202 b 592 64 649 125 624 92 b 476 -1 560 36 522 14 b 324 -25 431 -17 380 -25 b 230 -15 292 -25 261 -22 b 140 13 199 -9 169 1 b 62 60 112 26 85 41 b 3 128 38 79 19 102 l 117 204 b 201 123 135 172 163 145 b 329 90 238 101 281 90 b 410 102 357 90 384 94 b 481 137 437 110 460 122 b 530 194 501 152 517 171 b 549 274 542 216 549 243 b 533 339 549 299 544 320 b 492 388 523 357 509 374 b 431 424 474 401 454 414 b 357 454 407 435 383 445 b 274 492 328 465 300 478 b 203 542 247 506 223 522 b 154 611 182 561 166 584 b 136 707 142 638 136 670 b 163 831 136 752 145 794 b 239 926 181 869 206 900 b 354 987 271 952 310 972 b 499 1008 399 1001 447 1008 b 659 976 556 1008 609 998 b 774 886 709 955 747 925 l 668 806 m 633 1061 l 551 1199 l 421 1061 l 294 1061 l 486 1261 l 633 1261 l 753 1061 "},"ŝ":{"ha":617,"x_min":0,"x_max":0,"o":"m 482 500 b 429 553 469 521 451 539 b 343 574 407 567 378 574 b 296 569 327 574 312 572 b 252 553 280 566 266 560 b 219 525 239 547 228 537 b 207 482 211 513 207 499 b 238 422 207 454 217 434 b 325 389 258 410 287 399 b 470 317 388 370 436 347 b 521 193 504 288 521 247 b 497 99 521 157 513 125 b 435 32 481 72 461 50 b 349 -8 410 14 381 1 b 250 -21 316 -16 283 -21 b 87 14 187 -21 133 -9 b -19 108 41 37 6 69 l 85 176 b 151 111 100 150 122 128 b 250 86 180 94 213 86 b 351 110 289 86 323 94 b 394 183 380 127 394 151 b 360 249 394 212 383 234 b 258 293 338 263 304 278 b 188 319 232 301 209 310 b 132 354 166 329 148 340 b 95 403 116 368 104 384 b 82 471 86 421 82 444 b 104 558 82 503 89 532 b 164 622 119 583 139 605 b 251 663 189 640 218 653 b 353 676 284 672 318 676 b 490 647 404 676 450 667 b 582 565 531 628 562 600 l 482 500 m 496 783 l 414 921 l 283 783 l 157 783 l 349 983 l 496 983 l 615 783 "},"Ş":{"ha":790,"x_min":0,"x_max":0,"o":"m 668 806 b 593 870 650 832 625 854 b 486 894 562 886 526 894 b 415 885 463 894 439 891 b 347 853 390 878 367 868 b 295 799 326 839 309 821 b 275 719 282 776 275 750 b 287 664 275 698 279 680 b 319 622 295 648 306 634 b 369 590 333 610 350 599 b 433 563 389 580 410 571 b 534 519 469 550 503 535 b 616 462 565 503 592 484 b 672 387 640 440 658 415 b 692 289 685 359 692 326 b 669 170 692 246 684 207 b 603 74 653 134 631 101 b 499 7 574 46 539 24 b 361 -24 458 -10 412 -20 l 300 -97 b 319 -94 307 -95 314 -94 b 336 -93 325 -93 331 -93 b 374 -98 348 -93 361 -95 b 411 -115 388 -101 400 -107 b 439 -145 422 -122 431 -133 b 450 -192 446 -158 450 -173 b 432 -256 450 -217 444 -238 b 387 -297 420 -273 405 -287 b 328 -319 369 -307 349 -315 b 267 -326 306 -324 286 -326 b 190 -318 243 -326 217 -324 b 122 -294 163 -312 141 -305 l 156 -236 b 206 -253 171 -244 188 -249 b 261 -260 224 -258 243 -260 b 290 -257 270 -260 280 -259 b 319 -248 300 -255 310 -252 b 342 -230 329 -244 336 -238 b 351 -200 348 -222 351 -212 b 331 -160 351 -181 345 -167 b 285 -149 318 -152 302 -149 b 256 -151 275 -149 266 -150 b 226 -158 245 -153 236 -156 l 203 -131 l 292 -24 b 126 19 233 -20 178 -6 b 3 128 73 44 32 81 l 117 204 b 201 123 135 172 163 145 b 329 90 238 101 281 90 b 410 102 357 90 384 94 b 481 137 437 110 460 122 b 530 194 501 152 517 171 b 549 274 542 216 549 243 b 533 339 549 299 544 320 b 492 388 523 357 509 374 b 431 424 474 401 454 414 b 357 454 407 435 383 445 b 274 492 328 465 300 478 b 203 542 247 506 223 522 b 154 611 182 561 166 584 b 136 707 142 638 136 670 b 163 831 136 752 145 794 b 239 926 181 869 206 900 b 354 987 271 952 310 972 b 499 1008 399 1001 447 1008 b 659 976 556 1008 609 998 b 774 886 709 955 747 925 l 668 806 "},"ş":{"ha":617,"x_min":0,"x_max":0,"o":"m 482 500 b 429 553 469 521 451 539 b 343 574 407 567 378 574 b 296 569 327 574 312 572 b 252 553 280 566 266 560 b 219 525 239 547 228 537 b 207 482 211 513 207 499 b 238 422 207 454 217 434 b 325 389 258 410 287 399 b 470 317 388 370 436 347 b 521 193 504 288 521 247 b 501 106 521 160 514 131 b 449 42 488 81 471 59 b 374 1 428 25 403 12 b 286 -18 346 -9 317 -15 l 221 -97 b 240 -94 228 -95 235 -94 b 257 -93 246 -93 251 -93 b 295 -98 269 -93 282 -95 b 332 -115 309 -101 321 -107 b 360 -145 343 -122 352 -133 b 371 -192 367 -158 371 -173 b 353 -256 371 -217 365 -238 b 308 -297 341 -273 326 -287 b 249 -319 290 -307 270 -315 b 188 -326 227 -324 207 -326 b 111 -318 163 -326 138 -324 b 43 -294 84 -312 62 -305 l 76 -236 b 127 -253 92 -244 109 -249 b 182 -260 145 -258 163 -260 b 211 -257 191 -260 201 -259 b 240 -248 221 -255 231 -252 b 263 -230 250 -244 257 -238 b 272 -200 269 -222 272 -212 b 252 -160 272 -181 266 -167 b 206 -149 239 -152 223 -149 b 176 -151 196 -149 187 -150 b 147 -158 166 -153 156 -156 l 124 -131 l 217 -19 b 74 21 162 -15 115 -1 b -19 108 34 43 3 72 l 85 176 b 151 111 100 150 122 128 b 250 86 180 94 213 86 b 351 110 289 86 323 94 b 394 183 380 127 394 151 b 360 249 394 212 383 234 b 258 293 338 263 304 278 b 188 319 232 301 209 310 b 132 354 166 329 148 340 b 95 403 116 368 104 384 b 82 471 86 421 82 444 b 104 558 82 503 89 532 b 164 622 119 583 139 605 b 251 663 189 640 218 653 b 353 676 284 672 318 676 b 490 647 404 676 450 667 b 582 565 531 628 562 600 l 482 500 "},"Ţ":{"ha":743,"x_min":0,"x_max":0,"o":"m 225 0 l 378 864 l 67 864 l 88 983 l 843 983 l 822 864 l 514 864 l 361 0 m 253 -97 b 272 -94 260 -95 267 -94 b 289 -93 278 -93 283 -93 b 327 -98 301 -93 314 -95 b 364 -115 341 -101 353 -107 b 392 -145 375 -122 384 -133 b 403 -192 399 -158 403 -173 b 385 -256 403 -217 397 -238 b 340 -297 373 -273 358 -287 b 281 -319 322 -307 302 -315 b 219 -326 259 -324 239 -326 b 143 -318 195 -326 170 -324 b 75 -294 116 -312 94 -305 l 108 -236 b 159 -253 124 -244 141 -249 b 214 -260 177 -258 195 -260 b 243 -257 223 -260 233 -259 b 272 -248 253 -255 263 -252 b 295 -230 281 -244 289 -238 b 304 -200 301 -222 304 -212 b 284 -160 304 -181 297 -167 b 238 -149 271 -152 255 -149 b 208 -151 228 -149 219 -150 b 179 -158 198 -153 188 -156 l 156 -131 l 265 0 l 335 0 l 253 -97 "},"ţ":{"ha":450,"x_min":0,"x_max":0,"o":"m 275 553 l 213 207 b 208 165 210 191 208 177 b 230 109 208 138 216 119 b 288 94 244 99 263 94 b 326 99 300 94 313 96 b 358 110 339 101 350 105 l 349 7 b 301 -6 336 1 320 -3 b 244 -11 282 -9 263 -11 b 123 23 194 -11 153 0 b 78 131 93 46 78 81 b 79 163 78 141 78 151 b 83 196 80 174 81 185 l 147 553 l 22 553 l 42 658 l 165 658 l 197 847 l 325 847 l 292 658 l 457 658 l 438 553 m 193 -97 b 213 -94 200 -95 207 -94 b 229 -93 218 -93 224 -93 b 267 -98 241 -93 254 -95 b 304 -115 281 -101 293 -107 b 332 -145 315 -122 325 -133 b 343 -192 339 -158 343 -173 b 325 -256 343 -217 337 -238 b 280 -297 313 -273 298 -287 b 221 -319 262 -307 242 -315 b 160 -326 200 -324 179 -326 b 83 -318 136 -326 110 -324 b 15 -294 56 -312 34 -305 l 49 -236 b 99 -253 64 -244 81 -249 b 154 -260 117 -258 136 -260 b 183 -257 163 -260 173 -259 b 213 -248 194 -255 203 -252 b 235 -230 222 -244 229 -238 b 244 -200 241 -222 244 -212 b 224 -160 244 -181 238 -167 b 178 -149 211 -152 195 -149 b 149 -151 169 -149 159 -150 b 119 -158 138 -153 129 -156 l 96 -131 l 206 0 l 275 0 l 193 -97 "},"Ť":{"ha":743,"x_min":0,"x_max":0,"o":"m 225 0 l 378 864 l 67 864 l 88 983 l 843 983 l 822 864 l 514 864 l 361 0 m 403 1061 l 283 1261 l 404 1261 l 485 1124 l 615 1261 l 740 1261 l 550 1061 "},"ť":{"ha":450,"x_min":0,"x_max":0,"o":"m 275 553 l 213 207 b 208 165 210 191 208 177 b 230 109 208 138 216 119 b 288 94 244 99 263 94 b 326 99 300 94 313 96 b 358 110 339 101 350 105 l 349 7 b 301 -6 336 1 320 -3 b 244 -11 282 -9 263 -11 b 123 23 194 -11 153 0 b 78 131 93 46 78 81 b 79 163 78 141 78 151 b 83 196 80 174 81 185 l 147 553 l 22 553 l 42 658 l 165 658 l 197 847 l 325 847 l 292 658 l 457 658 l 438 553 m 350 751 l 494 1015 l 624 1015 l 457 751 "},"Ŧ":{"ha":757,"x_min":0,"x_max":0,"o":"m 385 864 l 74 864 l 94 983 l 850 983 l 829 864 l 521 864 l 496 729 l 722 729 l 707 642 l 481 642 l 368 0 l 232 0 l 344 642 l 117 642 l 132 729 l 360 729 "},"ŧ":{"ha":450,"x_min":0,"x_max":0,"o":"m 147 553 l 22 553 l 42 658 l 165 658 l 197 847 l 325 847 l 292 658 l 457 658 l 438 553 l 275 553 l 251 422 l 394 422 l 379 335 l 235 335 l 213 207 b 208 165 210 191 208 177 b 230 109 208 138 216 119 b 288 94 244 99 263 94 b 326 99 300 94 313 96 b 358 110 339 101 350 105 l 349 7 b 301 -6 336 1 320 -3 b 244 -11 282 -9 263 -11 b 123 23 194 -11 153 0 b 78 131 93 46 78 81 b 79 163 78 141 78 151 b 83 196 80 174 81 185 l 108 335 l 8 335 l 24 422 l 124 422 "},"Ũ":{"ha":989,"x_min":0,"x_max":0,"o":"m 440 -25 b 288 -1 382 -25 331 -17 b 181 64 245 14 209 36 b 116 160 152 92 130 124 b 94 278 102 197 94 236 b 103 364 94 306 97 334 l 211 983 l 347 983 l 239 372 b 232 299 234 346 232 322 b 243 220 232 271 236 245 b 280 155 250 196 263 174 b 346 110 297 136 319 121 b 444 93 373 99 406 93 b 567 117 493 93 533 101 b 650 180 600 132 628 153 b 702 269 672 206 690 236 b 731 372 715 303 724 337 l 838 983 l 974 983 l 865 364 b 822 219 856 314 841 266 b 741 94 802 172 775 131 b 616 8 707 58 666 29 b 440 -25 566 -14 508 -25 m 361 1072 b 386 1131 368 1093 376 1112 b 422 1182 396 1150 408 1167 b 469 1218 435 1197 451 1209 b 532 1232 487 1227 508 1232 b 584 1224 550 1232 568 1229 b 632 1203 600 1218 616 1211 b 678 1183 648 1195 663 1189 b 719 1174 693 1177 706 1174 b 767 1194 739 1174 755 1181 b 796 1239 779 1208 788 1223 l 872 1239 b 847 1180 865 1219 856 1199 b 811 1129 837 1161 825 1144 b 763 1093 797 1114 781 1102 b 701 1079 745 1084 725 1079 b 653 1088 685 1079 669 1082 b 606 1107 637 1093 621 1100 b 559 1128 590 1115 574 1122 b 515 1138 544 1134 529 1138 b 467 1117 495 1138 479 1131 b 438 1072 455 1103 445 1088 l 361 1072 "},"ũ":{"ha":807,"x_min":0,"x_max":0,"o":"m 489 0 b 496 52 491 13 493 30 b 503 107 499 74 501 92 l 500 107 b 408 16 476 69 445 39 b 281 -18 370 -7 328 -18 b 116 40 208 -18 153 1 b 60 186 78 78 60 127 b 62 218 60 196 60 207 b 67 251 63 229 65 240 l 139 658 l 267 658 l 203 296 b 198 258 201 283 199 270 b 196 221 197 245 196 233 b 224 128 196 183 205 152 b 322 92 242 104 275 92 b 458 151 374 92 419 111 b 532 308 496 190 521 243 l 594 658 l 722 658 l 632 143 b 620 75 628 125 624 103 b 611 0 616 47 613 22 l 489 0 m 207 794 b 232 853 213 815 222 834 b 267 904 242 872 254 889 b 315 940 281 919 297 931 b 378 954 333 950 354 954 b 430 946 396 954 414 951 b 478 925 446 940 462 933 b 524 905 494 918 509 911 b 565 896 538 899 552 896 b 613 917 585 896 600 903 b 642 961 625 931 634 945 l 718 961 b 692 902 711 941 702 921 b 657 851 683 883 671 866 b 609 815 643 837 627 825 b 547 801 591 806 570 801 b 499 810 531 801 514 804 b 451 829 483 815 467 822 b 405 851 436 838 420 845 b 361 860 390 857 375 860 b 313 839 341 860 325 853 b 283 794 300 825 291 810 l 207 794 "},"Ū":{"ha":989,"x_min":0,"x_max":0,"o":"m 440 -25 b 288 -1 382 -25 331 -17 b 181 64 245 14 209 36 b 116 160 152 92 130 124 b 94 278 102 197 94 236 b 103 364 94 306 97 334 l 211 983 l 347 983 l 239 372 b 232 299 234 346 232 322 b 243 220 232 271 236 245 b 280 155 250 196 263 174 b 346 110 297 136 319 121 b 444 93 373 99 406 93 b 567 117 493 93 533 101 b 650 180 600 132 628 153 b 702 269 672 206 690 236 b 731 372 715 303 724 337 l 838 983 l 974 983 l 865 364 b 822 219 856 314 841 266 b 741 94 802 172 775 131 b 616 8 707 58 666 29 b 440 -25 566 -14 508 -25 m 403 1107 l 418 1199 l 828 1199 l 811 1107 "},"ū":{"ha":807,"x_min":0,"x_max":0,"o":"m 489 0 b 496 52 491 13 493 30 b 503 107 499 74 501 92 l 500 107 b 408 16 476 69 445 39 b 281 -18 370 -7 328 -18 b 116 40 208 -18 153 1 b 60 186 78 78 60 127 b 62 218 60 196 60 207 b 67 251 63 229 65 240 l 139 658 l 267 658 l 203 296 b 198 258 201 283 199 270 b 196 221 197 245 196 233 b 224 128 196 183 205 152 b 322 92 242 104 275 92 b 458 151 374 92 419 111 b 532 308 496 190 521 243 l 594 658 l 722 658 l 632 143 b 620 75 628 125 624 103 b 611 0 616 47 613 22 l 489 0 m 251 829 l 267 921 l 676 921 l 660 829 "},"Ŭ":{"ha":989,"x_min":0,"x_max":0,"o":"m 440 -25 b 288 -1 382 -25 331 -17 b 181 64 245 14 209 36 b 116 160 152 92 130 124 b 94 278 102 197 94 236 b 103 364 94 306 97 334 l 211 983 l 347 983 l 239 372 b 232 299 234 346 232 322 b 243 220 232 271 236 245 b 280 155 250 196 263 174 b 346 110 297 136 319 121 b 444 93 373 99 406 93 b 567 117 493 93 533 101 b 650 180 600 132 628 153 b 702 269 672 206 690 236 b 731 372 715 303 724 337 l 838 983 l 974 983 l 865 364 b 822 219 856 314 841 266 b 741 94 802 172 775 131 b 616 8 707 58 666 29 b 440 -25 566 -14 508 -25 m 844 1261 b 759 1119 831 1200 803 1153 b 601 1069 715 1086 663 1069 b 457 1116 540 1069 492 1085 b 404 1261 422 1147 404 1195 l 482 1261 b 492 1214 482 1243 485 1227 b 518 1183 498 1201 507 1191 b 558 1166 529 1175 542 1169 b 607 1161 573 1163 589 1161 b 709 1183 646 1161 680 1168 b 768 1261 738 1197 758 1223 l 844 1261 "},"ŭ":{"ha":807,"x_min":0,"x_max":0,"o":"m 489 0 b 496 52 491 13 493 30 b 503 107 499 74 501 92 l 500 107 b 408 16 476 69 445 39 b 281 -18 370 -7 328 -18 b 116 40 208 -18 153 1 b 60 186 78 78 60 127 b 62 218 60 196 60 207 b 67 251 63 229 65 240 l 139 658 l 267 658 l 203 296 b 198 258 201 283 199 270 b 196 221 197 245 196 233 b 224 128 196 183 205 152 b 322 92 242 104 275 92 b 458 151 374 92 419 111 b 532 308 496 190 521 243 l 594 658 l 722 658 l 632 143 b 620 75 628 125 624 103 b 611 0 616 47 613 22 l 489 0 m 689 983 b 603 842 676 922 647 875 b 446 792 559 808 507 792 b 301 838 385 792 337 807 b 249 983 266 869 249 918 l 326 983 b 336 936 326 965 330 949 b 363 905 343 923 351 913 b 402 888 374 897 387 891 b 451 883 417 885 434 883 b 553 905 490 883 524 891 b 613 983 583 919 602 945 l 689 983 "},"Ů":{"ha":989,"x_min":0,"x_max":0,"o":"m 440 -25 b 288 -1 382 -25 331 -17 b 181 64 245 14 209 36 b 116 160 152 92 130 124 b 94 278 102 197 94 236 b 103 364 94 306 97 334 l 211 983 l 347 983 l 239 372 b 232 299 234 346 232 322 b 243 220 232 271 236 245 b 280 155 250 196 263 174 b 346 110 297 136 319 121 b 444 93 373 99 406 93 b 567 117 493 93 533 101 b 650 180 600 132 628 153 b 702 269 672 206 690 236 b 731 372 715 303 724 337 l 838 983 l 974 983 l 865 364 b 822 219 856 314 841 266 b 741 94 802 172 775 131 b 616 8 707 58 666 29 b 440 -25 566 -14 508 -25 m 604 1046 b 517 1079 569 1046 540 1057 b 483 1161 495 1101 483 1129 b 494 1223 483 1183 487 1204 b 526 1274 502 1242 513 1259 b 576 1308 540 1288 557 1300 b 638 1321 595 1317 615 1321 b 725 1289 674 1321 703 1310 b 758 1207 747 1268 758 1240 b 715 1092 758 1162 744 1123 b 604 1046 687 1061 650 1046 m 701 1199 b 683 1249 701 1218 695 1235 b 633 1269 671 1263 655 1269 b 567 1240 606 1269 584 1260 b 542 1168 550 1221 542 1197 b 559 1119 542 1149 547 1132 b 608 1099 571 1105 587 1099 b 675 1128 635 1099 657 1108 b 701 1199 693 1147 701 1171 "},"ů":{"ha":807,"x_min":0,"x_max":0,"o":"m 489 0 b 496 52 491 13 493 30 b 503 107 499 74 501 92 l 500 107 b 408 16 476 69 445 39 b 281 -18 370 -7 328 -18 b 116 40 208 -18 153 1 b 60 186 78 78 60 127 b 62 218 60 196 60 207 b 67 251 63 229 65 240 l 139 658 l 267 658 l 203 296 b 198 258 201 283 199 270 b 196 221 197 245 196 233 b 224 128 196 183 205 152 b 322 92 242 104 275 92 b 458 151 374 92 419 111 b 532 308 496 190 521 243 l 594 658 l 722 658 l 632 143 b 620 75 628 125 624 103 b 611 0 616 47 613 22 l 489 0 m 447 768 b 360 801 412 768 383 779 b 326 883 338 824 326 851 b 338 945 326 906 330 926 b 369 996 345 964 356 981 b 419 1031 383 1011 400 1022 b 481 1043 438 1039 458 1043 b 568 1011 517 1043 546 1032 b 601 929 590 990 601 963 b 558 815 601 884 587 846 b 447 768 530 784 493 768 m 544 921 b 526 971 544 940 538 957 b 476 992 514 985 498 992 b 410 963 450 992 428 982 b 385 890 393 943 385 919 b 402 841 385 871 391 854 b 451 821 414 828 430 821 b 518 850 478 821 500 831 b 544 921 536 869 544 893 "},"Ű":{"ha":989,"x_min":0,"x_max":0,"o":"m 440 -25 b 288 -1 382 -25 331 -17 b 181 64 245 14 209 36 b 116 160 152 92 130 124 b 94 278 102 197 94 236 b 103 364 94 306 97 334 l 211 983 l 347 983 l 239 372 b 232 299 234 346 232 322 b 243 220 232 271 236 245 b 280 155 250 196 263 174 b 346 110 297 136 319 121 b 444 93 373 99 406 93 b 567 117 493 93 533 101 b 650 180 600 132 628 153 b 702 269 672 206 690 236 b 731 372 715 303 724 337 l 838 983 l 974 983 l 865 364 b 822 219 856 314 841 266 b 741 94 802 172 775 131 b 616 8 707 58 666 29 b 440 -25 566 -14 508 -25 m 661 1061 l 836 1261 l 993 1261 l 767 1061 m 411 1061 l 585 1261 l 742 1261 l 517 1061 "},"ű":{"ha":807,"x_min":0,"x_max":0,"o":"m 489 0 b 496 52 491 13 493 30 b 503 107 499 74 501 92 l 500 107 b 408 16 476 69 445 39 b 281 -18 370 -7 328 -18 b 116 40 208 -18 153 1 b 60 186 78 78 60 127 b 62 218 60 196 60 207 b 67 251 63 229 65 240 l 139 658 l 267 658 l 203 296 b 198 258 201 283 199 270 b 196 221 197 245 196 233 b 224 128 196 183 205 152 b 322 92 242 104 275 92 b 458 151 374 92 419 111 b 532 308 496 190 521 243 l 594 658 l 722 658 l 632 143 b 620 75 628 125 624 103 b 611 0 616 47 613 22 l 489 0 m 514 783 l 689 983 l 846 983 l 619 783 m 264 783 l 438 983 l 594 983 l 369 783 "},"Ų":{"ha":989,"x_min":0,"x_max":0,"o":"m 544 -265 b 478 -303 523 -281 501 -294 b 407 -317 455 -312 431 -317 b 325 -291 375 -317 347 -308 b 292 -212 303 -274 292 -248 b 303 -159 292 -194 295 -176 b 331 -110 310 -142 320 -125 b 371 -65 343 -94 356 -79 b 417 -25 386 -50 401 -37 b 274 3 362 -23 315 -14 b 174 69 234 19 201 41 b 115 163 148 96 128 128 b 94 278 101 199 94 237 b 103 364 94 306 97 334 l 211 983 l 347 983 l 239 372 b 232 299 234 346 232 322 b 243 220 232 271 236 245 b 280 155 250 196 263 174 b 346 110 297 136 319 121 b 444 93 373 99 406 93 b 567 117 493 93 533 101 b 650 180 600 132 628 153 b 702 269 672 206 690 236 b 731 372 715 303 724 337 l 838 983 l 974 983 l 865 364 b 826 230 857 318 844 273 b 756 113 809 187 785 148 b 650 24 727 77 692 48 b 501 -21 608 1 559 -14 b 424 -103 472 -48 446 -75 b 390 -185 401 -131 390 -158 b 407 -223 390 -203 396 -216 b 447 -233 418 -230 431 -233 b 525 -204 475 -233 501 -224 l 544 -265 "},"ų":{"ha":807,"x_min":0,"x_max":0,"o":"m 579 -265 b 513 -303 558 -281 536 -294 b 442 -317 489 -312 466 -317 b 360 -291 409 -317 382 -308 b 326 -212 338 -274 326 -248 b 342 -149 326 -190 331 -169 b 381 -91 352 -128 365 -109 b 434 -40 397 -73 415 -56 b 489 3 453 -25 471 -10 b 496 53 491 16 493 33 b 503 107 499 74 501 92 l 500 107 b 408 16 476 69 445 39 b 281 -18 370 -7 328 -18 b 116 40 208 -18 153 1 b 60 186 78 78 60 127 b 62 218 60 196 60 207 b 67 251 63 229 65 240 l 139 658 l 267 658 l 203 296 b 198 258 201 283 199 270 b 196 221 197 245 196 233 b 224 128 196 183 205 152 b 322 92 242 104 275 92 b 458 151 374 92 419 111 b 532 308 496 190 521 243 l 594 658 l 722 658 l 632 143 b 620 75 628 125 624 103 b 611 0 616 47 613 22 l 561 0 b 510 -45 544 -15 526 -30 b 466 -92 493 -60 478 -76 b 436 -139 453 -107 444 -123 b 425 -185 429 -155 425 -170 b 442 -223 425 -203 431 -216 b 482 -233 453 -230 466 -233 b 560 -204 510 -233 536 -224 l 579 -265 "},"Ŵ":{"ha":1364,"x_min":0,"x_max":0,"o":"m 326 197 l 708 983 l 858 983 l 938 197 l 940 197 l 1311 983 l 1456 983 l 978 0 l 836 0 l 751 794 l 749 794 l 356 0 l 213 0 l 117 983 l 260 983 l 324 197 m 904 1061 l 822 1199 l 692 1061 l 565 1061 l 757 1261 l 904 1261 l 1024 1061 "},"ŵ":{"ha":1054,"x_min":0,"x_max":0,"o":"m 236 156 l 239 156 l 496 658 l 625 658 l 690 156 l 694 156 l 944 658 l 1081 658 l 733 0 l 600 0 l 533 499 l 531 499 l 271 0 l 138 0 l 56 658 l 190 658 m 692 783 l 610 921 l 479 783 l 353 783 l 544 983 l 692 983 l 811 783 "},"Ŷ":{"ha":778,"x_min":0,"x_max":0,"o":"m 236 0 l 311 425 l 64 983 l 218 983 l 399 536 l 758 983 l 925 983 l 447 425 l 372 0 m 607 1061 l 525 1199 l 394 1061 l 268 1061 l 460 1261 l 607 1261 l 726 1061 "},"ŷ":{"ha":688,"x_min":0,"x_max":0,"o":"m 290 140 l 582 658 l 721 658 l 239 -156 b 190 -230 222 -183 206 -208 b 139 -285 175 -252 157 -270 b 78 -321 120 -301 100 -312 b 3 -333 56 -329 31 -333 b -79 -324 -26 -333 -53 -330 l -61 -210 b 0 -221 -41 -217 -20 -221 b 74 -192 30 -221 54 -211 b 135 -111 93 -173 113 -146 l 200 0 l 56 658 l 193 658 l 288 140 m 517 783 l 435 921 l 304 783 l 178 783 l 369 983 l 517 983 l 636 783 "},"Ź":{"ha":806,"x_min":0,"x_max":0,"o":"m 154 121 l 714 121 l 693 0 l -46 0 l -25 119 l 660 864 l 150 864 l 171 983 l 857 983 l 835 864 m 421 1061 l 594 1261 l 749 1261 l 524 1061 "},"ź":{"ha":640,"x_min":0,"x_max":0,"o":"m 151 108 l 539 108 l 521 0 l -29 0 l -11 106 l 443 553 l 90 553 l 110 658 l 625 658 l 607 553 m 282 783 l 456 983 l 610 983 l 385 783 "},"Ż":{"ha":806,"x_min":0,"x_max":0,"o":"m 154 121 l 714 121 l 693 0 l -46 0 l -25 119 l 660 864 l 150 864 l 171 983 l 857 983 l 835 864 m 624 1176 b 600 1117 624 1153 616 1133 b 542 1092 584 1100 565 1092 b 484 1113 519 1092 500 1099 b 460 1171 468 1126 460 1146 b 485 1233 460 1196 468 1216 b 544 1257 503 1249 522 1257 b 601 1235 567 1257 585 1250 b 624 1176 616 1220 624 1200 "},"ż":{"ha":640,"x_min":0,"x_max":0,"o":"m 151 108 l 539 108 l 521 0 l -29 0 l -11 106 l 443 553 l 90 553 l 110 658 l 625 658 l 607 553 m 482 899 b 458 839 482 875 474 856 b 400 814 443 822 423 814 b 342 835 378 814 359 821 b 318 893 326 849 318 868 b 344 955 318 918 327 939 b 403 979 361 971 381 979 b 459 957 425 979 444 972 b 482 899 474 942 482 923 "},"ƒ":{"ha":826,"x_min":0,"x_max":0,"o":"m 458 488 l 293 42 b 249 -53 280 7 265 -24 b 190 -127 232 -81 213 -106 b 114 -176 168 -148 143 -164 b 15 -193 85 -187 52 -193 b -49 -185 -7 -193 -28 -190 b -106 -160 -70 -179 -89 -171 l -36 -64 b 31 -82 -17 -76 6 -82 b 82 -70 50 -82 67 -78 b 120 -38 97 -62 109 -52 b 149 8 131 -25 140 -9 b 172 64 157 26 165 44 l 326 488 l 172 488 l 190 588 l 364 588 l 429 764 b 469 854 440 795 454 825 b 526 929 485 883 504 908 b 601 981 547 950 573 968 b 701 1000 630 994 663 1000 b 776 989 728 1000 753 996 b 840 958 798 981 820 971 l 768 861 b 733 878 758 869 746 874 b 694 885 720 883 707 885 b 638 869 672 885 653 880 b 597 832 622 859 608 847 b 569 783 586 817 577 801 b 549 733 561 765 554 748 l 494 588 l 654 588 l 636 488 "},"Ș":{"ha":790,"x_min":0,"x_max":0,"o":"m 668 806 b 593 870 650 832 625 854 b 486 894 562 886 526 894 b 415 885 463 894 439 891 b 347 853 390 878 367 868 b 295 799 326 839 309 821 b 275 719 282 776 275 750 b 287 664 275 698 279 680 b 319 622 295 648 306 634 b 369 590 333 610 350 599 b 433 563 389 580 410 571 b 534 519 469 550 503 535 b 616 462 565 503 592 484 b 672 387 640 440 658 415 b 692 289 685 359 692 326 b 666 163 692 244 683 202 b 592 64 649 125 624 92 b 476 -1 560 36 522 14 b 324 -25 431 -17 380 -25 b 230 -15 292 -25 261 -22 b 140 13 199 -9 169 1 b 62 60 112 26 85 41 b 3 128 38 79 19 102 l 117 204 b 201 123 135 172 163 145 b 329 90 238 101 281 90 b 410 102 357 90 384 94 b 481 137 437 110 460 122 b 530 194 501 152 517 171 b 549 274 542 216 549 243 b 533 339 549 299 544 320 b 492 388 523 357 509 374 b 431 424 474 401 454 414 b 357 454 407 435 383 445 b 274 492 328 465 300 478 b 203 542 247 506 223 522 b 154 611 182 561 166 584 b 136 707 142 638 136 670 b 163 831 136 752 145 794 b 239 926 181 869 206 900 b 354 987 271 952 310 972 b 499 1008 399 1001 447 1008 b 659 976 556 1008 609 998 b 774 886 709 955 747 925 l 668 806 m 107 -326 l 251 -62 l 381 -62 l 214 -326 "},"ș":{"ha":617,"x_min":0,"x_max":0,"o":"m 482 500 b 429 553 469 521 451 539 b 343 574 407 567 378 574 b 296 569 327 574 312 572 b 252 553 280 566 266 560 b 219 525 239 547 228 537 b 207 482 211 513 207 499 b 238 422 207 454 217 434 b 325 389 258 410 287 399 b 470 317 388 370 436 347 b 521 193 504 288 521 247 b 497 99 521 157 513 125 b 435 32 481 72 461 50 b 349 -8 410 14 381 1 b 250 -21 316 -16 283 -21 b 87 14 187 -21 133 -9 b -19 108 41 37 6 69 l 85 176 b 151 111 100 150 122 128 b 250 86 180 94 213 86 b 351 110 289 86 323 94 b 394 183 380 127 394 151 b 360 249 394 212 383 234 b 258 293 338 263 304 278 b 188 319 232 301 209 310 b 132 354 166 329 148 340 b 95 403 116 368 104 384 b 82 471 86 421 82 444 b 104 558 82 503 89 532 b 164 622 119 583 139 605 b 251 663 189 640 218 653 b 353 676 284 672 318 676 b 490 647 404 676 450 667 b 582 565 531 628 562 600 l 482 500 m 25 -326 l 169 -62 l 299 -62 l 132 -326 "},"Ț":{"ha":743,"x_min":0,"x_max":0,"o":"m 225 0 l 378 864 l 67 864 l 88 983 l 843 983 l 822 864 l 514 864 l 361 0 m 90 -326 l 235 -62 l 364 -62 l 197 -326 "},"ț":{"ha":450,"x_min":0,"x_max":0,"o":"m 275 553 l 213 207 b 208 165 210 191 208 177 b 230 109 208 138 216 119 b 288 94 244 99 263 94 b 326 99 300 94 313 96 b 358 110 339 101 350 105 l 349 7 b 301 -6 336 1 320 -3 b 244 -11 282 -9 263 -11 b 123 23 194 -11 153 0 b 78 131 93 46 78 81 b 79 163 78 141 78 151 b 83 196 80 174 81 185 l 147 553 l 22 553 l 42 658 l 165 658 l 197 847 l 325 847 l 292 658 l 457 658 l 438 553 m -12 -326 l 132 -62 l 261 -62 l 94 -326 "},"ˆ":{"ha":347,"x_min":0,"x_max":0,"o":"m 346 783 l 264 921 l 133 783 l 7 783 l 199 983 l 346 983 l 465 783 "},"ˇ":{"ha":347,"x_min":0,"x_max":0,"o":"m 163 783 l 43 983 l 164 983 l 244 846 l 375 983 l 500 983 l 310 783 "},"ˉ":{"ha":347,"x_min":0,"x_max":0,"o":"m 40 1107 l 56 1199 l 465 1199 l 449 1107 "},"˘":{"ha":347,"x_min":0,"x_max":0,"o":"m 492 983 b 406 842 479 922 450 875 b 249 792 362 808 310 792 b 104 838 188 792 139 807 b 51 983 69 869 51 918 l 129 983 b 139 936 129 965 132 949 b 165 905 145 923 154 913 b 205 888 176 897 190 891 b 254 883 220 885 237 883 b 356 905 293 883 327 891 b 415 983 385 919 405 945 l 492 983 "},"˙":{"ha":347,"x_min":0,"x_max":0,"o":"m 340 899 b 317 839 340 875 332 856 b 258 814 301 822 281 814 b 201 835 236 814 217 821 b 176 893 184 849 176 868 b 202 955 176 918 185 939 b 261 979 219 971 239 979 b 317 957 283 979 302 972 b 340 899 333 942 340 923 "},"˚":{"ha":347,"x_min":0,"x_max":0,"o":"m 243 768 b 156 801 208 768 179 779 b 122 883 134 824 122 851 b 133 945 122 906 126 926 b 165 996 141 964 151 981 b 215 1031 179 1011 196 1022 b 276 1043 234 1039 254 1043 b 364 1011 313 1043 342 1032 b 397 929 386 990 397 963 b 354 815 397 884 383 846 b 243 768 325 784 288 768 m 340 921 b 322 971 340 940 334 957 b 272 992 310 985 294 992 b 206 963 245 992 223 982 b 181 890 189 943 181 919 b 198 841 181 871 186 854 b 247 821 209 828 226 821 b 314 850 274 821 296 831 b 340 921 331 869 340 893 "},"˛":{"ha":347,"x_min":0,"x_max":0,"o":"m 165 -265 b 99 -303 144 -281 122 -294 b 28 -317 75 -312 52 -317 b -54 -291 -5 -317 -32 -308 b -87 -212 -76 -274 -87 -248 b -72 -148 -87 -190 -82 -169 b -31 -90 -61 -127 -47 -108 b 22 -39 -15 -72 3 -55 b 78 4 42 -23 60 -9 l 153 4 b 100 -42 134 -11 117 -26 b 55 -90 83 -57 68 -73 b 23 -138 41 -106 31 -122 b 11 -185 15 -154 11 -170 b 28 -223 11 -203 17 -216 b 68 -233 39 -230 52 -233 b 146 -204 96 -233 122 -224 l 165 -265 "},"˜":{"ha":347,"x_min":0,"x_max":0,"o":"m -1 794 b 24 853 5 815 13 834 b 59 904 34 872 46 889 b 106 940 72 919 88 931 b 169 954 124 950 145 954 b 222 946 188 954 205 951 b 269 925 238 940 254 933 b 315 905 285 918 300 911 b 357 896 330 899 344 896 b 404 917 376 896 392 903 b 433 961 416 931 426 945 l 510 961 b 484 902 502 941 494 921 b 449 851 474 883 463 866 b 401 815 435 837 419 825 b 339 801 383 806 362 801 b 290 810 322 801 306 804 b 243 829 275 815 259 822 b 197 851 227 838 212 845 b 153 860 181 857 167 860 b 104 839 132 860 116 853 b 75 794 92 825 82 810 l -1 794 "},"˝":{"ha":347,"x_min":0,"x_max":0,"o":"m 311 783 l 486 983 l 643 983 l 417 783 m 61 783 l 235 983 l 392 983 l 167 783 "},"–":{"ha":556,"x_min":0,"x_max":0,"o":"m 32 288 l 51 392 l 524 392 l 504 288 "},"—":{"ha":833,"x_min":0,"x_max":0,"o":"m 32 288 l 51 392 l 801 392 l 782 288 "},"‘":{"ha":340,"x_min":0,"x_max":0,"o":"m 381 983 l 224 638 l 96 638 l 272 983 "},"’":{"ha":340,"x_min":0,"x_max":0,"o":"m 96 638 l 253 983 l 381 983 l 204 638 "},"‚":{"ha":340,"x_min":0,"x_max":0,"o":"m -49 -185 l 107 161 l 236 161 l 58 -185 "},"“":{"ha":589,"x_min":0,"x_max":0,"o":"m 344 638 l 521 983 l 629 983 l 474 638 m 96 638 l 272 983 l 379 983 l 224 638 "},"”":{"ha":589,"x_min":0,"x_max":0,"o":"m 344 638 l 501 983 l 629 983 l 453 638 m 96 638 l 253 983 l 381 983 l 204 638 "},"„":{"ha":589,"x_min":0,"x_max":0,"o":"m 200 -185 l 356 161 l 485 161 l 308 -185 m -49 -185 l 107 161 l 236 161 l 58 -185 "},"†":{"ha":797,"x_min":0,"x_max":0,"o":"m 789 701 l 769 593 l 489 593 l 354 -175 l 231 -175 l 365 593 l 86 593 l 106 701 l 385 701 l 435 983 l 558 983 l 508 701 "},"‡":{"ha":797,"x_min":0,"x_max":0,"o":"m 782 722 l 763 614 l 493 614 l 419 196 l 689 196 l 671 88 l 401 88 l 354 -175 l 231 -175 l 276 88 l 8 88 l 26 196 l 296 196 l 369 614 l 100 614 l 119 722 l 388 722 l 435 983 l 558 983 l 513 722 "},"•":{"ha":694,"x_min":0,"x_max":0,"o":"m 101 492 b 121 588 101 526 108 558 b 174 665 134 617 151 643 b 251 718 196 688 222 705 b 347 738 281 731 313 738 b 443 718 381 738 413 731 b 521 665 473 705 499 688 b 574 588 543 643 561 617 b 593 492 587 558 593 526 b 574 396 593 457 587 425 b 521 318 561 366 543 340 b 443 265 499 296 473 278 b 347 246 413 252 381 246 b 251 265 313 246 281 252 b 174 318 222 278 196 296 b 121 396 151 340 134 366 b 101 492 108 425 101 457 "},"…":{"ha":1389,"x_min":0,"x_max":0,"o":"m 261 85 b 235 21 261 61 252 39 b 172 -7 217 2 196 -7 b 110 16 148 -7 127 1 b 83 79 92 31 83 52 b 111 145 83 106 93 128 b 175 171 130 162 151 171 b 236 148 199 171 219 163 b 261 85 253 133 261 112 m 725 85 b 699 21 725 61 716 39 b 636 -7 681 2 660 -7 b 574 16 612 -7 591 1 b 547 79 556 31 547 52 b 575 145 547 106 556 128 b 639 171 594 162 615 171 b 700 148 663 171 683 163 b 725 85 717 133 725 112 m 1189 85 b 1163 21 1189 61 1180 39 b 1100 -7 1145 2 1124 -7 b 1038 16 1076 -7 1055 1 b 1011 79 1020 31 1011 52 b 1039 145 1011 106 1020 128 b 1103 171 1057 162 1079 171 b 1164 148 1127 171 1147 163 b 1189 85 1181 133 1189 112 "}}}
